<?xml version="1.0" standalone="no"?>
<!DOCTYPE svg PUBLIC "-//W3C//DTD SVG 1.1//EN" "http://www.w3.org/Graphics/SVG/1.1/DTD/svg11.dtd" >
<svg xmlns="http://www.w3.org/2000/svg">
<metadata></metadata>
<defs>
<font id="bitterbold" horiz-adv-x="592" >
<font-face units-per-em="1000" ascent="800" descent="-200" />
<missing-glyph horiz-adv-x="235" />
<glyph unicode="&#xd;" horiz-adv-x="333" />
<glyph unicode=" "  horiz-adv-x="235" />
<glyph unicode="&#x09;" horiz-adv-x="235" />
<glyph unicode="&#xa0;" horiz-adv-x="235" />
<glyph unicode="!" horiz-adv-x="340" d="M247 765l-18 -504l-120 -5l-18 509h156zM85 78q0 41 25.5 65.5t60.5 24.5q41 0 62.5 -23.5t21.5 -66.5q0 -42 -25.5 -66.5t-61.5 -24.5q-83 0 -83 91z" />
<glyph unicode="&#x22;" horiz-adv-x="441" d="M394 782l-23 -282h-113v282h136zM192 782l-22 -282h-113v282h135z" />
<glyph unicode="#" horiz-adv-x="730" d="M85 367v103h111l18 130h127l-18 -130h126l17 130h127l-17 -130h94v-103h-108l-16 -123h99v-103h-113l-18 -141h-127l18 141h-125l-19 -141h-127l19 141h-93v103h106l17 123h-98zM310 367l-17 -123h126l16 123h-125z" />
<glyph unicode="$" horiz-adv-x="552" d="M332 -146h-107v135q-41 2 -83.5 10t-64.5 15l-22 7v177h92l15 -75q34 -18 87 -18q48 0 80 18.5t32 52.5q0 21 -17 37t-44 26.5t-59.5 21t-65 26t-59.5 36t-44 56t-17 81.5q0 76 46 124t124 63v118h107v-114q38 -3 77 -12t59 -17l20 -7l-4 -164h-86l-19 74q-42 15 -80 15 q-47 0 -72 -17.5t-25 -45.5q0 -29 31.5 -48.5t76 -34t89.5 -34.5t76.5 -61t31.5 -101q0 -81 -47.5 -133.5t-127.5 -69.5v-141z" />
<glyph unicode="%" horiz-adv-x="935" d="M179 -8l418 720h145l-418 -720h-145zM55 529q0 87 51 137.5t129 50.5q76 0 122.5 -46t46.5 -131q0 -86 -51 -138t-130 -52q-77 0 -122.5 44.5t-45.5 134.5zM170 533q0 -96 58 -96q61 0 61 99q0 95 -59 95q-60 0 -60 -98zM519 165q0 87 51 137.5t129 50.5q76 0 122.5 -46 t46.5 -131q0 -86 -51 -138t-130 -52q-77 0 -122.5 44.5t-45.5 134.5zM634 169q0 -96 58 -96q61 0 61 99q0 95 -59 95q-60 0 -60 -98z" />
<glyph unicode="&#x26;" horiz-adv-x="677" d="M426 517q-7 27 -16 65q-34 13 -90 13q-46 0 -70.5 -23t-24.5 -56q0 -43 33.5 -67t81.5 -24h307v-85l-70 -23v-106q0 -104 -72.5 -163.5t-196.5 -59.5q-127 0 -190 54t-63 146q0 37 15.5 70.5t39 55.5t40.5 34.5t32 19.5q-52 32 -73 59q-33 43 -33 99q0 93 67.5 142 t184.5 49q52 0 112 -15t85 -27l-5 -158h-94zM432 225v92h-75q-65 0 -106 -27t-41 -81q0 -47 29 -73t79 -26q53 0 83.5 30t30.5 85z" />
<glyph unicode="'" horiz-adv-x="240" d="M192 782l-22 -282h-113v282h135z" />
<glyph unicode="(" horiz-adv-x="353" d="M220 770h130q-72 -110 -114 -240t-42 -248q0 -130 41.5 -269t113.5 -243h-129q-87 123 -126.5 241.5t-39.5 268.5q0 138 40 251.5t126 238.5z" />
<glyph unicode=")" horiz-adv-x="350" d="M-1 770h130q86 -125 126 -238.5t40 -251.5q0 -150 -39.5 -269t-126.5 -241h-129q72 104 113.5 243t41.5 269q0 118 -42 248t-114 240z" />
<glyph unicode="*" horiz-adv-x="414" d="M167 617l-14 119l93 2l-9 -122l111 49l31 -90l-122 -25l82 -95l-73 -55l-65 111l11 44l45 -5l-37 26l17 40l-36 -29l-34 30l18 -43l-39 -22l45 3l10 -44l-60 -111l-77 54l82 98l-124 21l30 89z" />
<glyph unicode="+" horiz-adv-x="620" d="M42 211v118h202v204h133v-204h200v-118h-200v-211h-133v211h-202z" />
<glyph unicode="," horiz-adv-x="303" d="M71 79q0 40 24.5 64.5t61.5 24.5q38 0 61 -24t23 -68q0 -113 -138 -261l-63 52q60 80 60 120q0 12 -14.5 39t-14.5 53z" />
<glyph unicode="-" horiz-adv-x="395" d="M57 210v125h283v-125h-283z" />
<glyph unicode="." horiz-adv-x="300" d="M65 78q0 41 25.5 65.5t60.5 24.5q41 0 62.5 -23.5t21.5 -66.5q0 -42 -25 -66.5t-61 -24.5q-41 0 -62.5 23.5t-21.5 67.5z" />
<glyph unicode="/" horiz-adv-x="516" d="M20 0l333 705h153l-334 -705h-152z" />
<glyph unicode="0" horiz-adv-x="645" d="M332 717q143 0 200.5 -87.5t57.5 -267.5q0 -375 -268 -375q-137 0 -199.5 90.5t-62.5 269.5q0 182 64.5 276t207.5 94zM326 592q-57 0 -80.5 -53t-23.5 -187q0 -130 24 -185t80 -55t78.5 55t22.5 190q0 132 -22 183.5t-79 51.5z" />
<glyph unicode="1" horiz-adv-x="538" d="M516 115v-115h-430v115h140v430l-153 -98l-58 106l238 152h128v-590h135z" />
<glyph unicode="2" horiz-adv-x="607" d="M557 122v-122h-517v122q78 63 119 97t90.5 79.5t72.5 74t39 61t16 61.5q0 46 -32 73t-85 27q-24 0 -47 -4.5t-35 -8.5l-11 -5l-10 -85h-105l-5 185q113 40 220 40q130 0 201.5 -45.5t71.5 -151.5q0 -51 -17.5 -98t-58.5 -97.5t-86.5 -94t-120.5 -108.5h300z" />
<glyph unicode="3" d="M517 537q0 -64 -32 -108.5t-93 -60.5q63 -14 101.5 -57.5t38.5 -100.5q0 -59 -24.5 -103t-66 -69.5t-91 -37.5t-105.5 -12q-57 0 -112 13.5t-81 26.5l-27 14l42 110q90 -42 178 -42q61 0 94 26t33 76q0 46 -37 72t-105 26h-78v105h83q130 0 130 97q0 38 -29 60.5 t-81 22.5q-22 0 -46.5 -3.5t-38.5 -7.5l-13 -4l-10 -80h-105l-5 175q123 42 223 42q257 0 257 -180z" />
<glyph unicode="4" horiz-adv-x="627" d="M595 265v-123h-100v-142h-154v142h-311l-15 118q279 411 313 460l167 -15v-440h100zM165 265h178v264z" />
<glyph unicode="5" horiz-adv-x="560" d="M17 42l43 110q90 -42 177 -42q50 0 82 26.5t32 73.5q0 56 -46.5 81.5t-139.5 25.5h-108l17 388h410l-3 -123h-265l-7 -150q145 0 226.5 -54.5t81.5 -152.5q0 -110 -77.5 -173.5t-186.5 -63.5q-60 0 -119 13.5t-88 26.5z" />
<glyph unicode="6" horiz-adv-x="617" d="M510 590q-30 5 -78 5q-60 0 -105 -20.5t-66.5 -49.5t-34.5 -58t-15 -49l-2 -21q71 43 156 43q96 0 158 -54.5t62 -155.5q0 -105 -75 -174t-188 -69q-129 0 -199.5 86t-70.5 222q0 189 95.5 305.5t279.5 116.5q26 0 48.5 -2.5t32.5 -4.5l9 -3zM205 287v-24 q0 -78 32.5 -115.5t83.5 -37.5q48 0 77 28.5t29 76.5q0 107 -108 107q-28 0 -56.5 -9t-42.5 -17z" />
<glyph unicode="7" horiz-adv-x="531" d="M5 705h510v-108l-262 -597h-165l259 580h-221l-20 -93h-101v218z" />
<glyph unicode="8" horiz-adv-x="618" d="M556 528q0 -99 -109 -150q126 -59 126 -172q0 -98 -76 -158.5t-199 -60.5q-121 0 -187 56.5t-66 148.5q0 105 128 169q-105 59 -105 160q0 93 68 144.5t185 51.5q113 0 174 -52t61 -137zM415 202q0 38 -30 60.5t-90 45.5q-93 -42 -93 -109q0 -43 27.5 -66t78.5 -23t79 24 t28 68zM217 521q0 -35 27.5 -56t80.5 -41q81 34 81 97q0 33 -26 53.5t-69 20.5q-44 0 -69 -20.5t-25 -53.5z" />
<glyph unicode="9" horiz-adv-x="617" d="M107 114q30 -4 78 -4q61 0 106.5 20t67 49t34 58t13.5 49l2 20q-71 -41 -156 -41q-96 0 -158 54t-62 155q0 106 75 174.5t188 68.5q129 0 199.5 -85.5t70.5 -221.5q0 -123 -39 -216.5t-125 -150t-211 -56.5q-26 0 -48.5 2.5t-31.5 4.5l-10 3zM412 418v27q0 76 -32.5 113 t-83.5 37q-48 0 -77 -28.5t-29 -77.5q0 -51 27.5 -79t80.5 -28q28 0 56.5 9t43.5 18z" />
<glyph unicode=":" horiz-adv-x="305" d="M67 78q0 41 25.5 65.5t61.5 24.5q83 0 83 -90q0 -42 -25 -66.5t-61 -24.5q-41 0 -62.5 23.5t-21.5 67.5zM67 378q0 42 25.5 66.5t61.5 24.5q83 0 83 -91q0 -41 -25.5 -65.5t-60.5 -24.5q-41 0 -62.5 23.5t-21.5 66.5z" />
<glyph unicode=";" horiz-adv-x="311" d="M106 -185l-64 52q60 80 60 120q0 12 -14.5 39t-14.5 53q0 40 24.5 64.5t62.5 24.5t60.5 -24t22.5 -68q0 -112 -137 -261zM73 378q0 42 25 66.5t61 24.5q41 0 62.5 -23.5t21.5 -67.5q0 -41 -25.5 -65.5t-60.5 -24.5q-41 0 -62.5 23.5t-21.5 66.5z" />
<glyph unicode="&#x3c;" horiz-adv-x="597" d="M202 267l355 -145v-132l-517 218v120l517 219v-130z" />
<glyph unicode="=" horiz-adv-x="600" d="M50 107v115h500v-115h-500zM50 322v115h500v-115h-500z" />
<glyph unicode="&#x3e;" horiz-adv-x="597" d="M40 122l355 145l-355 150v130l517 -219v-120l-517 -218v132z" />
<glyph unicode="?" horiz-adv-x="464" d="M94 78q0 41 25.5 65.5t60.5 24.5q41 0 62.5 -23.5t21.5 -66.5q0 -42 -25.5 -66.5t-61.5 -24.5q-83 0 -83 91zM236 253l-133 -6q-9 65 -9 98q0 32 26.5 65.5t58 57t58 55.5t26.5 63q0 66 -90 66q-19 0 -41.5 -3t-35.5 -5l-12 -3l-19 104q83 24 149 24q54 0 97 -13.5 t73 -49.5t30 -92q0 -43 -18.5 -81t-45 -66t-53 -53t-45 -51.5t-18.5 -51.5z" />
<glyph unicode="@" horiz-adv-x="820" d="M593 147q-85 0 -120 62l-16 -16t-41 -26t-61 -16q-53 0 -83 31t-30 84q0 119 168 119h46v34q0 47 -58 47q-20 0 -47 -4t-44 -8l-17 -5l-19 74q80 30 151 30q77 0 112 -30t35 -96v-166q0 -35 35 -35q31 0 48.5 34.5t17.5 100.5q0 122 -65.5 190.5t-188.5 68.5 q-124 0 -191.5 -70.5t-67.5 -199.5q0 -130 58.5 -199t177.5 -69q30 0 61.5 6t47.5 12l16 7l41 -82l-22 -11t-59 -18t-92 -11q-164 0 -251.5 92.5t-87.5 267.5q0 172 101.5 272t272.5 100q167 0 263 -91t96 -260q0 -103 -52.5 -161t-134.5 -58zM347 275q0 -17 11 -27t30 -10 q34 0 68 34v47h-39q-70 0 -70 -44z" />
<glyph unicode="A" horiz-adv-x="762" d="M465 705l215 -595l70 -23v-87h-318v87l75 23l-24 75h-222l-25 -74l78 -24v-87h-302v87l73 23l220 592zM375 529l-79 -237h154z" />
<glyph unicode="B" horiz-adv-x="657" d="M267 705h105q101 0 160.5 -43.5t59.5 -129.5q0 -127 -120 -165q143 -41 143 -160q0 -207 -260 -207h-315v87q25 9 75 25v475l-75 30v83zM325 312h-58v-195h83q52 0 79.5 24t27.5 66q0 54 -32 79.5t-100 25.5zM267 587v-170h58q112 0 112 93q0 38 -23.5 57.5t-61.5 19.5 h-85z" />
<glyph unicode="C" horiz-adv-x="652" d="M484 576q-47 16 -112 16q-165 0 -165 -245q0 -230 170 -230q44 0 91.5 17.5t73.5 35.5l25 17l55 -90q-4 -4 -12 -11.5t-34.5 -26.5t-55.5 -33t-72.5 -26t-87.5 -12q-153 0 -236.5 90.5t-83.5 263.5q0 175 91 275t246 100q54 0 112 -11.5t89 -23.5l32 -12l-5 -190h-98z " />
<glyph unicode="D" horiz-adv-x="730" d="M52 0v87l75 25v475l-75 30v83l230 5h95q152 0 235 -88t83 -255q0 -168 -90 -265t-243 -97h-310zM282 587v-470h83q78 0 120 55.5t42 184.5q0 122 -39.5 176t-115.5 54h-90z" />
<glyph unicode="E" horiz-adv-x="627" d="M285 587v-167h202v-110h-202v-193h177l23 83h92v-200h-522v87l75 25v475l-75 30v83l230 5h280v-193h-93l-25 75h-162z" />
<glyph unicode="F" horiz-adv-x="580" d="M367 87v-87h-322v87q25 9 75 25v475l-75 30v83l230 5h280v-190h-93l-25 72h-162v-177h207v-110h-207v-188q78 -21 92 -25z" />
<glyph unicode="G" horiz-adv-x="750" d="M527 490l-25 86q-47 16 -113 16q-167 0 -167 -245q0 -232 170 -232q23 0 50.5 4.5t43.5 8.5l16 5v126l-75 23v82l288 5v-87l-68 -23v-204q-12 -8 -33.5 -19t-92.5 -29.5t-146 -18.5q-153 0 -236.5 90.5t-83.5 263.5q0 175 91 275t246 100q54 0 112 -11.5t90 -23.5l31 -12 l-5 -180h-93z" />
<glyph unicode="H" horiz-adv-x="792" d="M342 87v-87h-307v87l75 25v475l-75 30v83l307 5v-88l-77 -30v-165h262v165l-77 30v83l307 5v-88l-75 -30v-475l75 -25v-87h-307v87l77 25v193h-262v-193z" />
<glyph unicode="I" horiz-adv-x="375" d="M340 87v-87h-305v87l75 25v475l-75 30v83l305 5v-88l-75 -30v-475z" />
<glyph unicode="J" horiz-adv-x="382" d="M272 587v-481q0 -136 -50.5 -199.5t-177.5 -63.5l-76 7l13 100h48q88 0 88 96v541l-75 30v83l305 5v-88z" />
<glyph unicode="K" horiz-adv-x="735" d="M347 87v-87h-307v87l75 25v475l-75 30v83l307 5v-88l-77 -30v-172h68l167 285l182 5v-88l-89 -28l-132 -218l187 -259l74 -25v-87h-307v87l58 24l-135 194h-73v-193z" />
<glyph unicode="L" horiz-adv-x="540" d="M262 587v-470h153l22 113h95v-230h-500v87l75 25v475l-75 30v83l305 5v-88z" />
<glyph unicode="M" horiz-adv-x="877" d="M322 87v-87h-285v87l75 25v475l-75 30v83l258 5l150 -333l157 328l240 5v-88l-72 -30v-475l75 -25v-87h-298v87l78 25v379q-18 -47 -41.5 -97.5t-53 -110t-45.5 -93.5l-108 -5l-115 237l-17 52v-362z" />
<glyph unicode="N" horiz-adv-x="785" d="M325 87v-87h-290v87l75 25v475l-75 30v83l240 5l270 -462v344l-73 30v83l285 5v-88l-75 -30v-587h-167l-268 453v-341z" />
<glyph unicode="O" horiz-adv-x="755" d="M385 717q150 0 232.5 -93.5t82.5 -261.5q0 -169 -92.5 -272t-242.5 -103t-230 92t-80 268q0 172 88.5 271t241.5 99zM380 592q-78 0 -118 -55.5t-40 -184.5q0 -123 36.5 -181.5t111.5 -58.5q79 0 120.5 57.5t41.5 187.5q0 122 -38 178.5t-114 56.5z" />
<glyph unicode="P" horiz-adv-x="630" d="M347 87v-87h-305v87l75 25v475l-75 30v83l230 5h95q114 0 178.5 -56t64.5 -154q0 -124 -73.5 -187t-211.5 -63h-53v-133zM272 587v-225h53q63 0 96.5 29t33.5 84q0 50 -26.5 81t-76.5 31h-80z" />
<glyph unicode="Q" horiz-adv-x="742" d="M542 -147l-202 136q-139 9 -212 100t-73 258q0 171 91 270.5t246 99.5q153 0 235.5 -93.5t82.5 -261.5q0 -129 -55 -221t-153 -130q8 -5 44.5 -29.5t53.5 -34.5t45.5 -21t49.5 -11q14 0 37 8.5t39 17.5l16 9q10 -15 29 -44t24 -36q-12 -8 -31 -19.5t-64.5 -31 t-74.5 -19.5q-50 0 -128 53zM387 592q-85 0 -126 -57.5t-41 -182.5q0 -240 157 -240q85 0 126.5 60t41.5 185q0 121 -38 178t-120 57z" />
<glyph unicode="R" horiz-adv-x="680" d="M342 87v-87h-302v87l75 25v475l-75 30v83l230 5h76q125 0 192.5 -51.5t67.5 -152.5q0 -133 -113 -189q25 -29 42 -65l67 -137l68 -23v-87h-185l-84 185q-27 60 -42.5 76t-53.5 16h-35v-165zM270 587v-205h57q59 0 92 27.5t33 77.5q0 45 -27 72.5t-73 27.5h-82z" />
<glyph unicode="S" horiz-adv-x="604" d="M162 217l15 -84q40 -21 98 -21q51 0 86 21.5t35 59.5q0 27 -25 47t-62.5 31t-81.5 29.5t-81.5 40t-62.5 64t-25 100.5q0 101 70.5 156.5t183.5 55.5q50 0 105 -10t85 -20l30 -10l-5 -182h-92l-25 85q-45 15 -88 15q-51 0 -78.5 -20t-27.5 -51q0 -27 25 -47t62.5 -31.5 t81 -29.5t81 -39t62.5 -62t25 -96q0 -109 -75.5 -170.5t-194.5 -61.5q-50 0 -106 9.5t-87 19.5l-30 9v192h102z" />
<glyph unicode="T" horiz-adv-x="600" d="M140 0v87l82 25v475h-95l-25 -95h-92v210l580 3v-213h-93l-25 95h-95v-475l83 -25v-87h-320z" />
<glyph unicode="U" horiz-adv-x="782" d="M262 587v-317q0 -87 29 -123.5t101 -36.5q76 0 102 40.5t26 134.5v302l-78 30v83l308 5v-88l-75 -30v-302q0 -150 -66 -223.5t-222 -73.5q-148 0 -214 68t-66 214v317l-75 30v83l308 5v-88z" />
<glyph unicode="V" horiz-adv-x="729" d="M277 0l-202 589l-68 28v83l310 5v-88l-74 -29l92 -289l32 -123l32 118l99 293l-76 30v83l299 5v-88l-73 -30l-211 -587h-160z" />
<glyph unicode="W" horiz-adv-x="1035" d="M237 0l-162 588l-70 29v83l297 5v-88l-73 -30l86 -362l140 472l135 8l134 -479l96 361l-75 30v83l285 5v-88l-72 -30l-171 -587h-142l-131 475q-24 -98 -78.5 -276.5t-60.5 -198.5h-138z" />
<glyph unicode="X" horiz-adv-x="740" d="M307 87v-87h-297v87l62 21l202 246l-186 244l-58 19v83l300 5v-88l-50 -17l103 -139l98 135l-54 21v83l288 5v-88l-66 -20l-184 -235l195 -255l70 -20v-87h-310v87l46 16l-110 150l-112 -146z" />
<glyph unicode="Y" horiz-adv-x="667" d="M485 87v-87h-305v87l75 25v132l-183 346l-65 27v83l283 5v-88l-51 -21l100 -217l106 216l-55 22v83l270 5v-88l-69 -27l-181 -345v-133z" />
<glyph unicode="Z" horiz-adv-x="615" d="M582 0h-552v102l355 485h-210l-25 -90h-95v208h530v-113l-348 -475h228l22 103h95v-220z" />
<glyph unicode="[" horiz-adv-x="352" d="M317 -123v-102l-250 -5v1000l250 -5v-103l-119 -11v-763z" />
<glyph unicode="\" horiz-adv-x="506" d="M160 705l333 -705h-152l-334 705h153z" />
<glyph unicode="]" horiz-adv-x="352" d="M32 -225v103l120 11v762l-120 11v103l250 5v-1000z" />
<glyph unicode="^" horiz-adv-x="595" d="M295 565l-120 -245h-125l192 385h110l193 -385h-129z" />
<glyph unicode="_" horiz-adv-x="500" d="M0 -180v100h500v-100h-500z" />
<glyph unicode="`" horiz-adv-x="418" d="M299 627l-227 112l58 109l216 -141z" />
<glyph unicode="a" d="M570 7l-198 -7l-18 65q-9 -8 -24 -20.5t-57.5 -33.5t-80.5 -21q-73 0 -114 41t-41 116q0 165 240 165h70v55q0 75 -77 75q-23 0 -45 -4t-33 -8l-10 -3l-15 -65h-90l-7 148q121 40 217 40q114 0 161 -44.5t47 -153.5v-247l75 -18v-80zM181 162q0 -60 59 -60 q24 0 50.5 14.5t41.5 29.5l15 14v67h-57q-58 0 -83.5 -15.5t-25.5 -49.5z" />
<glyph unicode="b" horiz-adv-x="595" d="M-10 767l222 8v-278q69 53 143 53q100 0 152.5 -69t52.5 -196q0 -143 -74 -220t-216 -77q-49 0 -100 5.5t-78 10.5l-27 6v657l-75 20v80zM212 387v-274q23 -8 74 -8q119 0 119 170q0 157 -98 157q-27 0 -50.5 -11t-34.5 -23z" />
<glyph unicode="c" horiz-adv-x="515" d="M455 160l50 -85q-97 -85 -215 -85q-123 0 -191.5 72t-68.5 200q0 134 72.5 211t202.5 77q38 0 82 -8.5t69 -17.5l24 -9l-5 -163h-90l-14 72q-29 8 -69 8q-56 0 -86.5 -37.5t-30.5 -112.5q0 -85 31.5 -130t93.5 -45q20 0 38 3.5t35 10.5t26.5 12t26 15t19.5 12z" />
<glyph unicode="d" horiz-adv-x="625" d="M607 7l-210 -7l-9 53q-63 -63 -151 -63q-103 0 -154 70t-51 197q0 142 71.5 217.5t211.5 75.5q33 0 65 -10v127l-80 20v80l227 8v-668l80 -20v-80zM380 164v256q-25 15 -78 15q-115 0 -115 -170q0 -158 96 -158q28 0 52.5 14.5t34.5 28.5z" />
<glyph unicode="e" horiz-adv-x="557" d="M524 240l-332 -3q4 -62 36.5 -96t83.5 -34q37 0 79 11.5t65 23.5l24 12l43 -80q-11 -9 -31 -23t-80 -37.5t-117 -23.5q-127 0 -193.5 70.5t-66.5 199.5q0 133 71 211.5t196 78.5q110 0 169 -63t59 -172zM292 433q-41 0 -66.5 -28t-31.5 -75h180q0 103 -82 103z" />
<glyph unicode="f" horiz-adv-x="465" d="M142 530v45q0 98 55 155t158 57q48 0 91.5 -9.5t63.5 -18.5l20 -9l-3 -148h-87l-15 74q-25 4 -58 4q-77 0 -77 -88v-62h130l-3 -100h-127v-325l96 -25v-80h-324v80l80 25v325h-90v85z" />
<glyph unicode="g" horiz-adv-x="615" d="M42 -110q0 38 26 68t52 41l27 11q-7 1 -17 4t-26.5 20t-16.5 42q0 31 52 113q-77 51 -77 156q0 99 66.5 152t173.5 53q67 0 118 -24l172 4v-80l-82 -14q0 -1 5 -13.5t8.5 -29.5t3.5 -36q0 -104 -65 -154.5t-175 -50.5q-12 0 -23.5 1t-19 2.5t-8.5 1.5l-4 -67h148 q96 0 148 -40t52 -115q0 -86 -70.5 -138t-209.5 -52q-126 0 -192 33t-66 112zM297 447q-85 0 -85 -95q0 -100 80 -100q46 0 65.5 24t19.5 76q0 95 -80 95zM340 -20h-105q-5 -2 -13 -7t-21.5 -22t-13.5 -36q0 -36 29.5 -48t95.5 -12q68 0 98 16t30 52q0 32 -23.5 44.5 t-76.5 12.5z" />
<glyph unicode="h" horiz-adv-x="667" d="M25 767l227 8v-293q82 68 168 68q75 0 115 -47.5t40 -132.5v-265l70 -25v-80h-270v80l52 24v243q0 80 -66 80q-25 0 -52 -13.5t-42 -26.5l-15 -13v-269l53 -25v-80h-280v80l80 25v562l-80 20v80z" />
<glyph unicode="i" horiz-adv-x="358" d="M35 532l227 8v-435l70 -25v-80h-297v80l80 25v327l-80 20v80zM96 705q0 41 25.5 65.5t60.5 24.5q84 0 84 -90q0 -42 -25.5 -66.5t-58.5 -24.5q-41 0 -63.5 23.5t-22.5 67.5z" />
<glyph unicode="j" horiz-adv-x="319" d="M29 -245l-76 7l12 93h52q44 0 63 24.5t19 74.5v478l-80 20v80l228 8v-527q0 -135 -48 -196.5t-170 -61.5zM79 705q0 40 24.5 65t61.5 25q84 0 84 -90q0 -40 -24.5 -65.5t-59.5 -25.5q-41 0 -63.5 23.5t-22.5 67.5z" />
<glyph unicode="k" horiz-adv-x="635" d="M25 767l227 8v-438h65l69 106l-44 14v80l258 5v-85l-70 -13l-93 -133l112 -207l76 -24v-80h-185l-124 245h-64v-140l55 -25v-80h-282v80l80 25v562l-80 20v80z" />
<glyph unicode="l" horiz-adv-x="358" d="M25 767l231 8v-670l95 -25v-80h-326v80l80 25v562l-80 20v80z" />
<glyph unicode="m" horiz-adv-x="982" d="M892 370v-265l68 -25v-80h-268v80l53 25v235q0 42 -13.5 62t-44.5 20q-29 0 -56.5 -13t-40.5 -26l-14 -13v-265l52 -25v-80h-252v80l52 25v235q0 43 -13 62.5t-44 19.5q-29 0 -57 -13t-42 -26l-13 -13v-265l53 -25v-80h-277v80l77 25v328l-76 19v80l206 8l7 -71 q10 9 27 22.5t63 36t85 22.5q99 0 136 -86q15 15 35 31t63 35.5t83 19.5q75 0 113 -47t38 -133z" />
<glyph unicode="n" horiz-adv-x="675" d="M35 532l207 8l7 -69q11 9 29 21.5t66.5 34t88.5 21.5q72 0 110.5 -47.5t38.5 -130.5v-265q13 -4 37 -13t33 -12v-80h-270v80l53 25v242q0 35 -18.5 57.5t-49.5 22.5q-28 0 -54.5 -14.5t-39.5 -28.5l-13 -14v-265l52 -25v-80h-277v80l77 25v327l-77 20v80z" />
<glyph unicode="o" d="M305 550q121 0 186.5 -70.5t65.5 -199.5q0 -134 -72.5 -212t-194.5 -78q-255 0 -255 275q0 134 73 209.5t197 75.5zM300 435q-57 0 -83.5 -37t-26.5 -128q0 -86 25 -125.5t80 -39.5t81 39t26 131q0 81 -24.5 120.5t-77.5 39.5z" />
<glyph unicode="p" horiz-adv-x="630" d="M100 432l-80 20v80l210 8l9 -56q8 7 21.5 18t52 29.5t74.5 18.5q102 0 155 -70.5t53 -194.5q0 -142 -68.5 -218.5t-204.5 -76.5q-35 0 -75 10v-127l95 -23v-80h-320v80l78 23v559zM247 377v-267q25 -15 78 -15q62 0 88.5 42.5t26.5 129.5q0 165 -100 165q-29 0 -52 -14 t-32 -28z" />
<glyph unicode="q" d="M527 -125l75 -25v-80h-317v80l95 25v169q-7 -6 -20.5 -15t-51 -24t-71.5 -15q-102 0 -153.5 70.5t-51.5 194.5q0 139 74 217t216 78q49 0 100 -6t78 -12l27 -6v-651zM380 152v275q-28 8 -78 8q-115 0 -115 -170q0 -79 23.5 -118.5t75.5 -39.5q28 0 51.5 11.5t32.5 22.5z " />
<glyph unicode="r" horiz-adv-x="490" d="M35 532l207 8l9 -69q8 9 22 22t50.5 35t66.5 22q24 0 46.5 -4.5t33.5 -9.5l10 -4l-8 -190h-87l-15 85q-26 0 -53 -14t-41 -28l-14 -14v-266l95 -25v-80h-322v80l80 25v327l-80 20v80z" />
<glyph unicode="s" horiz-adv-x="491" d="M133 175l8 -70q33 -10 82 -10q79 0 79 54q0 23 -27 39.5t-66 28.5t-78 28.5t-66 50.5t-27 83q0 88 59 129.5t147 41.5q40 0 86.5 -7.5t73.5 -14.5l26 -8q-2 -50 -4 -150h-88l-15 65q-26 10 -66 10q-31 0 -49 -13.5t-18 -37.5q0 -23 27.5 -39t66 -28t77.5 -27.5 t66.5 -48.5t27.5 -81q0 -85 -62.5 -132.5t-167.5 -47.5q-42 0 -88 5.5t-71 10.5l-25 6v163h92z" />
<glyph unicode="t" horiz-adv-x="437" d="M255 -10q-83 0 -114 53.5t-31 186.5v187h-93v95l93 13v138l147 27v-165h140v-108h-140v-226q0 -50 11 -70t42 -20q36 0 79 23l36 -72q-88 -62 -170 -62z" />
<glyph unicode="u" horiz-adv-x="655" d="M89 169v265l-73 18v80l221 8v-343q0 -41 13 -60.5t43 -19.5q28 0 57.5 13.5t45.5 27.5l15 14v262l-74 18v80l221 8v-435l76 -20v-78l-204 -7l-10 70q-3 -3 -9.5 -8.5t-25.5 -19.5t-39 -24.5t-48.5 -19t-54.5 -8.5q-75 0 -114.5 47t-39.5 132z" />
<glyph unicode="v" horiz-adv-x="599" d="M302 150l88 292l-58 13v80l262 5v-85l-57 -13l-161 -442h-165l-158 439l-48 16v80l262 5v-85l-56 -10z" />
<glyph unicode="w" horiz-adv-x="878" d="M509 545l109 -383l59 278l-61 15v80l256 5v-85l-53 -12l-133 -443h-153l-79 255l-18 78l-25 -109l-73 -224h-152l-136 441l-44 14v80l262 5v-85l-63 -12l66 -281l106 361z" />
<glyph unicode="x" d="M405 535l167 5v-85l-62 -13l-115 -172l113 -170l74 -20v-80h-272v80l31 11l-53 88l-108 -179h-170v80l75 20l110 165l-121 177l-54 13v80l259 5v-85l-30 -6l52 -88z" />
<glyph unicode="y" horiz-adv-x="611" d="M241 -1l-178 440l-53 16v80l267 5v-85l-56 -10l89 -280l85 277l-58 13v80l269 5v-85l-62 -13l-147 -410q-22 -59 -41.5 -99.5t-51.5 -84t-77 -66t-102 -22.5l-97 8l14 107h65q28 0 51.5 12.5t40 36t24.5 38.5t18 37z" />
<glyph unicode="z" horiz-adv-x="517" d="M62 540h420v-93l-257 -342h153l19 90h88v-195h-435v92l261 343h-144l-17 -78h-88v183z" />
<glyph unicode="{" horiz-adv-x="404" d="M253 570v-105q0 -69 -20.5 -110t-71.5 -60q92 -36 92 -142v-173q0 -60 25 -81t96 -21v-103h-67q-100 0 -141 49t-41 163v154q0 50 -21 77t-74 27v100q53 0 74 27t21 77v141q0 97 45 141t137 44h67v-103q-71 0 -96 -21t-25 -81z" />
<glyph unicode="|" horiz-adv-x="282" d="M200 -230h-118v985h118v-985z" />
<glyph unicode="}" horiz-adv-x="409" d="M160 436v134q0 60 -24.5 81t-95.5 21v103h67q93 0 137.5 -44.5t44.5 -140.5v-141q0 -50 21 -77t74 -27v-100q-53 0 -74 -27t-21 -77v-154q0 -114 -42 -163t-141 -49h-66v103q71 0 95.5 21t24.5 81v173q0 106 93 142q-93 36 -93 141z" />
<glyph unicode="~" horiz-adv-x="626" d="M105 209l-62 51q2 5 6.5 13t19.5 28t32 35.5t45 28.5t58 13q44 0 108.5 -33.5t98.5 -33.5q24 0 48 13.5t36 27.5l12 14l66 -50q-2 -5 -6.5 -13t-20 -28.5t-32.5 -36.5t-44 -29t-55 -13q-43 0 -112.5 33.5t-104.5 33.5q-24 0 -47 -13.5t-35 -27.5z" />
<glyph unicode="&#xa1;" horiz-adv-x="337" d="M252 466q0 -41 -25.5 -65.5t-60.5 -24.5q-41 0 -62.5 23.5t-21.5 66.5q0 42 25.5 66.5t61.5 24.5q83 0 83 -91zM92 -221l18 504l120 5l19 -509h-157z" />
<glyph unicode="&#xa2;" horiz-adv-x="510" d="M331 0h-108v110q-89 16 -137 80t-48 163q0 102 47.5 169t137.5 86v97h108v-91q32 -3 65.5 -11.5t51.5 -15.5l17 -7l-5 -152h-85l-14 69q-29 8 -64 8q-112 0 -112 -133q0 -157 119 -157q15 0 30 2.5t25.5 5.5t24 9t19.5 9.5t18.5 11t14.5 8.5l49 -78q-70 -62 -154 -75 v-108z" />
<glyph unicode="&#xa3;" horiz-adv-x="625" d="M60 0v87l50 18q29 10 38 31.5t9 70.5q0 10 -5 113h-92v93l85 14q-3 42 -3 83q0 98 52 152.5t161 54.5q57 0 110 -8.5t77 -17.5l25 -9v-162h-90l-20 74q-37 6 -85 6q-82 0 -82 -88v-19q0 -23 2 -63h144v-110h-136q5 -58 5 -98q0 -72 -37 -105h186l23 103h93v-220h-510z " />
<glyph unicode="&#xa4;" horiz-adv-x="624" d="M105 296q0 58 26 104l-79 80l74 80l80 -80q53 30 111 30q56 0 104 -25l77 76l74 -80l-74 -74q25 -47 25 -105q0 -61 -28 -111l78 -77l-75 -79l-79 78q-48 -28 -107 -28q-66 0 -111 27l-75 -75l-75 80l76 75q-22 47 -22 104zM227 298q0 -109 87 -109q88 0 88 109 q0 105 -88 105q-87 0 -87 -105z" />
<glyph unicode="&#xa5;" horiz-adv-x="672" d="M84 313v90h94l-102 186l-66 28v83l282 5v-88l-51 -21l101 -211l106 210l-56 22v83l270 5v-88l-70 -27l-103 -187h95v-90h-500zM182 0v87l75 20v56h-173v90h500v-90h-172v-56l75 -20v-87h-305z" />
<glyph unicode="&#xa6;" horiz-adv-x="297" d="M205 365h-118v400h118v-400zM205 -265h-118v410h118v-410z" />
<glyph unicode="&#xa7;" horiz-adv-x="534" d="M172 52l14 -88q21 -6 51 -6q36 0 56.5 18t20.5 49q0 32 -26 60t-63 52t-74 51t-63 68.5t-26 92.5q0 97 70 148q-30 48 -30 107q0 81 56.5 132t144.5 51q39 0 78 -7.5t58 -15.5l19 -8l-4 -165h-79l-17 86q-25 6 -47 6q-37 0 -57.5 -19t-20.5 -49q0 -33 26 -62t63 -53 t73.5 -51.5t62.5 -68.5t26 -92q0 -95 -70 -146q30 -47 30 -102q0 -85 -56 -136.5t-145 -51.5q-37 0 -76 7t-59 15l-20 7l2 171h82zM188 366q0 -28 19.5 -50t68.5 -54.5t65 -45.5q18 22 18 56q0 28 -19.5 50t-69 54.5t-65.5 44.5q-17 -23 -17 -55z" />
<glyph unicode="&#xa8;" horiz-adv-x="544" d="M90 712q0 35 21.5 56.5t52.5 21.5q35 0 53.5 -20.5t18.5 -57.5q0 -36 -21.5 -57t-52.5 -21q-72 0 -72 78zM308 712q0 35 22 56.5t52 21.5q72 0 72 -78q0 -36 -21.5 -57t-52.5 -21q-72 0 -72 78z" />
<glyph unicode="&#xa9;" horiz-adv-x="823" d="M37 345q0 161 106.5 267.5t267.5 106.5q162 0 268 -102t106 -262t-111 -267t-273 -107q-161 0 -262.5 101t-101.5 263zM139 350q0 -123 73 -199t194 -76q122 0 199.5 76.5t77.5 198.5q0 121 -77.5 198t-199.5 77q-121 0 -194 -76.5t-73 -198.5zM523 273l37 -57 q-77 -64 -152 -64q-85 0 -134.5 49.5t-49.5 140.5q0 97 51.5 154t143.5 57q28 0 60 -7.5t51 -15.5l18 -7l-3 -112h-69l-11 55q-25 6 -48 6q-83 0 -83 -117q0 -120 87 -120q28 0 57 12.5t45 25.5z" />
<glyph unicode="&#xaa;" horiz-adv-x="468" d="M66 135v100h373v-100h-373zM439 328l-139 -6l-14 50q-6 -6 -16 -15.5t-40.5 -25.5t-60.5 -16q-54 0 -83.5 30t-29.5 86q0 118 171 118h46v36q0 22 -13.5 34t-36.5 12q-15 0 -30.5 -2.5t-23.5 -4.5l-8 -2l-9 -43h-71l-6 109q95 29 163 29q82 0 115 -33.5t33 -109.5v-168 l53 -12v-66zM164 439q0 -16 11 -26t29 -10q16 0 33 8.5t27 16.5l9 9v47h-39q-70 0 -70 -45z" />
<glyph unicode="&#xab;" horiz-adv-x="599" d="M431 265l113 -160l-83 -56l-156 177v77l156 177l83 -55zM181 265l109 -160l-83 -56l-152 177v77l152 177l83 -55z" />
<glyph unicode="&#xac;" horiz-adv-x="642" d="M60 260v115h527v-295h-127v180h-400z" />
<glyph unicode="&#xae;" horiz-adv-x="723" d="M45 449q0 137 90.5 227t226.5 90t226 -85.5t90 -220.5q0 -136 -94.5 -226.5t-232.5 -90.5q-135 0 -220.5 85t-85.5 221zM143 455q0 -101 57.5 -162.5t156.5 -61.5q100 0 162 62t62 162t-62 161.5t-162 61.5q-99 0 -156.5 -61t-57.5 -162zM366 347v-45h-144v45l34 12v198 l-34 14v42l143 2h3q36 0 62.5 -10t42 -31t15.5 -50q0 -58 -53 -84q8 -5 17 -22l31 -59l33 -12v-45h-90l-41 91q-8 18 -14 24t-15 6h-23v-64zM333 556v-80h26q21 0 36 11t15 29q0 40 -44 40h-33z" />
<glyph unicode="&#xaf;" horiz-adv-x="350" d="M42 640v107h265v-107h-265z" />
<glyph unicode="&#xb0;" horiz-adv-x="426" d="M45 580q0 72 47 116.5t121 44.5t121 -42.5t47 -113.5q0 -76 -47 -121t-121 -45q-75 0 -121.5 43t-46.5 118zM145 584q0 -36 17.5 -56t50.5 -20t50.5 20t17.5 56q0 32 -18.5 50t-49.5 18t-49.5 -18t-18.5 -50z" />
<glyph unicode="&#xb1;" horiz-adv-x="622" d="M52 288v117h193v147h133v-147h192v-117h-192v-151h-133v151h-193zM52 -36v114h518v-114h-518z" />
<glyph unicode="&#xb2;" horiz-adv-x="404" d="M33 380q127 97 154 125q38 40 38 74q0 39 -51 39q-11 0 -21.5 -2t-16.5 -4l-5 -1l-7 -53h-85l-3 132q77 25 148 25q82 0 129.5 -29.5t47.5 -90.5q0 -57 -34 -99t-123 -111h161v-105h-332v100z" />
<glyph unicode="&#xb3;" horiz-adv-x="395" d="M352 604q0 -39 -22 -64.5t-59 -35.5q38 -7 64.5 -33.5t26.5 -63.5q0 -68 -53.5 -101.5t-136.5 -33.5q-35 0 -73.5 9.5t-60.5 18.5l-21 10l27 84q62 -27 119 -27q31 0 49.5 14.5t18.5 32.5q0 45 -73 45h-54v75h55q68 0 68 48q0 40 -55 40l-53 -6l-5 -42h-82l-3 118 q86 23 155 23q81 0 124.5 -28.5t43.5 -82.5z" />
<glyph unicode="&#xb4;" horiz-adv-x="418" d="M346 740l-227 -113l-47 80l216 141z" />
<glyph unicode="&#xb6;" horiz-adv-x="721" d="M154 -170v83l82 22v338q-80 8 -133 69.5t-53 148.5q0 93 60.5 153.5t164.5 60.5h185l206 -8v-80l-80 -20v-767h-126v767h-105v-767h-201z" />
<glyph unicode="&#xb7;" horiz-adv-x="299" d="M61 306q0 44 25 69t65 25q86 0 86 -94q0 -44 -24.5 -68.5t-64.5 -24.5q-87 0 -87 93z" />
<glyph unicode="&#xb8;" horiz-adv-x="431" d="M204 -167q23 0 36.5 10.5t13.5 27.5q0 43 -82 43v86h85v-43q40 -8 63 -31t23 -58q0 -45 -35 -73t-91 -28q-30 0 -60.5 8t-46.5 16l-15 8l31 55q40 -21 78 -21z" />
<glyph unicode="&#xb9;" horiz-adv-x="393" d="M373 369v-89h-314v89h96v209l-91 -55l-49 83l158 99h109v-336h91z" />
<glyph unicode="&#xba;" horiz-adv-x="494" d="M254 717q88 0 139 -50.5t51 -142.5t-56.5 -150.5t-145.5 -58.5q-90 0 -141 49.5t-51 145.5q0 94 57.5 150.5t146.5 56.5zM249 625q-74 0 -74 -111q0 -107 72 -107t72 113q0 105 -70 105zM58 135v100h378v-100h-378z" />
<glyph unicode="&#xbb;" horiz-adv-x="599" d="M55 105l113 160l-113 160l83 55l156 -177v-77l-156 -177zM309 105l109 160l-109 160l83 55l152 -177v-77l-152 -177z" />
<glyph unicode="&#xbc;" horiz-adv-x="1072" d="M255 0l408 705h145l-408 -705h-145zM815 430l144 -17v-243h58v-93h-58v-77h-127v77h-200l-14 84zM392 369v-89h-303v89h96v209l-91 -55l-49 83l158 99h109v-336h80zM832 297l-95 -127h95v127z" />
<glyph unicode="&#xbd;" horiz-adv-x="1073" d="M256 0l408 705h145l-408 -705h-145zM683 100q126 97 150 122q42 42 42 78q0 38 -52 38q-11 0 -21.5 -2t-15.5 -4l-6 -1l-6 -53h-85l-3 132q76 25 147 25q83 0 130.5 -29.5t47.5 -90.5q0 -57 -34 -99t-123 -111h161v-105h-332v100zM392 369v-89h-303v89h96v209l-91 -55 l-49 83l158 99h109v-336h80z" />
<glyph unicode="&#xbe;" horiz-adv-x="1054" d="M238 0l408 705h145l-408 -705h-145zM615 77l-14 84l196 269l144 -17v-243h58v-93h-58v-77h-127v77h-199zM374 596q0 -79 -81 -101q37 -6 64.5 -33t27.5 -64q0 -67 -53.5 -100.5t-136.5 -33.5q-35 0 -74 9t-60 19l-21 9l27 84q61 -26 118 -26q26 0 47.5 12.5t21.5 34.5 q0 45 -74 45h-53v74h55q67 0 67 50q0 39 -54 39q-13 0 -26.5 -2t-20.5 -4l-7 -1l-5 -41h-81l-4 117q87 23 156 23q81 0 124 -28.5t43 -81.5zM814 297l-95 -127h95v127z" />
<glyph unicode="&#xbf;" horiz-adv-x="461" d="M370 466q0 -41 -25.5 -65.5t-60.5 -24.5q-41 0 -62.5 23.5t-21.5 66.5q0 42 25 66.5t61 24.5q41 0 62.5 -23.5t21.5 -67.5zM228 291l132 6q9 -65 9 -98q0 -32 -26.5 -65.5t-57.5 -57t-57.5 -55.5t-26.5 -63q0 -66 90 -66q19 0 41 3t35 5l13 3l19 -104q-84 -24 -149 -24 q-54 0 -97 13.5t-73 49.5t-30 92q0 43 18.5 81t45 66t53 53t45 51.5t18.5 51.5z" />
<glyph unicode="&#xc0;" horiz-adv-x="762" d="M473 735l-227 112l58 109l215 -141zM465 705l215 -595l70 -23v-87h-318v87l75 23l-24 75h-222l-25 -74l78 -24v-87h-302v87l73 23l220 592zM375 529l-79 -237h154z" />
<glyph unicode="&#xc1;" horiz-adv-x="762" d="M579 847l-227 -112l-46 80l215 141zM465 705l215 -595l70 -23v-87h-318v87l75 23l-24 75h-222l-25 -74l78 -24v-87h-302v87l73 23l220 592zM375 529l-79 -237h154z" />
<glyph unicode="&#xc2;" horiz-adv-x="762" d="M385 840l-157 -98l-48 66l153 131l89 8l162 -139l-48 -66zM465 705l215 -595l70 -23v-87h-318v87l75 23l-24 75h-222l-25 -74l78 -24v-87h-302v87l73 23l220 592zM375 529l-79 -237h154z" />
<glyph unicode="&#xc3;" horiz-adv-x="762" d="M465 705l215 -595l70 -23v-87h-318v87l75 23l-24 75h-222l-25 -74l78 -24v-87h-302v87l73 23l220 592zM375 529l-79 -237h154zM252 795l-47 46q2 4 5 11.5t15 26.5t25 33.5t35 26.5t45 12q36 0 86.5 -23t79.5 -23q17 0 34.5 10.5t26.5 21.5l8 10l53 -46q-2 -4 -5.5 -11.5 t-15 -26.5t-25 -33t-35 -26t-44.5 -12q-36 0 -87.5 22t-80.5 22q-19 0 -37 -10.5t-27 -20.5z" />
<glyph unicode="&#xc4;" horiz-adv-x="762" d="M465 705l215 -595l70 -23v-87h-318v87l75 23l-24 75h-222l-25 -74l78 -24v-87h-302v87l73 23l220 592zM375 529l-79 -237h154zM226 847q0 35 21.5 56.5t52.5 21.5q35 0 53.5 -20.5t18.5 -57.5q0 -36 -21.5 -57t-52.5 -21q-72 0 -72 78zM444 847q0 35 22 56.5t52 21.5 q72 0 72 -78q0 -36 -21.5 -57t-52.5 -21q-72 0 -72 78z" />
<glyph unicode="&#xc5;" horiz-adv-x="762" d="M465 705l215 -595l70 -23v-87h-318v87l75 23l-24 75h-222l-25 -74l78 -24v-87h-302v87l73 23l220 592zM375 529l-79 -237h154zM249 804q0 60 40.5 96.5t93.5 36.5t93 -34t40 -93t-40.5 -96t-92.5 -37q-54 0 -94 34t-40 93zM334 807q0 -57 49 -57q21 0 34.5 15t13.5 43 q0 57 -48 57q-22 0 -35.5 -15t-13.5 -43z" />
<glyph unicode="&#xc6;" horiz-adv-x="984" d="M644 587v-167h202v-110h-202v-193h177l23 85h92v-202h-521v87l74 25v80h-193l-40 -84l62 -21v-87h-298v87l82 25l231 477l-85 28v83l191 5h485v-195h-93l-25 77h-162zM489 300v287h-14l-132 -287h146z" />
<glyph unicode="&#xc7;" horiz-adv-x="652" d="M567 187l55 -90q-3 -3 -9.5 -9t-27.5 -22t-43.5 -29t-57.5 -26t-71 -19v-36q85 -17 85 -90q0 -44 -36 -72t-90 -28q-30 0 -61.5 8.5t-47.5 17.5l-16 8l32 56q42 -23 82 -23q21 0 33.5 10t12.5 27q0 43 -82 43v77q-137 9 -211 99t-74 253q0 175 91 275t246 100 q54 0 112 -11.5t89 -23.5l32 -12l-5 -190h-98l-23 96q-47 16 -112 16q-165 0 -165 -245q0 -230 170 -230q44 0 91.5 17.5t73.5 35.5z" />
<glyph unicode="&#xc8;" horiz-adv-x="625" d="M285 587v-167h202v-110h-202v-193h177l23 83h92v-200h-522v87l75 25v475l-75 30v83l230 5h280v-193h-93l-25 75h-162zM386 735l-227 112l58 109l216 -141z" />
<glyph unicode="&#xc9;" horiz-adv-x="627" d="M285 587v-167h202v-110h-202v-193h177l23 83h92v-200h-522v87l75 25v475l-75 30v83l230 5h280v-193h-93l-25 75h-162zM490 848l-227 -113l-47 80l216 141z" />
<glyph unicode="&#xca;" horiz-adv-x="627" d="M285 587v-167h202v-110h-202v-193h177l23 83h92v-200h-522v87l75 25v475l-75 30v83l230 5h280v-193h-93l-25 75h-162zM342 840l-157 -98l-48 66l153 131l89 8l162 -139l-48 -66z" />
<glyph unicode="&#xcb;" horiz-adv-x="627" d="M285 587v-167h202v-110h-202v-193h177l23 83h92v-200h-522v87l75 25v475l-75 30v83l230 5h280v-193h-93l-25 75h-162zM145 848q0 35 21.5 56.5t52.5 21.5q35 0 53.5 -20.5t18.5 -57.5q0 -36 -21.5 -57t-52.5 -21q-72 0 -72 78zM363 848q0 35 22 56.5t52 21.5q72 0 72 -78 q0 -36 -21.5 -57t-52.5 -21q-72 0 -72 78z" />
<glyph unicode="&#xcc;" horiz-adv-x="370" d="M330 87v-87h-305v87l75 25v475l-75 30v83l305 5v-88l-75 -30v-475zM236 735l-227 112l58 109l216 -141z" />
<glyph unicode="&#xcd;" horiz-adv-x="400" d="M345 87v-87h-305v87l75 25v475l-75 30v83l305 5v-88l-75 -30v-475zM365 848l-227 -113l-47 80l216 141z" />
<glyph unicode="&#xce;" horiz-adv-x="449" d="M378 87v-87h-305v87l75 25v475l-75 30v83l305 5v-88l-75 -30v-475zM225 840l-157 -98l-48 66l153 131l89 8l162 -139l-48 -66z" />
<glyph unicode="&#xcf;" horiz-adv-x="404" d="M26 847q0 35 21.5 56.5t52.5 21.5q35 0 53.5 -20.5t18.5 -57.5q0 -36 -21.5 -57t-52.5 -21q-72 0 -72 78zM234 847q0 35 22 56.5t52 21.5q72 0 72 -78q0 -36 -21.5 -57t-52.5 -21q-72 0 -72 78zM354 87v-87h-305v87l75 25v475l-75 30v83l305 5v-88l-75 -30v-475z" />
<glyph unicode="&#xd0;" horiz-adv-x="761" d="M57 312v110h83v165l-90 30v83l245 5h99q151 0 234 -88t83 -255q0 -168 -90 -265t-242 -97h-329v87l90 25v200h-83zM294 587v-165h121v-110h-121v-195h87q78 0 120.5 55.5t42.5 184.5q0 122 -39.5 176t-115.5 54h-95z" />
<glyph unicode="&#xd1;" horiz-adv-x="785" d="M235 772l-48 39q2 4 5 11.5t15 26.5t25 33.5t35 26.5t45 12q36 0 90.5 -23t83.5 -23q17 0 34.5 10.5t25.5 20.5l9 11l55 -42q-2 -4 -6 -11t-17.5 -25t-28 -32t-37.5 -25t-46 -11q-36 0 -87.5 19.5t-80.5 19.5q-19 0 -37 -9.5t-26 -18.5zM325 87v-87h-290v87l75 25v475 l-75 30v83l240 5l270 -462v344l-73 30v83l285 5v-88l-75 -30v-587h-167l-268 453v-341z" />
<glyph unicode="&#xd2;" horiz-adv-x="755" d="M385 717q150 0 232.5 -93.5t82.5 -261.5q0 -169 -92.5 -272t-242.5 -103t-230 92t-80 268q0 172 88.5 271t241.5 99zM380 592q-78 0 -118 -55.5t-40 -184.5q0 -123 36.5 -181.5t111.5 -58.5q79 0 120.5 57.5t41.5 187.5q0 122 -38 178.5t-114 56.5zM436 735l-227 112 l58 109l216 -141z" />
<glyph unicode="&#xd3;" horiz-adv-x="755" d="M385 717q150 0 232.5 -93.5t82.5 -261.5q0 -169 -92.5 -272t-242.5 -103t-230 92t-80 268q0 172 88.5 271t241.5 99zM380 592q-78 0 -118 -55.5t-40 -184.5q0 -123 36.5 -181.5t111.5 -58.5q79 0 120.5 57.5t41.5 187.5q0 122 -38 178.5t-114 56.5zM531 848l-227 -113 l-47 80l216 141z" />
<glyph unicode="&#xd4;" horiz-adv-x="755" d="M385 717q150 0 232.5 -93.5t82.5 -261.5q0 -169 -92.5 -272t-242.5 -103t-230 92t-80 268q0 172 88.5 271t241.5 99zM380 592q-78 0 -118 -55.5t-40 -184.5q0 -123 36.5 -181.5t111.5 -58.5q79 0 120.5 57.5t41.5 187.5q0 122 -38 178.5t-114 56.5zM385 840l-157 -98 l-48 66l153 131l89 8l162 -139l-48 -66z" />
<glyph unicode="&#xd5;" horiz-adv-x="755" d="M215 777l-48 39q2 4 5 11.5t15 26.5t25 33.5t35 26.5t45 12q36 0 90.5 -23t83.5 -23q17 0 34.5 10.5t25.5 21.5l9 10l55 -42q-2 -4 -6 -11t-17.5 -25t-28 -32t-37.5 -25t-46 -11q-36 0 -87.5 19.5t-80.5 19.5q-19 0 -37 -9.5t-26 -19.5zM385 717q150 0 232.5 -93.5 t82.5 -261.5q0 -169 -92.5 -272t-242.5 -103t-230 92t-80 268q0 172 88.5 271t241.5 99zM380 592q-78 0 -118 -55.5t-40 -184.5q0 -123 36.5 -181.5t111.5 -58.5q79 0 120.5 57.5t41.5 187.5q0 122 -38 178.5t-114 56.5z" />
<glyph unicode="&#xd6;" horiz-adv-x="755" d="M385 717q150 0 232.5 -93.5t82.5 -261.5q0 -169 -92.5 -272t-242.5 -103t-230 92t-80 268q0 172 88.5 271t241.5 99zM380 592q-78 0 -118 -55.5t-40 -184.5q0 -123 36.5 -181.5t111.5 -58.5q79 0 120.5 57.5t41.5 187.5q0 122 -38 178.5t-114 56.5zM194 847 q0 35 21.5 56.5t52.5 21.5q35 0 53.5 -20.5t18.5 -57.5q0 -36 -21.5 -57t-52.5 -21q-72 0 -72 78zM412 847q0 35 22 56.5t52 21.5q72 0 72 -78q0 -36 -21.5 -57t-52.5 -21q-72 0 -72 78z" />
<glyph unicode="&#xd7;" horiz-adv-x="613" d="M53 439l84 85l169 -170l170 170l84 -85l-169 -169l169 -169l-84 -85l-170 170l-169 -170l-84 85l169 169z" />
<glyph unicode="&#xd8;" horiz-adv-x="770" d="M163 -110l-89 51l78 128q-90 92 -90 278q0 172 89 271t241 99q78 0 139 -27l62 103l89 -51l-67 -109q92 -94 92 -271q0 -168 -92.5 -271t-242.5 -103q-76 0 -135 24zM387 592q-77 0 -117 -54t-40 -175q0 -86 21 -132q27 45 209 344q-32 17 -73 17zM540 357q0 70 -22 116 l-210 -344q29 -17 69 -17q163 0 163 245z" />
<glyph unicode="&#xd9;" horiz-adv-x="782" d="M262 587v-317q0 -87 29 -123.5t101 -36.5q76 0 102 40.5t26 134.5v302l-78 30v83l308 5v-88l-75 -30v-302q0 -150 -66 -223.5t-222 -73.5q-148 0 -214 68t-66 214v317l-75 30v83l308 5v-88zM446 735l-227 112l58 109l216 -141z" />
<glyph unicode="&#xda;" horiz-adv-x="782" d="M262 587v-317q0 -87 29 -123.5t101 -36.5q76 0 102 40.5t26 134.5v302l-78 30v83l308 5v-88l-75 -30v-302q0 -150 -66 -223.5t-222 -73.5q-148 0 -214 68t-66 214v317l-75 30v83l308 5v-88zM586 848l-227 -113l-47 80l216 141z" />
<glyph unicode="&#xdb;" horiz-adv-x="782" d="M262 587v-317q0 -87 29 -123.5t101 -36.5q76 0 102 40.5t26 134.5v302l-78 30v83l308 5v-88l-75 -30v-302q0 -150 -66 -223.5t-222 -73.5q-148 0 -214 68t-66 214v317l-75 30v83l308 5v-88zM391 840l-157 -98l-48 66l153 131l89 8l162 -139l-48 -66z" />
<glyph unicode="&#xdc;" horiz-adv-x="782" d="M262 587v-317q0 -87 29 -123.5t101 -36.5q76 0 102 40.5t26 134.5v302l-78 30v83l308 5v-88l-75 -30v-302q0 -150 -66 -223.5t-222 -73.5q-148 0 -214 68t-66 214v317l-75 30v83l308 5v-88zM209 847q0 35 21.5 56.5t52.5 21.5q35 0 53.5 -20.5t18.5 -57.5 q0 -36 -21.5 -57t-52.5 -21q-72 0 -72 78zM427 847q0 35 22 56.5t52 21.5q72 0 72 -78q0 -36 -21.5 -57t-52.5 -21q-72 0 -72 78z" />
<glyph unicode="&#xdd;" horiz-adv-x="667" d="M485 87v-87h-305v87l75 25v132l-183 346l-65 27v83l283 5v-88l-51 -21l100 -217l106 216l-55 22v83l270 5v-88l-69 -27l-181 -345v-133zM526 848l-227 -113l-47 80l216 141z" />
<glyph unicode="&#xde;" horiz-adv-x="644" d="M365 87v-87h-335v87l90 25v475l-90 30v83l335 5v-88l-90 -30v-32h99q114 0 177 -48t63 -137q0 -108 -75.5 -159t-209.5 -51h-54v-48zM356 445h-81v-178h64q58 0 90 23.5t32 69.5q0 41 -28.5 63t-76.5 22z" />
<glyph unicode="&#xdf;" horiz-adv-x="787" d="M152 522v48q0 98 66.5 157.5t176.5 59.5q120 0 186 -45.5t66 -123.5q0 -40 -17.5 -72.5t-39 -50t-39 -40.5t-17.5 -45q0 -25 24 -43.5t58 -32.5t67.5 -31t57.5 -50.5t24 -80.5q0 -82 -61 -132t-158 -50q-36 0 -78.5 5.5t-67.5 10.5l-25 6v161h90l10 -67q27 -11 66 -11 q72 0 72 54q0 24 -24 41.5t-57.5 31.5t-67.5 32t-58 53t-24 84q0 39 18.5 69.5t40.5 46.5t40.5 39.5t18.5 50.5q0 38 -31 59t-72 21q-46 0 -71.5 -26.5t-25.5 -73.5v-577h-228v80l80 25v315h-100v87z" />
<glyph unicode="&#xe0;" d="M570 7l-198 -7l-18 65q-9 -8 -24 -20.5t-57.5 -33.5t-80.5 -21q-73 0 -114 41t-41 116q0 165 240 165h70v55q0 75 -77 75q-23 0 -45 -4t-33 -8l-10 -3l-15 -65h-90l-7 148q121 40 217 40q114 0 161 -44.5t47 -153.5v-247l75 -18v-80zM181 162q0 -60 59 -60 q24 0 50.5 14.5t41.5 29.5l15 14v67h-57q-58 0 -83.5 -15.5t-25.5 -49.5zM353 598l-242 147l68 104l223 -178z" />
<glyph unicode="&#xe1;" d="M570 7l-198 -7l-18 65q-9 -8 -24 -20.5t-57.5 -33.5t-80.5 -21q-73 0 -114 41t-41 116q0 165 240 165h70v55q0 75 -77 75q-23 0 -45 -4t-33 -8l-10 -3l-15 -65h-90l-7 148q121 40 217 40q114 0 161 -44.5t47 -153.5v-247l75 -18v-80zM181 162q0 -60 59 -60 q24 0 50.5 14.5t41.5 29.5l15 14v67h-57q-58 0 -83.5 -15.5t-25.5 -49.5zM437 745l-242 -147l-49 73l223 178z" />
<glyph unicode="&#xe2;" d="M570 7l-198 -7l-18 65q-9 -8 -24 -20.5t-57.5 -33.5t-80.5 -21q-73 0 -114 41t-41 116q0 165 240 165h70v55q0 75 -77 75q-23 0 -45 -4t-33 -8l-10 -3l-15 -65h-90l-7 148q121 40 217 40q114 0 161 -44.5t47 -153.5v-247l75 -18v-80zM181 162q0 -60 59 -60 q24 0 50.5 14.5t41.5 29.5l15 14v67h-57q-58 0 -83.5 -15.5t-25.5 -49.5zM287 724l-168 -120l-48 66l164 153l89 8l175 -161l-48 -66z" />
<glyph unicode="&#xe3;" d="M570 7l-198 -7l-18 65q-9 -8 -24 -20.5t-57.5 -33.5t-80.5 -21q-73 0 -114 41t-41 116q0 165 240 165h70v55q0 75 -77 75q-23 0 -45 -4t-33 -8l-10 -3l-15 -65h-90l-7 148q121 40 217 40q114 0 161 -44.5t47 -153.5v-247l75 -18v-80zM181 162q0 -60 59 -60 q24 0 50.5 14.5t41.5 29.5l15 14v67h-57q-58 0 -83.5 -15.5t-25.5 -49.5zM116 630l-47 46q2 4 5 11.5t15 26.5t25 33.5t35 26.5t45 12q36 0 86.5 -23t79.5 -23q17 0 34.5 10.5t25.5 21.5l9 10l53 -46q-2 -4 -5.5 -11.5t-15 -26.5t-25 -33t-35 -26t-44.5 -12q-36 0 -87.5 22 t-80.5 22q-19 0 -37 -10.5t-27 -20.5z" />
<glyph unicode="&#xe4;" d="M570 7l-198 -7l-18 65q-9 -8 -24 -20.5t-57.5 -33.5t-80.5 -21q-73 0 -114 41t-41 116q0 165 240 165h70v55q0 75 -77 75q-23 0 -45 -4t-33 -8l-10 -3l-15 -65h-90l-7 148q121 40 217 40q114 0 161 -44.5t47 -153.5v-247l75 -18v-80zM181 162q0 -60 59 -60 q24 0 50.5 14.5t41.5 29.5l15 14v67h-57q-58 0 -83.5 -15.5t-25.5 -49.5zM104 698q0 35 21.5 56.5t52.5 21.5q35 0 53.5 -20.5t18.5 -57.5q0 -36 -21.5 -57t-52.5 -21q-72 0 -72 78zM322 698q0 35 22 56.5t52 21.5q72 0 72 -78q0 -36 -21.5 -57t-52.5 -21q-72 0 -72 78z" />
<glyph unicode="&#xe5;" d="M570 7l-198 -7l-18 65q-9 -8 -24 -20.5t-57.5 -33.5t-80.5 -21q-73 0 -114 41t-41 116q0 165 240 165h70v55q0 75 -77 75q-23 0 -45 -4t-33 -8l-10 -3l-15 -65h-90l-7 148q121 40 217 40q114 0 161 -44.5t47 -153.5v-247l75 -18v-80zM181 162q0 -60 59 -60 q24 0 50.5 14.5t41.5 29.5l15 14v67h-57q-58 0 -83.5 -15.5t-25.5 -49.5zM162 704q0 60 40.5 96.5t93.5 36.5t93 -34t40 -93t-40.5 -96t-92.5 -37q-54 0 -94 34t-40 93zM247 707q0 -57 49 -57q21 0 34.5 15t13.5 43q0 57 -48 57q-22 0 -35.5 -15t-13.5 -43z" />
<glyph unicode="&#xe6;" horiz-adv-x="863" d="M827 238l-331 -3q4 -61 36.5 -94.5t84.5 -33.5q37 0 78.5 11.5t64.5 23.5l23 12l44 -80q-12 -9 -33 -23t-81.5 -37.5t-115.5 -23.5q-146 0 -208 100q-85 -100 -197 -100q-71 0 -113 42t-42 115q0 165 240 165h70v55q0 75 -77 75q-22 0 -44 -4t-33 -8l-11 -3l-15 -65h-90 l-7 148q0 2 33 11t86.5 18.5t95.5 9.5q112 0 156 -58q67 59 166 59q108 0 167 -62t59 -172zM180 162q0 -28 16 -44t44 -16q23 0 50 15t42 30l15 15v65h-57q-58 0 -84 -15.5t-26 -49.5zM597 433q-42 0 -68.5 -28.5t-32.5 -79.5h183q0 108 -82 108z" />
<glyph unicode="&#xe7;" horiz-adv-x="515" d="M455 160l50 -85q-79 -68 -171 -81v-34q39 -8 62.5 -31.5t23.5 -58.5q0 -43 -36 -71t-89 -28q-30 0 -61 8t-47 16l-16 8l31 55q42 -21 82 -21q22 0 34.5 10t12.5 27q0 21 -22.5 32.5t-60.5 11.5v75q-104 11 -161 81.5t-57 187.5q0 134 72.5 211t202.5 77q38 0 82 -8.5 t69 -17.5l24 -9l-5 -163h-90l-14 72q-29 8 -69 8q-56 0 -86.5 -37.5t-30.5 -112.5q0 -85 31.5 -130t93.5 -45q20 0 38 3.5t35 10.5t26.5 12t26 15t19.5 12z" />
<glyph unicode="&#xe8;" horiz-adv-x="557" d="M524 240l-332 -3q4 -62 36.5 -96t83.5 -34q37 0 79 11.5t65 23.5l24 12l43 -80q-11 -9 -31 -23t-80 -37.5t-117 -23.5q-127 0 -193.5 70.5t-66.5 199.5q0 133 71 211.5t196 78.5q110 0 169 -63t59 -172zM292 433q-41 0 -66.5 -28t-31.5 -75h180q0 103 -82 103zM368 598 l-242 147l68 104l223 -178z" />
<glyph unicode="&#xe9;" horiz-adv-x="557" d="M524 240l-332 -3q4 -62 36.5 -96t83.5 -34q37 0 79 11.5t65 23.5l24 12l43 -80q-11 -9 -31 -23t-80 -37.5t-117 -23.5q-127 0 -193.5 70.5t-66.5 199.5q0 133 71 211.5t196 78.5q110 0 169 -63t59 -172zM292 433q-41 0 -66.5 -28t-31.5 -75h180q0 103 -82 103zM459 745 l-242 -147l-49 73l223 178z" />
<glyph unicode="&#xea;" horiz-adv-x="557" d="M524 240l-332 -3q4 -62 36.5 -96t83.5 -34q37 0 79 11.5t65 23.5l24 12l43 -80q-11 -9 -31 -23t-80 -37.5t-117 -23.5q-127 0 -193.5 70.5t-66.5 199.5q0 133 71 211.5t196 78.5q110 0 169 -63t59 -172zM292 433q-41 0 -66.5 -28t-31.5 -75h180q0 103 -82 103zM290 724 l-168 -120l-48 66l164 153l89 8l175 -161l-48 -66z" />
<glyph unicode="&#xeb;" horiz-adv-x="557" d="M524 240l-332 -3q4 -62 36.5 -96t83.5 -34q37 0 79 11.5t65 23.5l24 12l43 -80q-11 -9 -31 -23t-80 -37.5t-117 -23.5q-127 0 -193.5 70.5t-66.5 199.5q0 133 71 211.5t196 78.5q110 0 169 -63t59 -172zM292 433q-41 0 -66.5 -28t-31.5 -75h180q0 103 -82 103zM104 698 q0 35 21.5 56.5t52.5 21.5q35 0 53.5 -20.5t18.5 -57.5q0 -36 -21.5 -57t-52.5 -21q-72 0 -72 78zM322 698q0 35 22 56.5t52 21.5q72 0 72 -78q0 -36 -21.5 -57t-52.5 -21q-72 0 -72 78z" />
<glyph unicode="&#xec;" horiz-adv-x="369" d="M46 532l227 8v-435l70 -25v-80h-297v80l80 25v327l-80 20v80zM267 598l-242 147l68 104l223 -178z" />
<glyph unicode="&#xed;" horiz-adv-x="358" d="M35 532l227 8v-435l70 -25v-80h-297v80l80 25v327l-80 20v80zM345 745l-242 -147l-49 73l223 178z" />
<glyph unicode="&#xee;" horiz-adv-x="358" d="M180 724l-159 -120l-49 66l156 153l89 8l166 -161l-49 -66zM35 532l227 8v-435l70 -25v-80h-297v80l80 25v327l-80 20v80z" />
<glyph unicode="&#xef;" horiz-adv-x="358" d="M-1 698q0 35 21.5 56.5t52.5 21.5q35 0 53.5 -20.5t18.5 -57.5q0 -36 -21.5 -57t-52.5 -21q-72 0 -72 78zM207 698q0 35 22 56.5t52 21.5q72 0 72 -78q0 -36 -21.5 -57t-52.5 -21q-72 0 -72 78zM35 532l227 8v-435l70 -25v-80h-297v80l80 25v327l-80 20v80z" />
<glyph unicode="&#xf0;" horiz-adv-x="595" d="M115 702l46 87q78 -19 147 -61l105 61l58 -79l-81 -46q145 -143 145 -392q0 -129 -70 -206.5t-188 -77.5q-115 0 -180 64t-65 188q0 123 70.5 194t184.5 71q39 0 78 -22q-27 72 -78 120l-117 -67l-58 79l88 50q-41 22 -85 37zM287 390q-100 0 -100 -145q0 -143 95 -143 q53 0 75.5 37.5t22.5 110.5q0 70 -20.5 105t-72.5 35z" />
<glyph unicode="&#xf1;" horiz-adv-x="677" d="M30 532l215 8l6 -69q28 26 77.5 51.5t106.5 25.5q72 0 111 -47.5t39 -130.5v-263l72 -27v-80h-272v80l52 27v240q0 36 -17.5 58t-49.5 22q-28 0 -55 -14.5t-40 -28.5l-13 -14v-263l53 -27v-80h-285v80l85 27v325l-85 20v80zM180 631l-47 46q2 4 5 11.5t14.5 26.5t25 33 t35 26t45.5 12q36 0 85.5 -22.5t78.5 -22.5q17 0 34.5 10.5t27.5 20.5l9 11l53 -46q-2 -4 -5.5 -11.5t-15 -26.5t-25 -33.5t-35.5 -26.5t-45 -12q-36 0 -87 22.5t-80 22.5q-19 0 -37.5 -10t-27.5 -20z" />
<glyph unicode="&#xf2;" d="M305 550q121 0 186.5 -70.5t65.5 -199.5q0 -134 -72.5 -212t-194.5 -78q-255 0 -255 275q0 134 73 209.5t197 75.5zM300 435q-57 0 -83.5 -37t-26.5 -128q0 -86 25 -125.5t80 -39.5t81 39t26 131q0 81 -24.5 120.5t-77.5 39.5zM383 598l-242 147l68 104l223 -178z" />
<glyph unicode="&#xf3;" d="M305 550q121 0 186.5 -70.5t65.5 -199.5q0 -134 -72.5 -212t-194.5 -78q-255 0 -255 275q0 134 73 209.5t197 75.5zM300 435q-57 0 -83.5 -37t-26.5 -128q0 -86 25 -125.5t80 -39.5t81 39t26 131q0 81 -24.5 120.5t-77.5 39.5zM454 745l-242 -147l-49 73l223 178z" />
<glyph unicode="&#xf4;" d="M305 550q121 0 186.5 -70.5t65.5 -199.5q0 -134 -72.5 -212t-194.5 -78q-255 0 -255 275q0 134 73 209.5t197 75.5zM300 435q-57 0 -83.5 -37t-26.5 -128q0 -86 25 -125.5t80 -39.5t81 39t26 131q0 81 -24.5 120.5t-77.5 39.5zM301 724l-168 -120l-48 66l164 153l89 8 l175 -161l-48 -66z" />
<glyph unicode="&#xf5;" d="M305 550q121 0 186.5 -70.5t65.5 -199.5q0 -134 -72.5 -212t-194.5 -78q-255 0 -255 275q0 134 73 209.5t197 75.5zM300 435q-57 0 -83.5 -37t-26.5 -128q0 -86 25 -125.5t80 -39.5t81 39t26 131q0 81 -24.5 120.5t-77.5 39.5zM136 630l-47 46q2 4 5 11.5t15 26.5 t25 33.5t35 26.5t45 12q36 0 86.5 -23t79.5 -23q17 0 34.5 10.5t26.5 21.5l8 10l53 -46q-2 -4 -5.5 -11.5t-15 -26.5t-25 -33t-35 -26t-44.5 -12q-36 0 -87.5 22t-80.5 22q-19 0 -37 -10.5t-27 -20.5z" />
<glyph unicode="&#xf6;" d="M305 550q121 0 186.5 -70.5t65.5 -199.5q0 -134 -72.5 -212t-194.5 -78q-255 0 -255 275q0 134 73 209.5t197 75.5zM300 435q-57 0 -83.5 -37t-26.5 -128q0 -86 25 -125.5t80 -39.5t81 39t26 131q0 81 -24.5 120.5t-77.5 39.5zM114 698q0 35 21.5 56.5t52.5 21.5 q35 0 53.5 -20.5t18.5 -57.5q0 -36 -21.5 -57t-52.5 -21q-72 0 -72 78zM332 698q0 35 22 56.5t52 21.5q72 0 72 -78q0 -36 -21.5 -57t-52.5 -21q-72 0 -72 78z" />
<glyph unicode="&#xf7;" horiz-adv-x="630" d="M228 51q0 44 25 68t64 24q85 0 85 -92q0 -44 -24.5 -68.5t-63.5 -24.5q-86 0 -86 93zM228 481q0 44 25 68t64 24q85 0 85 -92q0 -44 -24.5 -68.5t-63.5 -24.5q-86 0 -86 93zM52 208v115h525v-115h-525z" />
<glyph unicode="&#xf8;" horiz-adv-x="602" d="M119 -117l-75 42l72 121q-76 67 -76 219q0 134 73 209.5t197 75.5q51 0 99 -16l65 109l75 -42l-65 -109q78 -70 78 -212q0 -134 -72.5 -212t-194.5 -78q-51 0 -103 14zM407 275q0 44 -11 70l-139 -232q16 -8 43 -8q56 0 81.5 40t25.5 130zM305 435q-58 0 -84 -38 t-26 -128q0 -42 11 -73l138 231q-18 8 -39 8z" />
<glyph unicode="&#xf9;" horiz-adv-x="655" d="M89 169v265l-73 18v80l221 8v-343q0 -41 13 -60.5t43 -19.5q28 0 57.5 13.5t45.5 27.5l15 14v262l-74 18v80l221 8v-435l76 -20v-78l-204 -7l-10 70q-3 -3 -9.5 -8.5t-25.5 -19.5t-39 -24.5t-48.5 -19t-54.5 -8.5q-75 0 -114.5 47t-39.5 132zM394 598l-242 147l68 104 l223 -178z" />
<glyph unicode="&#xfa;" horiz-adv-x="655" d="M89 169v265l-73 18v80l221 8v-343q0 -41 13 -60.5t43 -19.5q28 0 57.5 13.5t45.5 27.5l15 14v262l-74 18v80l221 8v-435l76 -20v-78l-204 -7l-10 70q-3 -3 -9.5 -8.5t-25.5 -19.5t-39 -24.5t-48.5 -19t-54.5 -8.5q-75 0 -114.5 47t-39.5 132zM476 745l-242 -147l-49 73 l223 178z" />
<glyph unicode="&#xfb;" horiz-adv-x="655" d="M89 169v265l-73 18v80l221 8v-343q0 -41 13 -60.5t43 -19.5q28 0 57.5 13.5t45.5 27.5l15 14v262l-74 18v80l221 8v-435l76 -20v-78l-204 -7l-10 70q-3 -3 -9.5 -8.5t-25.5 -19.5t-39 -24.5t-48.5 -19t-54.5 -8.5q-75 0 -114.5 47t-39.5 132zM320 724l-168 -120l-48 66 l164 153l89 8l175 -161l-48 -66z" />
<glyph unicode="&#xfc;" horiz-adv-x="655" d="M89 169v265l-73 18v80l221 8v-343q0 -41 13 -60.5t43 -19.5q28 0 57.5 13.5t45.5 27.5l15 14v262l-74 18v80l221 8v-435l76 -20v-78l-204 -7l-10 70q-3 -3 -9.5 -8.5t-25.5 -19.5t-39 -24.5t-48.5 -19t-54.5 -8.5q-75 0 -114.5 47t-39.5 132zM132 698q0 35 21.5 56.5 t52.5 21.5q35 0 53.5 -20.5t18.5 -57.5q0 -36 -21.5 -57t-52.5 -21q-72 0 -72 78zM350 698q0 35 22 56.5t52 21.5q72 0 72 -78q0 -36 -21.5 -57t-52.5 -21q-72 0 -72 78z" />
<glyph unicode="&#xfd;" horiz-adv-x="611" d="M241 -1l-178 440l-53 16v80l267 5v-85l-56 -10l89 -280l85 277l-58 13v80l269 5v-85l-62 -13l-147 -410q-22 -59 -41.5 -99.5t-51.5 -84t-77 -66t-102 -22.5l-97 8l14 107h65q28 0 51.5 12.5t40 36t24.5 38.5t18 37zM521 745l-242 -147l-49 73l223 178z" />
<glyph unicode="&#xfe;" horiz-adv-x="615" d="M25 767l230 8v-283q6 6 17.5 16t48.5 26t76 16q98 0 150.5 -71t52.5 -194q0 -141 -71.5 -218t-213.5 -77q-12 0 -27 2t-24 4l-9 2v-130l105 -23v-80h-333v80l78 23v799l-80 20v80zM255 385v-267q25 -13 76 -13q114 0 114 170q0 157 -98 157q-27 0 -50 -12t-33 -24z" />
<glyph unicode="&#xff;" horiz-adv-x="611" d="M241 -1l-178 440l-53 16v80l267 5v-85l-56 -10l89 -280l85 277l-58 13v80l269 5v-85l-62 -13l-147 -410q-22 -59 -41.5 -99.5t-51.5 -84t-77 -66t-102 -22.5l-97 8l14 107h65q28 0 51.5 12.5t40 36t24.5 38.5t18 37zM123 712q0 -78 72 -78q31 0 52.5 21t21.5 57 q0 37 -18.5 57.5t-53.5 20.5q-31 0 -52.5 -21.5t-21.5 -56.5zM341 712q0 -78 72 -78q31 0 52.5 21t21.5 57q0 78 -72 78q-30 0 -52 -21.5t-22 -56.5zM114 698q0 35 21.5 56.5t52.5 21.5q35 0 53.5 -20.5t18.5 -57.5q0 -36 -21.5 -57t-52.5 -21q-72 0 -72 78zM332 698 q0 35 22 56.5t52 21.5q72 0 72 -78q0 -36 -21.5 -57t-52.5 -21q-72 0 -72 78z" />
<glyph unicode="&#x105;" horiz-adv-x="570" d="M570 7q-5 -3 -13 -7.5t-28 -18.5t-35.5 -27.5t-28.5 -31t-13 -32.5q0 -17 10.5 -26.5t27.5 -9.5l43 6l17 -70q-48 -25 -103 -25q-47 0 -78.5 25.5t-31.5 74.5q0 50 37 87t67 50l-69 -2l-18 65q-9 -8 -24 -20.5t-57.5 -33.5t-80.5 -21q-73 0 -114 41t-41 116 q0 165 240 165h70v55q0 75 -77 75q-23 0 -45 -4t-33 -8l-10 -3l-15 -65h-90l-7 148q121 40 217 40q114 0 161 -44.5t47 -153.5v-247l75 -18v-80zM181 162q0 -60 59 -60q24 0 50.5 14.5t41.5 29.5l15 14v67h-57q-58 0 -83.5 -15.5t-25.5 -49.5z" />
<glyph unicode="&#x119;" horiz-adv-x="530" d="M342 -107q0 -18 10.5 -28.5t27.5 -10.5l42 6l17 -70q-47 -25 -102 -25q-48 0 -79 25.5t-31 72.5q0 65 80 129q-18 -2 -27 -2q-127 0 -193.5 70.5t-66.5 199.5q0 133 71 211.5t196 78.5q110 0 169 -63t59 -172l-6 -75l-332 -3q4 -62 36.5 -96t83.5 -34q36 0 68 8.5 t62 22.5t38 16l43 -80q-27 -19 -58.5 -44.5t-69.5 -68t-38 -68.5zM277 433q-41 0 -66.5 -28t-31.5 -75h180q0 103 -82 103z" />
<glyph unicode="&#x128;" horiz-adv-x="375" d="M25 777l-48 39q2 4 5 11.5t15 26.5t25 33.5t35 26.5t45 12q36 0 90.5 -23t83.5 -23q17 0 34.5 10.5t25.5 21.5l9 10l55 -42q-2 -4 -6 -11t-17.5 -25t-28 -32t-37.5 -25t-46 -11q-36 0 -87.5 19.5t-80.5 19.5q-19 0 -37 -9.5t-26 -19.5zM340 87v-87h-305v87l75 25v475 l-75 30v83l305 5v-88l-75 -30v-475z" />
<glyph unicode="&#x129;" horiz-adv-x="358" d="M15 630l-47 46q2 4 5 11.5t14.5 26.5t25 33.5t34.5 26.5t43 12q34 0 81.5 -23t70.5 -23q16 0 32.5 10.5t25.5 21.5l8 10l53 -46q-2 -4 -5 -11.5t-15 -26.5t-25 -33t-34 -26t-43 -12q-31 0 -79 22t-75 22q-17 0 -34.5 -10.5t-26.5 -20.5zM35 532l227 8v-435l70 -25v-80 h-297v80l80 25v327l-80 20v80z" />
<glyph unicode="&#x131;" horiz-adv-x="358" d="M35 532l227 8v-435l70 -25v-80h-297v80l80 25v327l-80 20v80z" />
<glyph unicode="&#x140;" horiz-adv-x="657" d="M25 767l231 8v-670l95 -25v-80h-326v80l80 25v562l-80 20v80zM402 350q0 44 25 69t65 25q86 0 86 -94q0 -44 -24.5 -68.5t-64.5 -24.5q-87 0 -87 93z" />
<glyph unicode="&#x141;" horiz-adv-x="585" d="M302 587v-149l137 61l32 -107l-169 -75v-200h153l22 113h95v-230h-500v87l75 25v142l-77 -34l-32 107l109 48v212l-75 30v83l305 5v-88z" />
<glyph unicode="&#x142;" horiz-adv-x="431" d="M67 767l231 8v-307l100 44l23 -111l-123 -54v-242l95 -25v-80h-326v80l80 25v181l-91 -40l-31 106l122 54v261l-80 20v80z" />
<glyph unicode="&#x152;" horiz-adv-x="956" d="M614 310v-193h177l23 83h92v-200h-360q-23 0 -87 -5t-97 -5q-151 0 -230.5 91t-79.5 266q0 172 89 270t241 98q30 0 90.5 -5t86.5 -5h335v-193h-93l-25 75h-162v-167h202v-110h-202zM459 117v470q-28 4 -71 4q-86 0 -127 -52.5t-41 -186.5q0 -123 36.5 -181.5 t113.5 -58.5q20 0 52.5 2.5t36.5 2.5z" />
<glyph unicode="&#x153;" horiz-adv-x="930" d="M305 550q119 0 186 -86q67 86 184 86q108 0 166.5 -63t58.5 -172l-6 -75l-332 -3q4 -62 36.5 -96t83.5 -34q36 0 68 8.5t62 22.5t38 16l43 -80q-11 -9 -31 -23t-79 -37.5t-115 -23.5q-125 0 -188 87q-72 -87 -190 -87q-253 0 -253 275q0 133 73 209t195 76zM302 435 q-56 0 -83 -37t-27 -128q0 -86 25.5 -125.5t79.5 -39.5q56 0 83 39.5t27 130.5q0 160 -105 160zM662 433q-41 0 -66.5 -28t-31.5 -75h180q0 103 -82 103z" />
<glyph unicode="&#x160;" horiz-adv-x="605" d="M297 851l139 106l50 -60l-143 -147h-90l-153 147l56 60zM162 217l15 -84q40 -21 98 -21q51 0 86 21.5t35 59.5q0 27 -25 47t-62.5 31t-81.5 29.5t-81.5 40t-62.5 64t-25 100.5q0 101 70.5 156.5t183.5 55.5q50 0 105 -10t85 -20l30 -10l-5 -182h-92l-25 85q-45 15 -88 15 q-51 0 -78.5 -20t-27.5 -51q0 -27 25 -47t62.5 -31.5t81 -29.5t81 -39t62.5 -62t25 -96q0 -109 -75.5 -170.5t-194.5 -61.5q-50 0 -106 9.5t-87 19.5l-30 9v192h102z" />
<glyph unicode="&#x161;" horiz-adv-x="491" d="M133 175l8 -70q33 -10 82 -10q79 0 79 54q0 23 -27 39.5t-66 28.5t-78 28.5t-66 50.5t-27 83q0 88 59 129.5t147 41.5q40 0 86.5 -7.5t73.5 -14.5l26 -8q-2 -50 -4 -150h-88l-15 65q-26 10 -66 10q-31 0 -49 -13.5t-18 -37.5q0 -23 27.5 -39t66 -28t77.5 -27.5 t66.5 -48.5t27.5 -81q0 -85 -62.5 -132.5t-167.5 -47.5q-42 0 -88 5.5t-71 10.5l-25 6v163h92zM240 724l139 106l50 -60l-143 -147h-89l-153 147l55 60z" />
<glyph unicode="&#x178;" horiz-adv-x="667" d="M485 87v-87h-305v87l75 25v132l-183 346l-65 27v83l283 5v-88l-51 -21l100 -217l106 216l-55 22v83l270 5v-88l-69 -27l-181 -345v-133zM148 848q0 35 21.5 56.5t52.5 21.5q35 0 53.5 -20.5t18.5 -57.5q0 -36 -21.5 -57t-52.5 -21q-72 0 -72 78zM366 848q0 35 22 56.5 t52 21.5q72 0 72 -78q0 -36 -21.5 -57t-52.5 -21q-72 0 -72 78z" />
<glyph unicode="&#x17d;" horiz-adv-x="615" d="M309 851l139 106l50 -60l-143 -147h-90l-153 147l56 60zM582 0h-552v102l355 485h-210l-25 -90h-95v208h530v-113l-348 -475h228l22 103h95v-220z" />
<glyph unicode="&#x17e;" horiz-adv-x="517" d="M62 540h420v-93l-257 -342h153l19 90h88v-195h-435v92l261 343h-144l-17 -78h-88v183zM251 724l139 106l50 -60l-143 -147h-89l-153 147l55 60z" />
<glyph unicode="&#x192;" horiz-adv-x="440" d="M118 465l8 86q10 113 62.5 171t157.5 58l94 -6l-10 -104h-65q-47 0 -65 -22t-23 -74l-10 -109h131l-3 -100h-136l-32 -336q-11 -113 -63 -171t-157 -58l-74 6l13 104h42q47 0 65 22t23 74l33 359h-82l1 85z" />
<glyph unicode="&#x2c6;" horiz-adv-x="544" d="M275 733l-157 -98l-48 66l153 131l89 8l162 -139l-48 -66z" />
<glyph unicode="&#x2c7;" horiz-adv-x="515" d="M261 724l139 106l50 -60l-143 -147h-89l-153 147l55 60z" />
<glyph unicode="&#x2d8;" horiz-adv-x="440" d="M56 765l87 9q0 -3 1.5 -8t7 -18t13 -22.5t22.5 -17.5t33 -8q31 0 50 16t22 32l4 17l87 7q0 -83 -49.5 -129.5t-123.5 -46.5q-66 0 -110 45.5t-44 123.5z" />
<glyph unicode="&#x2d9;" horiz-adv-x="297" d="M75 700q0 37 21 58.5t52 21.5q34 0 54 -21t20 -59q0 -36 -21.5 -57.5t-52.5 -21.5q-34 0 -53.5 21t-19.5 58z" />
<glyph unicode="&#x2da;" horiz-adv-x="411" d="M72 704q0 60 40.5 96.5t93.5 36.5t93 -34t40 -93t-40.5 -96t-92.5 -37q-54 0 -94 34t-40 93zM157 707q0 -57 49 -57q21 0 34.5 15t13.5 43q0 57 -48 57q-22 0 -35.5 -15t-13.5 -43z" />
<glyph unicode="&#x2db;" horiz-adv-x="310" d="M170 -110q0 -36 37 -36l43 6l17 -70q-47 -25 -102 -25q-48 0 -79 25.5t-31 74.5q0 25 11.5 49t27.5 39.5t32 28t28 18.5l11 5h120l-12.5 -7.5t-27.5 -18t-35 -26.5t-27.5 -30.5t-12.5 -32.5z" />
<glyph unicode="&#x2dc;" horiz-adv-x="568" d="M127 630l-47 46q2 4 5 11.5t15 26.5t25 33.5t35 26.5t45 12q36 0 86.5 -23t79.5 -23q17 0 34.5 10.5t26.5 21.5l8 10l53 -46q-2 -4 -5.5 -11.5t-15 -26.5t-25 -33t-35 -26t-44.5 -12q-36 0 -87.5 22t-80.5 22q-19 0 -37 -10.5t-27 -20.5z" />
<glyph unicode="&#x2dd;" horiz-adv-x="623" d="M563 795l-195 -169l-63 62l177 190zM338 795l-195 -169l-63 62l177 190z" />
<glyph unicode="&#x394;" horiz-adv-x="679" d="M17 100l259 623h133l252 -623v-100h-644v100zM331 560l-179 -448h358z" />
<glyph unicode="&#x3bc;" horiz-adv-x="659" d="M91 -235v667l-74 20v80l221 8v-349q0 -74 58 -74q29 0 58.5 13.5t45.5 27.5l15 14v260l-74 20v80l221 8v-435l76 -20v-78l-203 -7l-10 71q-9 -9 -24.5 -22.5t-55.5 -36t-70 -22.5q-21 0 -37 6v-231h-147z" />
<glyph unicode="&#x3c0;" horiz-adv-x="690" d="M672 117l35 -70q-8 -6 -23 -15.5t-57 -25.5t-81 -16q-61 0 -100 44t-39 136v257h-160v-427h-147v430l-78 22v78l213 10h400v-88l-81 -20v-268q0 -63 50 -63q13 0 30 4t28 8z" />
<glyph unicode="&#x2013;" horiz-adv-x="500" d="M0 267v118h500v-118h-500z" />
<glyph unicode="&#x2014;" horiz-adv-x="970" d="M0 267v118h970v-118h-970z" />
<glyph unicode="&#x2018;" horiz-adv-x="311" d="M232 523q0 -40 -24.5 -64.5t-61.5 -24.5q-38 0 -61 24t-23 69q0 112 138 260l63 -51q-60 -80 -60 -121q0 -11 14.5 -38t14.5 -54z" />
<glyph unicode="&#x2019;" horiz-adv-x="311" d="M47 486q60 80 60 120q0 12 -14.5 39t-14.5 53q0 40 24.5 64.5t62.5 24.5t60.5 -24t22.5 -68q0 -112 -137 -261z" />
<glyph unicode="&#x201a;" horiz-adv-x="311" d="M47 -158q60 80 60 120q0 12 -14.5 39t-14.5 53q0 40 24.5 64.5t62.5 24.5t60.5 -24t22.5 -68q0 -112 -137 -261z" />
<glyph unicode="&#x201c;" horiz-adv-x="543" d="M465 523q0 -40 -24.5 -64.5t-62.5 -24.5t-60.5 24t-22.5 69q0 111 137 260l64 -51q-60 -80 -60 -121q0 -11 14.5 -38t14.5 -54zM232 523q0 -40 -24.5 -64.5t-61.5 -24.5q-38 0 -61 24t-23 69q0 112 138 260l63 -51q-60 -80 -60 -121q0 -11 14.5 -38t14.5 -54z" />
<glyph unicode="&#x201d;" horiz-adv-x="543" d="M47 486q60 80 60 120q0 12 -14.5 39t-14.5 53q0 40 24.5 64.5t62.5 24.5t60.5 -24t22.5 -68q0 -112 -137 -261zM280 486q60 80 60 120q0 12 -14.5 39t-14.5 53q0 40 24.5 64.5t61.5 24.5q38 0 61 -24t23 -68q0 -113 -138 -261z" />
<glyph unicode="&#x201e;" horiz-adv-x="543" d="M47 -158q60 80 60 120q0 12 -14.5 39t-14.5 53q0 40 24.5 64.5t62.5 24.5t60.5 -24t22.5 -68q0 -112 -137 -261zM280 -158q60 80 60 120q0 12 -14.5 39t-14.5 53q0 40 24.5 64.5t61.5 24.5q38 0 61 -24t23 -68q0 -113 -138 -261z" />
<glyph unicode="&#x2020;" horiz-adv-x="515" d="M35 515v95h165l-5 142l125 8l-7 -150h167v-95l-223 -34zM195 51l-16 392l78 -17l79 17l-16 -392l-63 -51z" />
<glyph unicode="&#x2021;" horiz-adv-x="515" d="M35 515v95h165l-5 142l125 8l-7 -150h167v-95l-223 -34zM195 51l-9 235l71 -16l72 16l-9 -235l-63 -51zM81 361v99l176 -29l176 29v-99l-176 -42z" />
<glyph unicode="&#x2022;" horiz-adv-x="543" d="M80 315q0 78 55.5 133.5t133.5 55.5t133.5 -55.5t55.5 -133.5t-55.5 -133.5t-133.5 -55.5t-133.5 55.5t-55.5 133.5z" />
<glyph unicode="&#x2026;" horiz-adv-x="780" d="M52 78q0 41 25.5 65.5t61.5 24.5q83 0 83 -90q0 -42 -25 -66.5t-61 -24.5q-41 0 -62.5 23.5t-21.5 67.5zM305 78q0 41 25.5 65.5t60.5 24.5q41 0 62.5 -23.5t21.5 -66.5q0 -42 -25 -66.5t-61 -24.5q-41 0 -62.5 23.5t-21.5 67.5zM557 78q0 41 25.5 65.5t61.5 24.5 q83 0 83 -90q0 -42 -25 -66.5t-61 -24.5q-41 0 -62.5 23.5t-21.5 67.5z" />
<glyph unicode="&#x2030;" horiz-adv-x="1313" d="M909 165q0 87 51 137.5t129 50.5q76 0 122.5 -46t46.5 -131q0 -86 -51 -138t-130 -52q-77 0 -122.5 44.5t-45.5 134.5zM1024 169q0 -96 58 -96q61 0 61 99q0 95 -59 95q-60 0 -60 -98zM179 -8l418 720h145l-418 -720h-145zM55 529q0 87 51 137.5t129 50.5q76 0 122.5 -46 t46.5 -131q0 -86 -51 -138t-130 -52q-77 0 -122.5 44.5t-45.5 134.5zM170 533q0 -96 58 -96q61 0 61 99q0 95 -59 95q-60 0 -60 -98zM519 165q0 87 51 137.5t129 50.5q76 0 122.5 -46t46.5 -131q0 -86 -51 -138t-130 -52q-77 0 -122.5 44.5t-45.5 134.5zM634 169 q0 -96 58 -96q61 0 61 99q0 95 -59 95q-60 0 -60 -98z" />
<glyph unicode="&#x2039;" horiz-adv-x="339" d="M176 265l113 -160l-83 -56l-156 177v77l156 177l83 -55z" />
<glyph unicode="&#x203a;" horiz-adv-x="339" d="M55 105l113 160l-113 160l83 55l156 -177v-77l-156 -177z" />
<glyph unicode="&#x2044;" horiz-adv-x="614" d="M85 -74l-100 67l539 779l100 -67z" />
<glyph unicode="&#x20ac;" horiz-adv-x="637" d="M473 580q-38 15 -93 15q-31 0 -54.5 -13.5t-35.5 -32.5t-20 -38.5t-10 -32.5l-2 -14h199v-90h-430v90h72q9 50 28.5 92.5t52.5 80t85.5 59t119.5 21.5q47 0 97.5 -10.5t77.5 -20.5l27 -11l-5 -165h-93zM27 221v90h430v-90h-192q30 -105 127 -105q38 0 78 14t61 28l21 15 l55 -88q-4 -4 -11 -10.5t-31 -23t-50 -29.5t-65.5 -23.5t-79.5 -10.5q-69 0 -121 23t-81 61.5t-43.5 73.5t-22.5 75h-75z" />
<glyph unicode="&#x220f;" horiz-adv-x="735" d="M252 -235h-142v830l-78 22v78l218 10h452v-88l-80 -22v-830h-142v827h-228v-827z" />
<glyph unicode="&#x2211;" horiz-adv-x="614" d="M32 -235v103l264 370l-269 365v102h532v-193h-93l-25 80h-242l255 -340l-267 -374h268l16 85h98v-198h-537z" />
<glyph unicode="&#x2212;" horiz-adv-x="580" d="M50 230v117h480v-117h-480z" />
<glyph unicode="&#x221a;" horiz-adv-x="697" d="M68 426l-58 16v83l182 5l118 -382l180 622l217 5v-84l-108 -18l-217 -673h-163z" />
<glyph unicode="&#x222b;" horiz-adv-x="437" d="M104 -247q-16 0 -39 4.5t-38 8.5l-15 4l9 97q30 -5 55 -5q39 0 54.5 28t15.5 88q0 67 -6 227t-6 259q0 62 8.5 107.5t28.5 83t58 56.5t93 19q18 0 41 -4.5t37 -9.5l15 -4q-8 -66 -11 -99q-25 7 -55 7q-39 0 -54.5 -27.5t-15.5 -87.5q0 -68 6 -228t6 -259 q0 -133 -39.5 -199t-147.5 -66z" />
<glyph unicode="&#x2248;" horiz-adv-x="640" d="M118 286l-63 44q2 5 6.5 13t19.5 28.5t32 36t45 28.5t58 13q44 0 108.5 -34t98.5 -34q25 0 49.5 13.5t35.5 27.5l12 14l65 -44q-2 -5 -6.5 -13t-20 -29t-32.5 -37t-44 -29t-55 -13q-43 0 -112.5 34t-104.5 34q-24 0 -47 -13.5t-34 -26.5zM118 91l-63 44q2 5 6.5 13 t19.5 28.5t32 36t45 28.5t58 13q44 0 108.5 -34t98.5 -34q25 0 49.5 14t35.5 28l12 13l65 -44q-2 -5 -6.5 -13t-20 -29t-32.5 -37t-44 -29t-55 -13q-43 0 -112.5 34t-104.5 34q-24 0 -47 -13t-34 -27z" />
<glyph unicode="&#x2260;" horiz-adv-x="640" d="M62 327v115h266l53 110h132l-53 -110h117v-115h-172l-47 -98h219v-115h-273l-55 -114h-132l55 114h-110v115h164l47 98h-211z" />
<glyph unicode="&#x2264;" horiz-adv-x="582" d="M45 -25v119h492v-119h-492zM192 364l345 -107v-122l-492 170v120l492 165v-123z" />
<glyph unicode="&#x2265;" horiz-adv-x="582" d="M537 94v-119h-492v119h492zM45 257l345 107l-345 103v123l492 -165v-120l-492 -170v122z" />
<glyph unicode="&#x25ca;" horiz-adv-x="560" d="M215 -45l-199 411l196 409h130l198 -410l-195 -410h-130zM275 631l-117 -257l125 -274l116 257z" />
<glyph unicode="&#x25fc;" horiz-adv-x="540" d="M0 540h540v-540h-540v540z" />
<glyph unicode="&#xfb01;" horiz-adv-x="757" d="M142 530v42q0 106 60.5 160.5t199.5 54.5q59 0 119 -9.5t91 -18.5l30 -9l-2 -141h-108l-13 63q-58 8 -107 8q-67 0 -94.5 -23t-27.5 -67v-60l372 10v-435l70 -25v-80h-287v80l70 25v327h-225v-327l73 -25v-80h-301v80l80 25v327h-90v83z" />
<glyph unicode="&#xfb02;" horiz-adv-x="788" d="M142 530v47q0 210 253 210q61 0 128 -6.5t103 -12.5l37 -6v-657l82 -25v-80h-300v80l68 25v566q-57 9 -106 9q-117 0 -117 -85v-65h130l-3 -100h-127v-325l73 -25v-80h-301v80l80 25v325h-90v85z" />
<glyph horiz-adv-x="320" d="M266 598l-242 147l68 104l223 -178z" />
<glyph horiz-adv-x="320" d="M305 745l-242 -147l-49 73l223 178z" />
<glyph horiz-adv-x="562" d="M283 733l-168 -120l-48 66l164 153l89 8l175 -161l-48 -66z" />
<glyph horiz-adv-x="756" d="M147 161h86v209q0 14 27 14q50 0 50 -65v-158h86v207q0 37 -25.5 60.5t-64.5 23.5l-56 -33q-9 -3 -11 -3q-6 0 -6 9v136h-86v-400zM562 154l73 43v29q-18 -5 -31 -5q-46 0 -46 67v104q0 11 11 11h67v42h-67q-11 0 -11 12v32h-25l-103 -65v-21h29q13 0 13 -11v-153 q0 -36 25.5 -60.5t64.5 -24.5zM40 92v491q0 93 92 93h491q93 0 93 -93v-491q0 -92 -93 -92h-491q-92 0 -92 92z" />
</font>
</defs>
</svg>
