<?xml version="1.0" standalone="no"?>
<!DOCTYPE svg PUBLIC "-//W3C//DTD SVG 1.1//EN" "http://www.w3.org/Graphics/SVG/1.1/DTD/svg11.dtd" >
<svg xmlns="http://www.w3.org/2000/svg">
<metadata></metadata>
<defs>
<font id="bitterregular" horiz-adv-x="565" >
<font-face units-per-em="1000" ascent="800" descent="-200" />
<missing-glyph horiz-adv-x="230" />
<glyph unicode="&#xd;" horiz-adv-x="333" />
<glyph unicode=" "  horiz-adv-x="230" />
<glyph unicode="&#x09;" horiz-adv-x="230" />
<glyph unicode="&#xa0;" horiz-adv-x="230" />
<glyph unicode="!" horiz-adv-x="320" d="M220 750l-15 -500l-85 -5l-15 505h115zM159 -10q-29 0 -46.5 18.5t-17.5 50.5q0 33 18.5 52t47.5 19t46.5 -18.5t17.5 -51.5q0 -32 -18.5 -51t-47.5 -19z" />
<glyph unicode="&#x22;" horiz-adv-x="388" d="M332 770l-20 -250h-75v250h95zM160 770l-20 -250h-75v250h95z" />
<glyph unicode="#" horiz-adv-x="690" d="M90 380v65h119l21 155h80l-21 -155h145l21 155h80l-21 -155h111v-65h-120l-19 -145h114v-65h-123l-22 -170h-80l22 170h-145l-22 -170h-80l22 170h-107v65h116l19 145h-110zM280 380l-19 -145h145l19 145h-145z" />
<glyph unicode="$" horiz-adv-x="545" d="M315 -140h-75v130q-21 0 -43.5 2.5t-43 6.5t-37.5 8.5t-28 8.5l-23 9v160h70l20 -92q37 -20 94 -20q30 0 55.5 6t45 17.5t30.5 28.5t11 40q0 35 -24 55t-59.5 35t-77 28.5t-77 34.5t-59.5 54.5t-24 87.5q0 76 47.5 119.5t122.5 54.5v116h75v-113q75 -6 138 -29l22 -8 l-5 -150h-60l-25 90q-46 20 -99 20t-84.5 -25t-31.5 -60t23.5 -55.5t59.5 -36t77 -29.5t77 -34.5t59.5 -52.5t23.5 -82q0 -79 -48.5 -127t-126.5 -62v-136z" />
<glyph unicode="%" horiz-adv-x="815" d="M155 0l405 700h90l-405 -700h-90zM201 360q-72 0 -114 42t-42 127q0 42 12 76t34 57t51.5 35.5t65.5 12.5q72 0 114.5 -43.5t42.5 -128.5t-45.5 -131.5t-118.5 -46.5zM205 645q-85 0 -85 -110t85 -110t85 110t-85 110zM596 -10q-72 0 -114 42t-42 127q0 42 12 76t34 57 t51.5 35.5t65.5 12.5q72 0 114.5 -43.5t42.5 -128.5t-45.5 -131.5t-118.5 -46.5zM600 275q-85 0 -85 -110t85 -110t85 110t-85 110z" />
<glyph unicode="&#x26;" horiz-adv-x="670" d="M550 330v-120q0 -105 -65 -162.5t-183 -57.5q-117 0 -174.5 54.5t-57.5 150.5q0 34 13 62.5t32 51t40 38.5t36 25l14 8q-17 4 -37.5 15.5t-38.5 29.5t-30 44t-12 61q0 91 61 135.5t172 44.5q19 0 41.5 -3t45 -7.5t42.5 -10t33 -9.5l28 -10l-5 -140h-64l-21 80 q-41 15 -105 15q-125 0 -125 -103q0 -24 10 -44.5t28 -35.5t41.5 -23.5t50.5 -8.5h310v-60zM450 205v125h-135q-28 0 -53 -10t-44.5 -27.5t-31 -42t-11.5 -54.5q0 -60 37 -90.5t102 -30.5q66 0 101 33.5t35 96.5z" />
<glyph unicode="'" horiz-adv-x="215" d="M160 770l-20 -250h-75v250h95z" />
<glyph unicode="(" horiz-adv-x="330" d="M240 770h90q-72 -111 -114 -238.5t-42 -253.5q0 -60 10.5 -128t30.5 -135.5t49 -130.5t65 -114h-89q-44 61 -75.5 120t-51.5 120t-29.5 126.5t-9.5 139.5q0 75 9.5 137.5t29.5 120.5t51.5 115.5t75.5 120.5z" />
<glyph unicode=")" horiz-adv-x="330" d="M-1 770h90q44 -63 75.5 -120.5t51.5 -116t29.5 -121t9.5 -136.5q0 -73 -9.5 -138.5t-30 -126.5t-52 -120.5t-74.5 -120.5h-89q36 51 64.5 114t49 130.5t31 135.5t10.5 128q0 126 -42 253.5t-114 238.5z" />
<glyph unicode="*" horiz-adv-x="403" d="M196 586l-26 23l-13 124l73 2l-7 -127l115 49l25 -70l-125 -29l84 -99l-58 -44l-69 113l9 34l34 -4l-29 19l14 31zM170 609l13 -32l-30 -17l35 2l7 -34l-65 -113l-60 42l83 103l-128 25l24 70z" />
<glyph unicode="+" horiz-adv-x="620" d="M50 225v80h218v225h85v-225h217v-80h-217v-225h-85v225h-218z" />
<glyph unicode="," horiz-adv-x="265" d="M135 130q65 0 65 -74q0 -88 -115 -210l-45 38q53 71 53 106q0 5 -3 12.5t-8.5 18.5t-8.5 23t-3 24q0 24 18 43t47 19z" />
<glyph unicode="-" horiz-adv-x="375" d="M60 230v85h260v-85h-260z" />
<glyph unicode="." horiz-adv-x="260" d="M129 -10q-29 0 -46.5 18.5t-17.5 50.5q0 33 18.5 52t47.5 19t46.5 -18.5t17.5 -51.5q0 -32 -18.5 -51t-47.5 -19z" />
<glyph unicode="/" horiz-adv-x="506" d="M40 0l331 700h105l-331 -700h-105z" />
<glyph unicode="0" horiz-adv-x="645" d="M335 710q69 0 116.5 -21.5t77 -65t43 -109.5t13.5 -154q0 -370 -260 -370q-255 0 -255 360t265 360zM180 350q0 -275 150 -275q78 0 111.5 68.5t33.5 210.5q0 140 -32.5 205.5t-113.5 65.5q-80 0 -114.5 -66.5t-34.5 -208.5z" />
<glyph unicode="1" horiz-adv-x="512" d="M487 85v-85h-409v85h154v500l-170 -110l-42 72l233 153h84v-615h150z" />
<glyph unicode="2" horiz-adv-x="570" d="M45 0v85q101 90 167.5 153t106 110t55.5 84.5t16 77.5q0 54 -36 84.5t-99 30.5q-49 0 -91 -15l-14 -5l-10 -95h-80l-5 160q108 40 216 40q52 0 94 -10.5t73 -33t46.5 -58t15.5 -84.5q0 -50 -16.5 -96t-54 -96.5t-97.5 -110t-147 -136.5h335v-85h-475z" />
<glyph unicode="3" horiz-adv-x="550" d="M140 405h80q69 0 109.5 30.5t40.5 82.5t-35 79.5t-95 27.5q-54 0 -96 -15l-14 -5l-10 -90h-80l-5 155q108 40 213 40q104 0 165.5 -42.5t61.5 -132.5q0 -134 -130 -167q67 -14 106 -58.5t39 -101.5q0 -58 -23 -99.5t-60.5 -67.5t-85 -38.5t-96.5 -12.5q-29 0 -57 3.5 t-52 9t-43 12.5t-31 13l-22 12l30 80q85 -45 180 -45q69 0 109.5 33t40.5 93t-44.5 92t-120.5 32h-75v80z" />
<glyph unicode="4" horiz-adv-x="610" d="M20 240l320 475l115 -15v-450h115v-85h-115v-165h-103v165h-322zM352 580l-222 -330h222v330z" />
<glyph unicode="5" horiz-adv-x="530" d="M452 700l-3 -85h-282l-9 -190h32q67 0 121 -15t91.5 -43t57.5 -66.5t20 -85.5q0 -53 -20 -94.5t-54.5 -71.5t-79 -44.5t-96.5 -14.5q-29 0 -57.5 3.5t-53.5 9t-45 12.5t-30 13l-24 12l30 80q79 -45 175 -45q30 0 56.5 9t46 26.5t31 42.5t11.5 58q0 66 -54 100t-151 34 h-105l13 355h379z" />
<glyph unicode="6" horiz-adv-x="600" d="M425 710q46 0 75 -10l-5 -80q-15 2 -34.5 3.5t-42.5 1.5q-48 0 -84.5 -13t-63 -34t-44.5 -46.5t-29.5 -51.5t-17 -48.5t-7.5 -37.5l-2 -14q11 9 31 17.5t44 16t49 12t46 4.5q45 0 84 -14.5t68 -42t46 -67t17 -89.5t-19 -91.5t-51.5 -71.5t-76.5 -47t-93 -17 q-64 0 -112 22t-79.5 62.5t-47.5 96.5t-16 124q0 93 23.5 169.5t69.5 131t114.5 84.5t157.5 30zM165 300v-30q0 -99 42.5 -147t105.5 -48t100 36t37 99q0 135 -140 135q-18 0 -37 -3t-35.5 -8.5t-30.5 -11.5t-23 -11z" />
<glyph unicode="7" horiz-adv-x="502" d="M5 700h480v-75l-267 -625h-115l265 610h-268l-20 -95h-75v185z" />
<glyph unicode="8" horiz-adv-x="590" d="M530 530q0 -34 -12.5 -60.5t-31.5 -46t-41.5 -32.5t-43.5 -20q65 -27 102 -66.5t37 -104.5q0 -46 -18 -84.5t-51 -66.5t-80 -43.5t-104 -15.5t-101.5 14.5t-74.5 41t-45.5 63t-15.5 81.5q0 38 15 68.5t38.5 52t46.5 35.5t38 21q-57 28 -87.5 64t-30.5 94q0 91 64 138 t173 47t166 -49.5t57 -130.5zM430 195q0 36 -26.5 66t-80.5 51l-48 19q-115 -52 -115 -136q0 -57 35.5 -88t99.5 -31t99.5 31t35.5 88zM318 400q107 44 107 125q0 46 -32.5 73t-92.5 27t-92.5 -27t-32.5 -73q0 -25 11 -43.5t30 -32.5t45.5 -26.5t56.5 -22.5z" />
<glyph unicode="9" horiz-adv-x="600" d="M180 -10q-46 0 -80 10l5 80q16 -2 33.5 -4t37.5 -2q53 0 92 13.5t67 35t45.5 48t28 53t15 49.5t5.5 38l1 14q-11 -9 -31 -17.5t-44 -16t-49 -12t-46 -4.5q-45 0 -84.5 13.5t-68.5 40t-45.5 65.5t-16.5 90t19 92.5t52 71.5t76.5 46t92.5 16q63 0 110.5 -22t79.5 -62 t48.5 -96.5t16.5 -124.5q0 -92 -23 -168.5t-68 -131.5t-112.5 -85t-156.5 -30zM435 405v30q0 96 -42.5 143t-105.5 47t-100 -36t-37 -99q0 -130 140 -130q37 -1 72 11t54 23z" />
<glyph unicode=":" horiz-adv-x="280" d="M139 -10q-29 0 -46.5 18.5t-17.5 50.5q0 33 18.5 52t47.5 19t46.5 -18.5t17.5 -51.5q0 -32 -18.5 -51t-47.5 -19zM92 333q-17 20 -17 52q0 35 19.5 52.5t46.5 17.5t45.5 -18.5t18.5 -51.5q0 -32 -18.5 -51t-47.5 -19t-47 18z" />
<glyph unicode=";" horiz-adv-x="280" d="M90 -154q115 122 115 210q0 74 -65 74q-32 0 -48.5 -19.5t-16.5 -48.5q0 -11 4 -22.5t8.5 -21.5t7.5 -18t3 -14t-3.5 -16.5t-9.5 -22.5t-13 -24t-14 -21l-13 -18zM91 333q-17 20 -17 52q0 34 20 52t46 18q27 0 45.5 -18.5t18.5 -51.5t-19 -51.5t-48 -18.5q-28 0 -46 18z " />
<glyph unicode="&#x3c;" horiz-adv-x="610" d="M160 265l400 -185v-85l-510 235v70l510 230v-85z" />
<glyph unicode="=" horiz-adv-x="600" d="M55 135v80h490v-80h-490zM55 330v80h490v-80h-490z" />
<glyph unicode="&#x3e;" horiz-adv-x="610" d="M50 80l400 185l-400 180v85l510 -230v-70l-510 -235v85z" />
<glyph unicode="?" horiz-adv-x="481" d="M195 -10q-29 0 -46.5 18.5t-17.5 50.5q0 33 18.5 52t47.5 19t46.5 -18.5t17.5 -51.5q0 -32 -18.5 -51t-47.5 -19zM233 234l-90 -6q-9 67 -9 95q0 20 10.5 38.5t27 36.5t37 35t39.5 34q63 54 63 113q0 80 -105 80q-25 1 -47.5 -2.5t-42.5 -7.5l-15 -3l-16 75q67 23 126 23 q44 0 81.5 -8.5t65.5 -27t43 -48t15 -71.5q0 -25 -8 -49.5t-21 -46.5t-29.5 -41t-33.5 -33q-46 -38 -70 -68.5t-23 -55.5z" />
<glyph unicode="@" horiz-adv-x="820" d="M555 30q-70 -40 -165 -40q-159 0 -242 91.5t-83 259.5q0 84 25.5 152.5t72 116.5t111.5 74t144 26t142.5 -24.5t107.5 -70t68 -110.5t24 -145q0 -96 -45.5 -150.5t-123.5 -54.5q-37 0 -67.5 16t-41.5 50q-9 -12 -23.5 -23t-31 -19.5t-33 -14t-30.5 -5.5q-54 0 -82.5 28.5 t-28.5 83.5q0 111 162 111h54v48q0 55 -68 55q-34 0 -85 -15l-17 -5l-18 57q74 31 140 31q128 0 128 -115v-179q0 -21 12.5 -32.5t34.5 -11.5q39 0 61.5 37t22.5 103q0 64 -18.5 115.5t-53 88t-84 56.5t-111.5 20q-61 0 -110.5 -19.5t-84.5 -56.5t-54 -90t-19 -120 q0 -135 66 -209.5t184 -74.5q57 0 105 19l15 6zM469 328h-48q-49 0 -69.5 -13t-20.5 -39q0 -51 52 -51q20 0 42 10.5t33 22.5l11 12v58z" />
<glyph unicode="A" horiz-adv-x="725" d="M5 0v60l82 19l228 616l100 5l222 -621l83 -19v-60h-290v60l93 19l-38 111h-260l-39 -111l94 -19v-60h-275zM357 571l-105 -301h206z" />
<glyph unicode="B" horiz-adv-x="630" d="M40 0v60l85 20v540l-85 20v55l185 5h115q98 0 156.5 -44t58.5 -131q0 -129 -130 -162q78 -18 116.5 -60t38.5 -103q0 -200 -255 -200h-285zM225 325v-245h105q145 0 145 115q0 72 -43.5 101t-131.5 29h-75zM225 620v-220h75q70 0 110 28.5t40 82.5q0 55 -32 82t-83 27 h-110z" />
<glyph unicode="C" horiz-adv-x="645" d="M520 491l-27 114q-54 20 -128 20q-102 0 -156 -74t-54 -207q0 -134 58.5 -199t156.5 -65q22 0 47.5 5t49.5 14.5t44 20t33 20.5l26 20l40 -65q-22 -22 -50.5 -41t-61 -33.5t-67.5 -22.5t-71 -8q-153 0 -236.5 88.5t-83.5 258.5q0 85 23.5 154t67.5 117.5t105.5 75 t138.5 26.5q23 0 50.5 -3.5t54 -9.5t50 -12.5t38.5 -12.5l32 -12l-5 -169h-75z" />
<glyph unicode="D" horiz-adv-x="730" d="M250 80h115q99 0 154.5 68t55.5 205q0 138 -54 202.5t-151 64.5h-120v-540zM60 0v60l85 20v540l-85 20v55l190 5h125q74 0 132.5 -22.5t99 -66t62 -107t21.5 -145.5t-23.5 -148t-66.5 -113t-104 -72.5t-136 -25.5h-300z" />
<glyph unicode="E" horiz-adv-x="625" d="M465 620h-215v-215h230v-80h-230v-245h230l20 100h65v-180h-505v60l85 20v540l-85 20v55l190 5h305v-170h-65z" />
<glyph unicode="F" horiz-adv-x="570" d="M445 620h-215v-225h230v-80h-230v-235l100 -20v-60h-290v60l85 20v540l-85 20v55l190 5h305v-165h-65z" />
<glyph unicode="G" horiz-adv-x="751" d="M635 264v-214q-1 0 -18 -9.5t-49.5 -21t-80 -20.5t-107.5 -9q-153 0 -236.5 88.5t-83.5 258.5q0 85 23.5 154t67.5 117.5t105.5 75t138.5 26.5q23 0 50.5 -3.5t54 -9.5t50 -12.5t38.5 -12.5l32 -12l-5 -165h-65l-30 110q-62 20 -135 20q-102 0 -156 -73t-54 -209 q0 -135 59 -201.5t161 -66.5q61 0 121 19l19 6v164l-85 20v55l260 5v-60z" />
<glyph unicode="H" horiz-adv-x="795" d="M325 60v-60h-285v60l85 20v540l-85 20v55l285 5v-60l-95 -20v-220h335v220l-95 20v55l285 5v-60l-85 -20v-540l85 -20v-60h-285v60l95 20v240h-335v-240z" />
<glyph unicode="I" horiz-adv-x="355" d="M315 60v-60h-275v60l85 20v540l-85 20v55l275 5v-60l-85 -20v-540z" />
<glyph unicode="J" horiz-adv-x="359" d="M44 695l275 5v-60l-85 -20v-575q0 -91 -50.5 -143t-139.5 -52l-64 5l9 75h50q90 0 90 95v595l-85 20v55z" />
<glyph unicode="K" horiz-adv-x="710" d="M325 60v-60h-285v60l85 20v540l-85 20v55l285 5v-60l-95 -20v-220h92l173 295l165 5v-60l-99 -20l-152 -253l206 -287l85 -20v-60h-285v60l85 20l-172 240h-98v-240z" />
<glyph unicode="L" horiz-adv-x="530" d="M225 620v-540h205l20 115h70v-195h-485v60l85 20v540l-85 20v55l275 5v-60z" />
<glyph unicode="M" horiz-adv-x="875" d="M565 0v60l95 20v500l-30 -75l-155 -315l-80 -5l-155 325l-25 70v-500l95 -20v-60h-270v60l85 20v540l-85 20v55l225 5l181 -400l189 395l210 5v-60l-85 -20v-540l85 -20v-60h-280z" />
<glyph unicode="N" horiz-adv-x="790" d="M545 0l-330 551v-471l95 -20v-60h-270v60l85 20v540l-85 20v55l210 5l330 -559v479l-85 20v55l260 5v-60l-85 -20v-620h-125z" />
<glyph unicode="O" horiz-adv-x="755" d="M60 342q0 84 22.5 152t65.5 116.5t102.5 74t132.5 25.5t131 -24.5t98.5 -70.5t61.5 -111t21 -146t-24 -148.5t-67.5 -116t-104.5 -76t-135 -27.5q-147 0 -225.5 91t-78.5 261zM380 625q-205 0 -205 -275t195 -275q100 0 155 70t55 210q0 270 -200 270z" />
<glyph unicode="P" horiz-adv-x="590" d="M40 0v60l85 20v540l-85 20v55l190 5h105q111 0 170.5 -55t59.5 -150q0 -115 -70.5 -175t-199.5 -60h-65v-180l85 -20v-60h-275zM230 620v-280h65q165 0 165 140q0 62 -34 101t-96 39h-100z" />
<glyph unicode="Q" horiz-adv-x="755" d="M785 -65l40 -60q-101 -60 -155 -60q-39 0 -130 55l-199 122q-137 11 -209 100.5t-72 253.5q0 82 24.5 149t68.5 115t105.5 74t135.5 26t132 -24t97.5 -69.5t60.5 -110.5t21 -146q0 -68 -16 -125.5t-45.5 -103.5t-71.5 -78t-95 -48l108 -65q67 -40 105 -40q29 0 79 26z M390 625q-107 0 -163.5 -68t-56.5 -205q0 -136 52.5 -206.5t157.5 -70.5q106 0 160.5 70.5t54.5 209.5q0 270 -205 270z" />
<glyph unicode="R" horiz-adv-x="650" d="M40 0v60l85 20v540l-85 20v55l190 5h110q106 0 165.5 -48t59.5 -132q0 -147 -130 -195q24 -21 60 -90l79 -159l71 -16v-60h-150l-85 185q-35 75 -60.5 97.5t-74.5 22.5h-45v-225l85 -20v-60h-275zM230 620v-240h75q73 0 114 33t41 87q0 55 -35 87.5t-90 32.5h-105z" />
<glyph unicode="S" horiz-adv-x="598" d="M150 205l20 -105q18 -10 49 -17.5t61 -7.5t58 7.5t49 21.5t33.5 33.5t12.5 44.5q0 29 -16 48.5t-41.5 34t-57.5 25.5t-65 23q-35 15 -67.5 30.5t-58 38t-40.5 54.5t-15 79q0 50 19.5 87t52 61t76 35.5t91.5 11.5q22 0 47 -3t49 -7.5t45 -10t36 -9.5l32 -10l-5 -170h-65 l-34 107q-28 9 -55.5 13t-56.5 4t-52.5 -7.5t-40 -20.5t-25.5 -29t-9 -33q1 -42 28 -66t67 -41t86.5 -32t86 -37.5t66 -58.5t26.5 -94q0 -52 -20 -92t-55 -67.5t-83 -42t-103 -14.5q-22 0 -47.5 3t-50 7.5t-45.5 10t-35 10.5l-28 10v175h80z" />
<glyph unicode="T" d="M435 60v-60h-305v60l100 20v540h-130l-25 -100h-65v180h545v-180h-65l-25 100h-130v-540z" />
<glyph unicode="U" horiz-adv-x="790" d="M665 620v-335q0 -147 -62 -221t-209 -74t-208 68.5t-61 211.5v350l-85 20v55l285 5v-60l-95 -20v-350q0 -110 38 -152.5t129 -42.5t127 46.5t36 163.5v335l-95 20v55l285 5v-60z" />
<glyph unicode="V" horiz-adv-x="700" d="M295 0l-213 620l-77 20v55l280 5v-60l-91 -19l157 -486l167 485l-93 20v55l270 5v-60l-78 -20l-222 -620h-100z" />
<glyph unicode="W" horiz-adv-x="1035" d="M250 0l-167 620l-78 20v55l280 5v-60l-87 -20l107 -453l165 528l95 5l162 -544l124 464l-91 20v55l270 5v-60l-79 -20l-176 -620h-110l-149 568l-31 -113l-135 -455h-100z" />
<glyph unicode="X" horiz-adv-x="700" d="M10 0v60l65 15l210 280l-185 265l-75 20v55l265 5v-60l-65 -20l130 -190l130 190l-70 20v55l265 5v-60l-90 -20l-180 -260l195 -280l85 -20v-60h-270v60l60 15l-140 205l-150 -200l85 -20v-60h-265z" />
<glyph unicode="Y" horiz-adv-x="645" d="M185 0v60l85 20v179l-193 362l-67 19v55l250 5v-60l-68 -20l133 -280l147 280l-77 20v55l240 5v-60l-62 -18l-198 -361v-181l85 -20v-60h-275z" />
<glyph unicode="Z" horiz-adv-x="615" d="M70 700h505v-70l-400 -550h310l20 100h65v-180h-530v70l400 550h-280l-25 -100h-65v180z" />
<glyph unicode="[" horiz-adv-x="345" d="M305 -160v-65l-215 -5v1000l215 -5v-65l-120 -11v-838z" />
<glyph unicode="\" horiz-adv-x="506" d="M135 700l331 -700h-105l-331 700h105z" />
<glyph unicode="]" horiz-adv-x="345" d="M255 -230l-215 5v65l120 11v838l-120 11v65l215 5v-1000z" />
<glyph unicode="^" horiz-adv-x="570" d="M282 600l-137 -280h-85l190 380h70l190 -380h-87z" />
<glyph unicode="_" horiz-adv-x="500" d="M0 -150v70h500v-70h-500z" />
<glyph unicode="`" horiz-adv-x="420" d="M290 635l-195 125l50 75l185 -145z" />
<glyph unicode="a" d="M75 500q108 40 198 40q88 0 135 -35.5t47 -119.5v-305l80 -20v-55l-155 -5l-21 70q-80 -80 -158 -80t-117 39t-39 111q0 155 230 155h80v80q0 90 -95 90q-54 0 -89 -11l-12 -4l-14 -75h-65zM355 230h-70q-75 0 -106.5 -19.5t-31.5 -60.5q0 -39 18.5 -59.5t53.5 -20.5 q17 0 34.5 6t34 15t29.5 19.5t21 19.5l17 20v80z" />
<glyph unicode="b" horiz-adv-x="585" d="M180 770v-288q73 58 150 58q106 0 158 -69t52 -196q0 -62 -18 -114.5t-53 -90.5t-86 -59t-118 -21q-51 1 -91.5 4.5t-71.5 13.5l-22 7v675l-80 20v55zM180 80q24 -10 104 -10q40 0 68.5 15t47 41.5t27 63t8.5 79.5q0 90 -30.5 140.5t-94.5 50.5q-50 0 -80.5 -19.5 t-49.5 -45.5v-315z" />
<glyph unicode="c" horiz-adv-x="510" d="M465 365h-65l-15 85q-39 10 -90 10q-72 0 -111 -46t-39 -143t41 -149t114 -52q21 0 41.5 4t39 10.5t33.5 14.5t24 16l17 15l35 -60l-11 -9q-12 -10 -33 -22.5t-46.5 -23t-54 -18t-55.5 -7.5q-122 0 -186 72.5t-64 198.5q0 62 18.5 113.5t52.5 88t82 57t107 20.5 q20 0 41 -3t41 -7t37 -9.5t29 -10.5l22 -10z" />
<glyph unicode="d" horiz-adv-x="615" d="M505 770v-690l85 -20v-55l-170 -5l-8 57q-67 -67 -165 -67q-97 0 -149.5 69.5t-52.5 192.5q0 131 67 209.5t198 78.5q49 0 95 -16v166l-85 20v55zM405 145v295q-35 20 -105 20q-150 0 -150 -200q0 -88 30.5 -139t94.5 -51q49 0 83 26q32 26 47 49z" />
<glyph unicode="e" horiz-adv-x="530" d="M490 252l-345 -2q0 -82 39.5 -131t105.5 -49q22 0 44 4t41.5 10t35.5 13.5t27 14.5l20 13l35 -52q-34 -27 -62.5 -42.5t-67 -28t-83.5 -12.5q-118 0 -179 71.5t-61 195.5q0 62 18 114t50.5 89.5t77.5 58.5t99 21q210 0 210 -235zM149 325h240q0 61 -26 99t-84 38 q-57 0 -91 -38.5t-39 -98.5z" />
<glyph unicode="f" horiz-adv-x="440" d="M70 515l90 10v60q0 91 48 143t137 52q42 0 79.5 -8.5t53.5 -17.5l17 -9v-125h-70l-15 80q-25 5 -68 5q-82 0 -82 -100v-80h132l-3 -75h-129v-370l97 -25v-55h-282v55l85 25v370h-90v65z" />
<glyph unicode="g" horiz-adv-x="585" d="M270 160q-44 0 -75 9l-5 -94h155q98 0 149 -37t51 -112q0 -81 -66 -128.5t-194 -47.5q-240 0 -240 145q0 63 67 107q16 10 38 18q-27 4 -43.5 19t-16.5 34q0 33 39 96l13 21q-9 3 -24.5 18t-25.5 30q-27 42 -27 107q0 95 59.5 145t160.5 50q56 0 89 -14l11 -5l175 4v-55 l-97 -14q27 -36 27 -101q0 -98 -59 -146.5t-161 -48.5zM320 0h-110q-5 -2 -19.5 -12.5t-22.5 -19.5q-23 -26 -23 -58q0 -49 38.5 -67t116.5 -18q150 0 150 95q0 46 -32.5 63t-97.5 17zM280 470q-115 0 -115 -120q0 -55 28 -87.5t81 -32.5q61 0 88.5 28.5t27.5 91.5 q0 120 -110 120z" />
<glyph unicode="h" horiz-adv-x="650" d="M210 770v-302q85 72 170 72t125 -47.5t40 -132.5v-280l75 -25v-55h-240v55l65 24v271q0 54 -20 79.5t-63 25.5q-21 0 -41 -5.5t-38 -14.5t-32 -19.5t-23 -20.5l-18 -20v-295l65 -25v-55h-250v55l85 25v610l-85 20v55z" />
<glyph unicode="i" horiz-adv-x="335" d="M170 765q65 0 65 -75q0 -31 -22 -48t-47 -17q-27 0 -44 18.5t-17 51.5t18.5 51.5t46.5 18.5zM225 530v-450l75 -25v-55h-260v55l85 25v370l-85 20v55z" />
<glyph unicode="j" horiz-adv-x="289" d="M209 530v-575q0 -91 -47.5 -143t-137.5 -52l-64 5l9 70h50q51 0 70.5 25.5t19.5 74.5v515l-85 20v55zM149 765q65 0 65 -75q0 -31 -22 -48t-47 -17q-27 0 -44 18.5t-17 51.5t19 51.5t46 18.5z" />
<glyph unicode="k" horiz-adv-x="585" d="M210 770v-440h85l75 126l-45 14v55l220 5v-60l-71 -12h-1l-103 -153l129 -225h1l75 -25v-55h-135l-143 255h-87v-175l65 -25v-55h-250v55l85 25v610l-85 20v55z" />
<glyph unicode="l" horiz-adv-x="317" d="M212 770v-690l100 -25v-55h-287v55l85 25v610l-85 20v55z" />
<glyph unicode="m" horiz-adv-x="980" d="M205 530l9 -71q14 13 34 27.5t44 26.5t50.5 19.5t52.5 7.5q101 0 139 -86q18 18 42 33.5t49.5 27.5t50 18.5t44.5 6.5q155 0 155 -180v-280l75 -25v-55h-240v55l65 25v270q0 55 -19 80t-62 25q-21 0 -40.5 -5.5t-36.5 -14.5t-30 -19.5t-21 -20.5l-16 -20v-295l65 -25v-55 h-230v55l65 25v270q0 55 -19 80t-62 25q-21 0 -40.5 -5.5t-36.5 -14.5t-30 -19.5t-21 -20.5l-16 -20v-295l65 -25v-55h-250v55l85 25v370l-85 20v55z" />
<glyph unicode="n" horiz-adv-x="665" d="M205 530l9 -71q10 8 28 22t42.5 27t54 22.5t61.5 9.5q81 0 120.5 -47.5t39.5 -132.5v-280l75 -25v-55h-240v55l65 25v270q0 54 -21 79.5t-64 25.5q-21 0 -41.5 -5.5t-38 -14.5t-31 -19.5t-22.5 -20.5l-17 -20v-295l65 -25v-55h-250v55l85 25v370l-85 20v55z" />
<glyph unicode="o" horiz-adv-x="570" d="M40 257q0 64 18.5 116.5t52.5 89.5t80.5 57t102.5 20q112 0 174 -71t62 -197q0 -62 -18 -113.5t-50.5 -89t-79 -58.5t-103.5 -21q-114 0 -176.5 68t-62.5 199zM290 460q-145 0 -145 -195t140 -195q73 0 106.5 50t33.5 150q0 190 -135 190z" />
<glyph unicode="p" horiz-adv-x="615" d="M195 530l8 -56q70 66 152 66q106 0 160.5 -69.5t54.5 -197.5q0 -62 -16.5 -114t-50.5 -89.5t-84.5 -58.5t-118.5 -21q-42 0 -90 14v-159l105 -20v-55h-285v55l80 20v605l-85 20v55zM210 390v-300q31 -20 105 -20q150 0 150 200q0 88 -32 139t-98 51q-38 0 -71.5 -17.5 t-53.5 -52.5z" />
<glyph unicode="q" horiz-adv-x="580" d="M305 -230v55l100 20v203q-73 -58 -150 -58q-210 0 -210 260q0 65 18 118.5t53.5 91.5t86.5 59t117 21q97 0 163 -15l22 -5v-675l80 -20v-55h-280zM405 450q-29 10 -106 10q-39 0 -67 -14.5t-46 -41t-27 -63t-9 -80.5q0 -90 30.5 -140.5t94.5 -50.5q50 0 80.5 19.5 t49.5 45.5v315z" />
<glyph unicode="r" horiz-adv-x="465" d="M205 530l9 -73q74 83 151 83q41 0 79 -12l11 -3l-5 -145h-65l-15 75q-86 0 -145 -78v-297l100 -25v-55h-285v55l85 25v370l-85 20v55z" />
<glyph unicode="s" horiz-adv-x="471" d="M46 160h70l11 -86q10 -4 31.5 -6.5t42.5 -2.5q65 0 94.5 19.5t29.5 59.5q0 27 -20.5 43t-51.5 27t-67.5 22t-67.5 28.5t-51.5 45.5t-20.5 74q0 75 50 114.5t133 41.5q35 -1 71.5 -5.5t74.5 -16.5l25 -8l-3 -135h-65l-16 78q-8 3 -31 7.5t-49 4.5q-18 0 -34 -3t-28.5 -10 t-20 -20t-7.5 -32q0 -29 20.5 -45.5t51.5 -28.5t67.5 -23t67.5 -28.5t51.5 -44.5t20.5 -71q0 -42 -18 -74t-48.5 -53.5t-71 -32t-86.5 -10.5q-17 0 -35.5 1.5t-36.5 4t-33.5 5.5t-25.5 6l-23 6z" />
<glyph unicode="t" horiz-adv-x="395" d="M220 671v-146h145v-75h-145v-321q0 -61 50 -61q32 0 78 25l27 -53q-68 -50 -140 -50q-51 0 -83 33.5t-32 111.5v315h-100v65l100 10v126z" />
<glyph unicode="u" horiz-adv-x="650" d="M540 530v-450l85 -20v-55l-165 -5l-10 70q-42 -37 -95 -58.5t-90 -21.5q-80 0 -120 47t-40 132v281l-85 20v55l185 5v-351q0 -53 21 -78.5t64 -25.5t79 20t53 39l18 20v296l-85 20v55z" />
<glyph unicode="v" horiz-adv-x="559" d="M230 530v-60l-70 -10l119 -370l120 365l-69 15v55l224 5v-60l-55 -10l-170 -460h-110l-164 455l-50 15v55z" />
<glyph unicode="w" horiz-adv-x="830" d="M230 530v-60l-75 -10l85 -370l131 435l95 15l124 -450l80 365l-70 15v55l225 5v-60l-58 -10l-122 -460h-115l-95 310l-24 96l-21 -96l-95 -310h-115l-125 455l-50 15v55z" />
<glyph unicode="x" d="M243 530v-60l-35 -6l77 -129l120 190l145 5v-60l-85 -15l-125 -185l128 -192l92 -23v-55h-244v55l40 12l-82 132l-124 -199h-145v55l88 23l127 187l-128 191l-77 14v55z" />
<glyph unicode="y" horiz-adv-x="577" d="M245 530v-60l-70 -10l120 -350l110 345l-70 15v55l237 5v-60l-65 -10l-142 -396q-50 -131 -74 -174q-75 -129 -196 -130l-64 5l9 70h50q49 0 85.5 41t73.5 122l-179 457l-60 15v55z" />
<glyph unicode="z" horiz-adv-x="505" d="M470 530v-75l-293 -380h204l14 80h70v-155h-400v75l292 380h-188l-14 -75h-70v150h385z" />
<glyph unicode="{" horiz-adv-x="370" d="M340 775v-65q-71 0 -97 -22.5t-26 -82.5v-171q0 -104 -93 -139q93 -35 93 -139v-211q0 -60 26 -82.5t97 -22.5v-65h-45q-91 0 -130.5 38.5t-39.5 131.5v211q0 50 -21 77t-74 27v70q53 0 74 27t21 77v171q0 93 39.5 131.5t130.5 38.5h45z" />
<glyph unicode="|" horiz-adv-x="280" d="M180 755v-985h-80v985h80z" />
<glyph unicode="}" horiz-adv-x="375" d="M40 775h45q91 0 130.5 -38.5t39.5 -131.5v-171q0 -50 21 -77t74 -27v-70q-53 0 -74 -27t-21 -77v-211q0 -93 -39.5 -131.5t-130.5 -38.5h-45v65q71 0 97 22.5t26 82.5v211q0 104 93 139q-93 35 -93 139v171q0 60 -26 82.5t-97 22.5v65z" />
<glyph unicode="~" horiz-adv-x="626" d="M106 209l-46 36q10 20 20.5 33t29 29.5t45.5 27t65 10.5q18 0 45.5 -9.5t57.5 -25.5t55.5 -25.5t40.5 -9.5q31 -1 54 14.5t35 30.5l12 15l46 -36q-7 -14 -20.5 -32t-32 -34t-42 -27t-50.5 -11q-28 0 -56.5 10t-61 25.5t-59 25t-42.5 9.5q-29 -1 -52 -14t-34 -28z" />
<glyph unicode="&#xa1;" horiz-adv-x="315" d="M156 550q29 0 46.5 -18.5t17.5 -51.5q0 -32 -19 -51t-48 -19q-28 0 -45.5 18.5t-17.5 50.5q0 33 19 52t47 19zM100 -210l15 500l85 5l15 -505h-115z" />
<glyph unicode="&#xa2;" horiz-adv-x="510" d="M315 700v-92q36 -2 73.5 -13t57.5 -21l19 -9l-5 -130h-65l-15 85q-33 10 -85 10q-75 0 -110 -38t-35 -122q0 -180 150 -180q19 0 37.5 3.5t35 9t30 12.5t21.5 13l16 12l39 -55q-14 -12 -34 -24t-42.5 -22.5t-45.5 -18t-42 -9.5v-111h-75v113q-96 14 -145.5 79t-49.5 164 q0 100 50.5 166t144.5 82v96h75z" />
<glyph unicode="&#xa3;" horiz-adv-x="625" d="M565 185v-185h-505v60l55 15q35 9 45 37t10 69q0 21 -1.5 59t-5.5 95h-103v68l98 11q-3 48 -3 96q0 94 49 147t151 53q25 0 52.5 -2.5t52 -5.5t45 -6.5t31.5 -7.5l24 -8v-140h-65l-15 83q-30 4 -60 5.5t-60 1.5q-105 0 -105 -100q0 -32 1 -60.5t3 -54.5h166v-80h-161 q6 -90 6 -127q0 -19 -3 -37t-8 -33.5t-11 -27.5t-12 -18l-11 -12h254l21 105h65z" />
<glyph unicode="&#xa4;" horiz-adv-x="578" d="M528 486l-76 -76q29 -47 29 -109t-32 -112l79 -79l-49 -52l-81 80q-50 -33 -112 -33q-63 0 -109 30l-78 -77l-49 52l78 78q-27 45 -27 106q0 63 31 110l-82 82l49 52l83 -82q49 34 112 34q61 0 107 -29l78 77zM186 298q0 -58 25.5 -90.5t79.5 -32.5t79.5 32.5t25.5 90.5 q0 122 -105 122t-105 -122z" />
<glyph unicode="&#xa5;" horiz-adv-x="645" d="M97 290v70h124l-144 261l-67 19v55l250 5v-60l-68 -20l133 -270l147 270l-77 20v55l240 5v-60l-62 -18l-149 -262h123v-70h-450zM97 155v70h450v-70h-172v-75l85 -20v-60h-275v60l85 20v75h-173z" />
<glyph unicode="&#xa6;" horiz-adv-x="300" d="M185 365h-80v400h80v-400zM185 -265h-80v410h80v-410z" />
<glyph unicode="&#xa7;" horiz-adv-x="545" d="M451 590h-60l-24 105q-16 2 -30.5 3.5t-28.5 1.5q-44 0 -68.5 -27t-24.5 -62q0 -34 20 -59t50 -47.5t65 -44.5t65 -48t50 -59t20 -78q0 -98 -72 -147q28 -43 28 -93q0 -41 -14 -75t-39.5 -58.5t-60.5 -38t-76 -13.5q-38 1 -74.5 7.5t-52.5 14.5l-18 8l5 160h64l21 -105 q25 -5 60 -5q19 0 35.5 7.5t28.5 19.5t19 28t7 33q0 34 -20 59.5t-50 48t-65.5 44t-65.5 48t-50 59.5t-20 78q0 97 72 147q-27 40 -27 93q0 42 14.5 76t40 58t60.5 37.5t76 13.5q38 -1 74 -7.5t53 -14.5l18 -8zM364 181q26 29 26 72q0 23 -7 41t-21 33.5t-35 31.5t-50 34 t-49 32t-31 24q-27 -27 -27 -72q0 -23 6.5 -41t20.5 -34t35 -32t51 -34q29 -19 49.5 -32t31.5 -23z" />
<glyph unicode="&#xa8;" horiz-adv-x="515" d="M114 656q-14 16 -14 43t15.5 44t40.5 17t39.5 -17t14.5 -43q0 -27 -16 -43.5t-41 -16.5q-24 0 -39 16zM319 656q-14 16 -14 43t15.5 44t40.5 17t39.5 -17t14.5 -43q0 -27 -16 -43.5t-41 -16.5q-24 0 -39 16z" />
<glyph unicode="&#xa9;" horiz-adv-x="820" d="M143 89q-98 100 -98 256q0 78 27.5 145t76 116t115.5 76.5t146 27.5q78 0 145 -26t115.5 -73t76.5 -112.5t28 -144.5q0 -78 -29 -144.5t-79.5 -115.5t-119 -76.5t-147.5 -27.5q-158 0 -257 99zM201 558q-76 -79 -76 -208q0 -64 20 -117t56.5 -91t88 -59t115.5 -21t117 21 t91.5 59.5t60 91.5t21.5 116q0 64 -21.5 117t-60.5 91t-92 59t-116 21q-127 0 -204 -80zM542 414h-56l-14 68q-29 8 -62 8q-95 0 -95 -142q0 -128 100 -128q24 0 50.5 11t41.5 22l15 11l27 -46l-19 -18q-5 -5 -18 -12.5t-30 -15t-36 -12.5t-36 -5q-85 0 -132.5 47.5 t-47.5 141.5q0 47 13 85t37 65t58.5 42t78.5 15q14 0 29.5 -2t30.5 -5.5t27.5 -7.5t21.5 -8l18 -8z" />
<glyph unicode="&#xaa;" horiz-adv-x="468" d="M83 580l-5 100q95 30 155 30q128 0 128 -115v-208l57 -14v-45l-109 -5l-16 52q-17 -20 -53 -39.5t-64 -19.5q-54 0 -82.5 28.5t-28.5 83.5q0 111 162 111h54v50q0 24 -16.5 38.5t-38.5 14.5q-40 0 -78 -10l-10 -52h-55zM281 485h-48q-47 0 -68.5 -12.5t-21.5 -38.5 q0 -52 52 -52q21 0 42.5 11t32.5 23l11 11v58zM73 165v70h345v-70h-345z" />
<glyph unicode="&#xab;" horiz-adv-x="540" d="M365 265l115 -150l-60 -40l-145 160v60l145 160l60 -40zM150 265l110 -150l-60 -40l-140 160v60l140 160l60 -40z" />
<glyph unicode="&#xac;" horiz-adv-x="615" d="M60 275v80h500v-270h-85v190h-415z" />
<glyph unicode="&#xad;" horiz-adv-x="375" d="M60 230v85h260v-85h-260z" />
<glyph unicode="&#xae;" horiz-adv-x="720" d="M137 237q-82 82 -82 213q0 65 23 120.5t64 96.5t97 64.5t121 23.5t121 -22t97 -61.5t64 -93.5t23 -118q0 -65 -24.5 -120.5t-67.5 -96.5t-100 -64.5t-123 -23.5q-131 0 -213 82zM190 625q-60 -65 -60 -170q0 -54 15.5 -97t45 -74t71 -47.5t93.5 -16.5t95.5 17t74.5 48 t48 74t17 96q0 52 -17 95.5t-48 74.5t-74.5 48t-95.5 17q-103 0 -165 -65zM215 295v40l40 10v232l-40 8v37l150 3q51 0 84 -24.5t33 -67.5q0 -65 -62 -88q17 -18 28 -37l32 -63l40 -10v-40h-86l-40 85q-8 17 -14 27.5t-11.5 16t-12.5 7t-17 1.5h-19v-87l40 -10v-40h-145z M320 575v-97h35q27 0 43.5 13t16.5 36q0 48 -55 48h-40z" />
<glyph unicode="&#xaf;" horiz-adv-x="350" d="M40 660v75h270v-75h-270z" />
<glyph unicode="&#xb0;" horiz-adv-x="410" d="M204 435q-69 0 -111.5 39.5t-42.5 108.5q0 34 11.5 62.5t32 48t49 30.5t62.5 11q69 0 112 -39t43 -108q0 -34 -11.5 -62t-32 -48.5t-49.5 -31.5t-63 -11zM205 675q-38 0 -61.5 -22.5t-23.5 -65.5q0 -42 21.5 -67t63.5 -25t63.5 25t21.5 67q0 43 -23.5 65.5t-61.5 22.5z " />
<glyph unicode="&#xb1;" horiz-adv-x="615" d="M55 302v78h210v160h85v-160h210v-78h-210v-162h-85v162h-210zM55 0v78h505v-78h-505z" />
<glyph unicode="&#xb2;" horiz-adv-x="390" d="M106 570h-60l-3 109q72 26 135 26q162 0 162 -120q0 -57 -37 -102t-148 -132h195v-71h-315v69q41 34 72.5 59t52 42.5t29.5 26t22 21.5t18 21.5t11 19.5q10 18 10 41q0 60 -75 60q-32 0 -62 -10z" />
<glyph unicode="&#xb3;" horiz-adv-x="378" d="M97 575h-58l-4 111q80 19 145 19q66 0 105.5 -28t39.5 -74q0 -86 -88 -104q38 -4 67 -30t29 -63q0 -65 -47.5 -98t-126.5 -33q-33 0 -67.5 9.5t-53.5 18.5l-18 9l20 60q60 -30 111 -30q94 0 94 63q0 58 -94 58h-41v61h46q84 0 84 64q0 52 -70 52q-41 0 -68 -9z" />
<glyph unicode="&#xb4;" horiz-adv-x="420" d="M325 760l-195 -125l-40 55l185 145z" />
<glyph unicode="&#xb6;" horiz-adv-x="630" d="M565 695v-55l-85 -20v-790h-87v790h-79v-790h-174v60l90 20v396q-73 8 -121.5 63.5t-48.5 137.5q0 83 55 138t150 55h128z" />
<glyph unicode="&#xb7;" horiz-adv-x="260" d="M128 233q-30 0 -47.5 18.5t-17.5 52.5q0 35 19 54t49 19q31 0 48.5 -18.5t17.5 -53.5q0 -34 -19 -53t-50 -19z" />
<glyph unicode="&#xb8;" horiz-adv-x="436" d="M184 0h60v-43q42 -7 64.5 -30t22.5 -60q0 -18 -8 -34t-22 -27.5t-32 -18t-37 -6.5q-68 0 -108 21l-14 7l24 41q22 -11 39.5 -16t36.5 -5q25 0 40.5 12t15.5 29q0 27 -23.5 39t-49.5 12h-9v79z" />
<glyph unicode="&#xb9;" horiz-adv-x="350" d="M330 345v-65h-270v65h95v265l-105 -65l-35 60l151 95h74v-355h90z" />
<glyph unicode="&#xba;" horiz-adv-x="495" d="M60 505q0 46 14.5 84t40 65t61 41.5t78.5 14.5q88 0 134.5 -49.5t46.5 -142.5q0 -46 -13.5 -83.5t-38.5 -64t-60.5 -41t-78.5 -14.5q-87 0 -135.5 48t-48.5 142zM350 512q0 63 -26.5 95.5t-74.5 32.5q-46 0 -75 -32.5t-29 -95.5t28.5 -95t76.5 -32t74 32t26 95zM70 165 v70h355v-70h-355z" />
<glyph unicode="&#xbb;" horiz-adv-x="540" d="M60 115l115 150l-115 150l60 40l145 -160v-60l-145 -160zM280 115l110 150l-110 150l60 40l140 -160v-60l-140 -160z" />
<glyph unicode="&#xbc;" horiz-adv-x="970" d="M355 345v-65h-270v65h95v265l-105 -65l-35 60l151 95h74v-355h90zM225 0l405 700h90l-405 -700h-90zM549 151l203 280l98 -10v-264h70v-65h-70v-91h-85v91h-210zM765 336l-129 -179h129v179z" />
<glyph unicode="&#xbd;" horiz-adv-x="950" d="M355 345v-65h-270v65h95v265l-105 -65l-35 60l151 95h74v-355h90zM225 0l405 700h90l-405 -700h-90zM651 291h-60l-3 109q72 26 135 26q162 0 162 -120q0 -57 -37 -102t-148 -132h195v-71h-315v69q41 34 72.5 59t52 42.5t29.5 26t22 21.5t18 21.5t11 19.5q10 18 10 41 q0 60 -75 60q-32 0 -62 -10z" />
<glyph unicode="&#xbe;" horiz-adv-x="963" d="M112 575h-58l-4 111q80 19 145 19q66 0 105.5 -28t39.5 -74q0 -86 -88 -104q38 -4 67 -30t29 -63q0 -65 -47.5 -98t-126.5 -33q-33 0 -67.5 9.5t-53.5 18.5l-18 9l20 60q60 -30 111 -30q94 0 94 63q0 58 -94 58h-41v61h46q84 0 84 64q0 52 -70 52q-41 0 -68 -9zM218 0 l405 700h90l-405 -700h-90zM542 151l203 280l98 -10v-264h70v-65h-70v-91h-85v91h-210zM758 336l-129 -179h129v179z" />
<glyph unicode="&#xbf;" horiz-adv-x="476" d="M286 550q29 0 46.5 -18.5t17.5 -51.5q0 -32 -19 -51t-48 -19q-28 0 -45.5 18.5t-17.5 50.5q0 33 19 52t47 19zM248 306l90 6q9 -68 9 -95q0 -21 -10.5 -39.5t-27 -36t-37 -34.5t-40.5 -34q-62 -54 -62 -113q0 -80 105 -80q25 -1 47.5 2t42.5 8l15 3l16 -75 q-67 -23 -126 -23q-44 0 -81 8t-65 26.5t-43.5 48t-15.5 72.5q0 25 8 49.5t21 46.5t29.5 41t34.5 33q92 74 92 124z" />
<glyph unicode="&#xc0;" horiz-adv-x="725" d="M5 0v60l82 19l228 616l100 5l222 -621l83 -19v-60h-290v60l93 19l-38 111h-260l-39 -111l94 -19v-60h-275zM357 571l-105 -301h206zM440 735l-195 125l50 75l185 -145z" />
<glyph unicode="&#xc1;" horiz-adv-x="725" d="M5 0v60l82 19l228 616l100 5l222 -621l83 -19v-60h-290v60l93 19l-38 111h-260l-39 -111l94 -19v-60h-275zM357 571l-105 -301h206zM544 860l-195 -125l-40 55l185 145z" />
<glyph unicode="&#xc2;" horiz-adv-x="725" d="M5 0v60l82 19l228 616l100 5l222 -621l83 -19v-60h-290v60l93 19l-38 111h-260l-39 -111l94 -19v-60h-275zM357 571l-105 -301h206zM495 750l-133 93l-137 -93l-40 45l145 120l60 5l145 -125z" />
<glyph unicode="&#xc3;" horiz-adv-x="725" d="M5 0v60l82 19l228 616l100 5l222 -621l83 -19v-60h-290v60l93 19l-38 111h-260l-39 -111l94 -19v-60h-275zM357 571l-105 -301h206zM242 805l-35 35q18 42 48 68t64 26q20 0 39.5 -6t44.5 -16t45 -17t33 -7q24 0 40 10.5t23 21.5l8 10l35 -35q-4 -12 -14 -27t-24 -31.5 t-31 -24t-38 -7.5q-17 0 -40.5 6.5t-47.5 16t-43 15.5t-32 6q-23 -1 -41 -11.5t-26 -21.5z" />
<glyph unicode="&#xc4;" horiz-adv-x="725" d="M5 0v60l82 19l228 616l100 5l222 -621l83 -19v-60h-290v60l93 19l-38 111h-260l-39 -111l94 -19v-60h-275zM357 571l-105 -301h206zM224 781q-14 16 -14 43t15.5 44t40.5 17t39.5 -17t14.5 -43q0 -27 -16 -43.5t-41 -16.5q-24 0 -39 16zM429 781q-14 16 -14 43t15.5 44 t40.5 17t39.5 -17t14.5 -43q0 -27 -16 -43.5t-41 -16.5q-24 0 -39 16z" />
<glyph unicode="&#xc5;" horiz-adv-x="725" d="M250 795q0 51 35 83t80 32q46 0 80.5 -29.5t34.5 -72.5q0 -82 -64 -111l221 -618l83 -19v-60h-290v60l93 19l-38 111h-260l-39 -111l94 -19v-60h-275v60l82 19l228 616q-65 28 -65 100zM357 571l-105 -301h206zM310 797q0 -62 55 -62q24 0 39.5 17t15.5 46q0 62 -55 62 q-24 0 -39.5 -17t-15.5 -46z" />
<glyph unicode="&#xc6;" horiz-adv-x="959" d="M390 0v60l90 20v125h-220l-63 -128l78 -17v-60h-270v60l89 20l277 540l-85 20v55l126 5h477v-170h-65l-25 90h-214v-215h229v-80h-229v-245h229l20 100h65v-180h-509zM300 285h180v335h-15z" />
<glyph unicode="&#xc7;" horiz-adv-x="645" d="M595 491h-75l-27 114q-54 20 -128 20q-102 0 -156 -73t-54 -208q0 -134 58.5 -199t156.5 -65q22 0 47.5 6t49.5 14.5t44 19t33 20.5l26 20l40 -65q-18 -18 -41 -34.5t-49.5 -30.5t-55.5 -23.5t-59 -13.5v-37q85 -15 85 -89q0 -20 -9 -36t-24 -27t-33 -17.5t-36 -6.5 q-32 -1 -59.5 6t-50.5 18l-15 7l26 42q48 -23 75 -23q56 0 56 40q0 23 -21.5 36.5t-58.5 13.5v71q-144 6 -222 93.5t-78 255.5q0 84 23.5 152t67.5 116.5t105.5 75t138.5 26.5q23 0 50.5 -3.5t54 -9.5t50 -12.5t38.5 -12.5l32 -12z" />
<glyph unicode="&#xc8;" horiz-adv-x="625" d="M465 620h-215v-215h230v-80h-230v-245h230l20 100h65v-180h-505v60l85 20v540l-85 20v55l190 5h305v-170h-65zM369 735l-195 125l50 75l185 -145z" />
<glyph unicode="&#xc9;" horiz-adv-x="625" d="M465 620h-215v-215h230v-80h-230v-245h230l20 100h65v-180h-505v60l85 20v540l-85 20v55l190 5h305v-170h-65zM475 860l-195 -125l-40 55l185 145z" />
<glyph unicode="&#xca;" horiz-adv-x="625" d="M465 620h-215v-215h230v-80h-230v-245h230l20 100h65v-180h-505v60l85 20v540l-85 20v55l190 5h305v-170h-65zM455 750l-133 93l-137 -93l-40 45l145 120l60 5l145 -125z" />
<glyph unicode="&#xcb;" horiz-adv-x="625" d="M465 620h-215v-215h230v-80h-230v-245h230l20 100h65v-180h-505v60l85 20v540l-85 20v55l190 5h305v-170h-65zM174 781q-14 16 -14 43t15.5 44t40.5 17t39.5 -17t14.5 -43q0 -27 -16 -43.5t-41 -16.5q-24 0 -39 16zM379 781q-14 16 -14 43t15.5 44t40.5 17t39.5 -17 t14.5 -43q0 -27 -16 -43.5t-41 -16.5q-24 0 -39 16z" />
<glyph unicode="&#xcc;" horiz-adv-x="355" d="M315 60v-60h-275v60l85 20v540l-85 20v55l275 5v-60l-85 -20v-540zM215 735l-195 125l50 75l185 -145z" />
<glyph unicode="&#xcd;" horiz-adv-x="355" d="M315 60v-60h-275v60l85 20v540l-85 20v55l275 5v-60l-85 -20v-540zM330 860l-195 -125l-40 55l185 145z" />
<glyph unicode="&#xce;" horiz-adv-x="355" d="M305 750l-126 93l-130 -93l-40 45l138 120l60 5l138 -125zM317 60v-60h-275v60l85 20v540l-85 20v55l275 5v-60l-85 -20v-540z" />
<glyph unicode="&#xcf;" horiz-adv-x="355" d="M315 60v-60h-275v60l85 20v540l-85 20v55l275 5v-60l-85 -20v-540zM35 781q-14 16 -14 43t15.5 44t40.5 17t39.5 -17t14.5 -43q0 -27 -16 -43.5t-41 -16.5q-24 0 -39 16zM240 781q-14 16 -14 43t15.5 44t40.5 17t39.5 -17t14.5 -43q0 -27 -16 -43.5t-41 -16.5 q-24 0 -39 16z" />
<glyph unicode="&#xd0;" horiz-adv-x="733" d="M60 330v79h85v211l-85 20v55l190 5h128q74 0 132.5 -22.5t99 -66t62 -107t21.5 -145.5t-23.5 -148t-66.5 -113t-104 -72.5t-136 -25.5h-303v60l85 20v250h-85zM249 620v-211h156v-79h-156v-250h119q99 0 154.5 68t55.5 205q0 138 -54 202.5t-151 64.5h-124z" />
<glyph unicode="&#xd1;" horiz-adv-x="790" d="M545 0l-330 551v-471l95 -20v-60h-270v60l85 20v540l-85 20v55l210 5l330 -559v479l-85 20v55l260 5v-60l-85 -20v-620h-125zM236 766l-35 35q18 42 48 68t64 26q20 0 39.5 -6t44.5 -16t45 -17t33 -7q24 0 40 10.5t23 21.5l8 10l35 -35q-4 -12 -14 -27t-24 -31.5t-31 -24 t-38 -7.5q-17 0 -40.5 6.5t-47.5 16t-43 15.5t-32 6q-23 -1 -41 -11.5t-26 -21.5z" />
<glyph unicode="&#xd2;" horiz-adv-x="755" d="M60 342q0 84 22.5 152t65.5 116.5t102.5 74t132.5 25.5t131 -24.5t98.5 -70.5t61.5 -111t21 -146t-24 -148.5t-67.5 -116t-104.5 -76t-135 -27.5q-147 0 -225.5 91t-78.5 261zM380 625q-205 0 -205 -275t195 -275q100 0 155 70t55 210q0 270 -200 270zM430 735l-195 125 l50 75l185 -145z" />
<glyph unicode="&#xd3;" horiz-adv-x="755" d="M60 342q0 84 22.5 152t65.5 116.5t102.5 74t132.5 25.5t131 -24.5t98.5 -70.5t61.5 -111t21 -146t-24 -148.5t-67.5 -116t-104.5 -76t-135 -27.5q-147 0 -225.5 91t-78.5 261zM380 625q-205 0 -205 -275t195 -275q100 0 155 70t55 210q0 270 -200 270zM510 860l-195 -125 l-40 55l185 145z" />
<glyph unicode="&#xd4;" horiz-adv-x="755" d="M60 342q0 84 22.5 152t65.5 116.5t102.5 74t132.5 25.5t131 -24.5t98.5 -70.5t61.5 -111t21 -146t-24 -148.5t-67.5 -116t-104.5 -76t-135 -27.5q-147 0 -225.5 91t-78.5 261zM380 625q-205 0 -205 -275t195 -275q100 0 155 70t55 210q0 270 -200 270zM508 750l-133 93 l-137 -93l-40 45l145 120l60 5l145 -125z" />
<glyph unicode="&#xd5;" horiz-adv-x="755" d="M60 342q0 84 22.5 152t65.5 116.5t102.5 74t132.5 25.5t131 -24.5t98.5 -70.5t61.5 -111t21 -146t-24 -148.5t-67.5 -116t-104.5 -76t-135 -27.5q-147 0 -225.5 91t-78.5 261zM380 625q-205 0 -205 -275t195 -275q100 0 155 70t55 210q0 270 -200 270zM223 805l-35 35 q18 42 48 68t64 26q20 0 39.5 -6t44.5 -16t45 -17t33 -7q24 0 40 10.5t23 21.5l8 10l35 -35q-4 -12 -14 -27t-24 -31.5t-31 -24t-38 -7.5q-17 0 -40.5 6.5t-47.5 16t-43 15.5t-32 6q-23 -1 -41 -11.5t-26 -21.5z" />
<glyph unicode="&#xd6;" horiz-adv-x="755" d="M60 342q0 84 22.5 152t65.5 116.5t102.5 74t132.5 25.5t131 -24.5t98.5 -70.5t61.5 -111t21 -146t-24 -148.5t-67.5 -116t-104.5 -76t-135 -27.5q-147 0 -225.5 91t-78.5 261zM380 625q-205 0 -205 -275t195 -275q100 0 155 70t55 210q0 270 -200 270zM234 781 q-14 16 -14 43t15.5 44t40.5 17t39.5 -17t14.5 -43q0 -27 -16 -43.5t-41 -16.5q-24 0 -39 16zM439 781q-14 16 -14 43t15.5 44t40.5 17t39.5 -17t14.5 -43q0 -27 -16 -43.5t-41 -16.5q-24 0 -39 16z" />
<glyph unicode="&#xd7;" horiz-adv-x="600" d="M60 449l56 56l184 -184l184 184l56 -56l-184 -184l184 -184l-56 -56l-184 184l-184 -184l-56 56l184 184z" />
<glyph unicode="&#xd8;" horiz-adv-x="755" d="M595 785l65 -35l-68 -113q103 -94 103 -269q0 -86 -24 -155.5t-67.5 -119t-104.5 -76.5t-134 -27q-84 0 -145 30l-75 -125l-65 35l79 131q-99 90 -99 284q0 83 23 150.5t65.5 115t102.5 73.5t134 26q80 0 146 -32zM537 546l-268 -445q41 -26 101 -26q101 0 155.5 70 t54.5 201q0 132 -43 200zM483 599q-44 26 -103 26q-205 0 -205 -275q0 -123 41 -194z" />
<glyph unicode="&#xd9;" horiz-adv-x="790" d="M665 620v-335q0 -147 -62 -221t-209 -74t-208 68.5t-61 211.5v350l-85 20v55l285 5v-60l-95 -20v-350q0 -110 38 -152.5t129 -42.5t127 46.5t36 163.5v335l-95 20v55l285 5v-60zM430 735l-195 125l50 75l185 -145z" />
<glyph unicode="&#xda;" horiz-adv-x="790" d="M665 620v-335q0 -147 -62 -221t-209 -74t-208 68.5t-61 211.5v350l-85 20v55l285 5v-60l-95 -20v-350q0 -110 38 -152.5t129 -42.5t127 46.5t36 163.5v335l-95 20v55l285 5v-60zM554 860l-195 -125l-40 55l185 145z" />
<glyph unicode="&#xdb;" horiz-adv-x="790" d="M665 620v-335q0 -147 -62 -221t-209 -74t-208 68.5t-61 211.5v350l-85 20v55l285 5v-60l-95 -20v-350q0 -110 38 -152.5t129 -42.5t127 46.5t36 163.5v335l-95 20v55l285 5v-60zM529 750l-133 93l-137 -93l-40 45l145 120l60 5l145 -125z" />
<glyph unicode="&#xdc;" horiz-adv-x="790" d="M665 620v-335q0 -147 -62 -221t-209 -74t-208 68.5t-61 211.5v350l-85 20v55l285 5v-60l-95 -20v-350q0 -110 38 -152.5t129 -42.5t127 46.5t36 163.5v335l-95 20v55l285 5v-60zM244 781q-14 16 -14 43t15.5 44t40.5 17t39.5 -17t14.5 -43q0 -27 -16 -43.5t-41 -16.5 q-24 0 -39 16zM449 781q-14 16 -14 43t15.5 44t40.5 17t39.5 -17t14.5 -43q0 -27 -16 -43.5t-41 -16.5q-24 0 -39 16z" />
<glyph unicode="&#xdd;" horiz-adv-x="645" d="M185 0v60l85 20v179l-193 362l-67 19v55l250 5v-60l-68 -20l133 -280l147 280l-77 20v55l240 5v-60l-62 -18l-198 -361v-181l85 -20v-60h-275zM505 860l-195 -125l-40 55l185 145z" />
<glyph unicode="&#xde;" horiz-adv-x="605" d="M230 620v-55h105q108 0 169 -49t61 -136q0 -109 -68.5 -167t-196.5 -58h-70v-75l85 -20v-60h-275v60l85 20v540l-85 20v55l275 5v-60zM230 485v-250h70q79 0 122 33.5t43 91.5q0 59 -36 92t-99 33h-100z" />
<glyph unicode="&#xdf;" horiz-adv-x="761" d="M70 450v65l110 10v55q0 94 58 147t161 53q51 0 93.5 -9.5t73 -28.5t47.5 -48.5t17 -68.5t-20.5 -71.5t-45.5 -51.5q-65 -50 -65 -92q0 -26 17 -43.5t43 -31.5t55.5 -26.5t55.5 -31.5t43 -46.5t17 -69.5q0 -37 -17.5 -68.5t-46 -54t-66 -35.5t-77.5 -13q-38 1 -70 4 t-59 12l-18 6v144h64l15 -81q20 -10 58 -10q50 0 81 20t31 56q0 28 -17 45.5t-42.5 31t-55.5 26t-55.5 30.5t-42.5 44.5t-17 67.5q0 31 8 53t21 38.5t28 29t30 23.5q48 36 48 85q0 24 -10 41.5t-27.5 28t-41 15.5t-50.5 5q-54 0 -87.5 -28.5t-33.5 -76.5v-600h-185v55l85 25 v370h-110z" />
<glyph unicode="&#xe0;" d="M75 500q108 40 198 40q88 0 135 -35.5t47 -119.5v-305l80 -20v-55l-155 -5l-21 70q-80 -80 -158 -80t-117 39t-39 111q0 155 230 155h80v80q0 90 -95 90q-54 0 -89 -11l-12 -4l-14 -75h-65zM355 230h-70q-75 0 -106.5 -19.5t-31.5 -60.5q0 -39 18.5 -59.5t53.5 -20.5 q17 0 34.5 6t34 15t29.5 19.5t21 19.5l17 20v80zM345 596l-210 130l50 75l195 -155z" />
<glyph unicode="&#xe1;" d="M75 500q108 40 198 40q88 0 135 -35.5t47 -119.5v-305l80 -20v-55l-155 -5l-21 70q-80 -80 -158 -80t-117 39t-39 111q0 155 230 155h80v80q0 90 -95 90q-54 0 -89 -11l-12 -4l-14 -75h-65zM355 230h-70q-75 0 -106.5 -19.5t-31.5 -60.5q0 -39 18.5 -59.5t53.5 -20.5 q17 0 34.5 6t34 15t29.5 19.5t21 19.5l17 20v80zM404 726l-210 -130l-35 50l195 155z" />
<glyph unicode="&#xe2;" d="M75 500q108 40 198 40q88 0 135 -35.5t47 -119.5v-305l80 -20v-55l-155 -5l-21 70q-80 -80 -158 -80t-117 39t-39 111q0 155 230 155h80v80q0 90 -95 90q-54 0 -89 -11l-12 -4l-14 -75h-65zM355 230h-70q-75 0 -106.5 -19.5t-31.5 -60.5q0 -39 18.5 -59.5t53.5 -20.5 q17 0 34.5 6t34 15t29.5 19.5t21 19.5l17 20v80zM400 602l-138 108l-142 -108l-40 45l150 135l60 5l150 -140z" />
<glyph unicode="&#xe3;" d="M75 500q108 40 198 40q88 0 135 -35.5t47 -119.5v-305l80 -20v-55l-155 -5l-21 70q-80 -80 -158 -80t-117 39t-39 111q0 155 230 155h80v80q0 90 -95 90q-54 0 -89 -11l-12 -4l-14 -75h-65zM355 230h-70q-75 0 -106.5 -19.5t-31.5 -60.5q0 -39 18.5 -59.5t53.5 -20.5 q17 0 34.5 6t34 15t29.5 19.5t21 19.5l17 20v80zM108 635l-35 35q18 42 48 68t64 26q20 0 39.5 -6t44.5 -16t45 -17t33 -7q24 0 40 10.5t23 21.5l8 10l35 -35q-4 -12 -14 -27t-24 -31.5t-31 -24t-38 -7.5q-17 0 -40.5 6.5t-47.5 16t-43 15.5t-32 6q-23 -1 -41 -11.5 t-26 -21.5z" />
<glyph unicode="&#xe4;" d="M75 500q108 40 198 40q88 0 135 -35.5t47 -119.5v-305l80 -20v-55l-155 -5l-21 70q-80 -80 -158 -80t-117 39t-39 111q0 155 230 155h80v80q0 90 -95 90q-54 0 -89 -11l-12 -4l-14 -75h-65zM355 230h-70q-75 0 -106.5 -19.5t-31.5 -60.5q0 -39 18.5 -59.5t53.5 -20.5 q17 0 34.5 6t34 15t29.5 19.5t21 19.5l17 20v80zM119 656q-14 16 -14 43t15.5 44t40.5 17t39.5 -17t14.5 -43q0 -27 -16 -43.5t-41 -16.5q-24 0 -39 16zM324 656q-14 16 -14 43t15.5 44t40.5 17t39.5 -17t14.5 -43q0 -27 -16 -43.5t-41 -16.5q-24 0 -39 16z" />
<glyph unicode="&#xe5;" d="M75 500q108 40 198 40q88 0 135 -35.5t47 -119.5v-305l80 -20v-55l-155 -5l-21 70q-80 -80 -158 -80t-117 39t-39 111q0 155 230 155h80v80q0 90 -95 90q-54 0 -89 -11l-12 -4l-14 -75h-65zM355 230h-70q-75 0 -106.5 -19.5t-31.5 -60.5q0 -39 18.5 -59.5t53.5 -20.5 q17 0 34.5 6t34 15t29.5 19.5t21 19.5l17 20v80zM201 624q-34 30 -34 81q0 26 10 47.5t26.5 36.5t37.5 23t42 8t41.5 -7.5t36.5 -22t26 -35t10 -45.5q0 -27 -10.5 -48t-27 -36t-37.5 -23t-42 -8q-44 0 -79 29zM227 707q0 -62 55 -62q24 0 39.5 17t15.5 46q0 62 -55 62 q-24 0 -39.5 -17t-15.5 -46z" />
<glyph unicode="&#xe6;" horiz-adv-x="835" d="M800 305l-5 -53l-345 -2q0 -82 39.5 -131t105.5 -49q22 0 44 4t41.5 10t35.5 13.5t27 14.5l20 13l35 -52q-34 -27 -62.5 -41t-67 -28t-83.5 -14q-142 0 -197 106q-7 -9 -23.5 -27t-41.5 -35.5t-57 -30.5t-71 -13q-72 0 -111 39t-39 111q0 155 230 155h80v80q0 90 -95 90 q-54 0 -89 -11l-12 -4l-14 -75h-65l-5 125q108 40 195 40q120 0 156 -70q64 70 164 70q210 0 210 -235zM355 230h-70q-75 0 -107.5 -19t-32.5 -61q0 -44 22.5 -62t49.5 -18q25 0 47 9t38.5 21.5t28 25t17.5 20.5l7 9v75zM454 325h240q0 61 -26 99t-84 38q-57 0 -91 -38.5 t-39 -98.5z" />
<glyph unicode="&#xe7;" horiz-adv-x="510" d="M465 365h-65l-15 85q-39 10 -90 10q-72 0 -111 -46t-39 -143t41 -149t114 -52q21 0 41.5 4t39 10.5t33.5 14.5t24 16l17 15l35 -60q-14 -12 -34.5 -25t-44 -24t-47.5 -19t-44 -10v-36q40 -8 63.5 -31t23.5 -59q0 -18 -8.5 -34t-22.5 -27t-32 -17.5t-36 -6.5 q-66 0 -108 21l-14 7l24 41q45 -21 75 -21q57 0 57 41q0 23 -22.5 37t-59.5 14v71q-109 8 -164.5 79t-55.5 194q0 60 18.5 110.5t52.5 87t82 57t107 20.5q20 0 41 -3t41 -7t37 -9.5t29 -10.5l22 -10z" />
<glyph unicode="&#xe8;" horiz-adv-x="530" d="M490 252l-345 -2q0 -82 39.5 -131t105.5 -49q22 0 44 4t41.5 10t35.5 13.5t27 14.5l20 13l35 -52q-34 -27 -62.5 -42.5t-67 -28t-83.5 -12.5q-118 0 -179 71.5t-61 195.5q0 62 18 114t50.5 89.5t77.5 58.5t99 21q210 0 210 -235zM149 325h240q0 61 -26 99t-84 38 q-57 0 -91 -38.5t-39 -98.5zM345 596l-210 130l50 75l195 -155z" />
<glyph unicode="&#xe9;" horiz-adv-x="530" d="M490 252l-345 -2q0 -82 39.5 -131t105.5 -49q22 0 44 4t41.5 10t35.5 13.5t27 14.5l20 13l35 -52q-34 -27 -62.5 -42.5t-67 -28t-83.5 -12.5q-118 0 -179 71.5t-61 195.5q0 62 18 114t50.5 89.5t77.5 58.5t99 21q210 0 210 -235zM149 325h240q0 61 -26 99t-84 38 q-57 0 -91 -38.5t-39 -98.5zM420 726l-210 -130l-35 50l195 155z" />
<glyph unicode="&#xea;" horiz-adv-x="530" d="M490 252l-345 -2q0 -82 39.5 -131t105.5 -49q22 0 44 4t41.5 10t35.5 13.5t27 14.5l20 13l35 -52q-34 -27 -62.5 -42.5t-67 -28t-83.5 -12.5q-118 0 -179 71.5t-61 195.5q0 62 18 114t50.5 89.5t77.5 58.5t99 21q210 0 210 -235zM149 325h240q0 61 -26 99t-84 38 q-57 0 -91 -38.5t-39 -98.5zM410 601l-138 108l-142 -108l-40 45l150 135l60 5l150 -140z" />
<glyph unicode="&#xeb;" horiz-adv-x="530" d="M490 252l-345 -2q0 -82 39.5 -131t105.5 -49q22 0 44 4t41.5 10t35.5 13.5t27 14.5l20 13l35 -52q-34 -27 -62.5 -42.5t-67 -28t-83.5 -12.5q-118 0 -179 71.5t-61 195.5q0 62 18 114t50.5 89.5t77.5 58.5t99 21q210 0 210 -235zM149 325h240q0 61 -26 99t-84 38 q-57 0 -91 -38.5t-39 -98.5zM129 656q-14 16 -14 43t15.5 44t40.5 17t39.5 -17t14.5 -43q0 -27 -16 -43.5t-41 -16.5q-24 0 -39 16zM334 656q-14 16 -14 43t15.5 44t40.5 17t39.5 -17t14.5 -43q0 -27 -16 -43.5t-41 -16.5q-24 0 -39 16z" />
<glyph unicode="&#xec;" horiz-adv-x="335" d="M225 530v-450l75 -25v-55h-260v55l85 25v370l-85 20v55zM226 596l-210 130l50 75l195 -155z" />
<glyph unicode="&#xed;" horiz-adv-x="335" d="M225 530v-450l75 -25v-55h-260v55l85 25v370l-85 20v55zM310 735l-210 -130l-35 50l195 155z" />
<glyph unicode="&#xee;" horiz-adv-x="335" d="M225 530v-450l75 -25v-55h-260v55l85 25v370l-85 20v55zM295 600l-128 108l-132 -108l-40 45l140 135l60 5l140 -140z" />
<glyph unicode="&#xef;" horiz-adv-x="335" d="M225 530v-450l75 -25v-55h-260v55l85 25v370l-85 20v55zM29 656q-14 16 -14 43t15.5 44t40.5 17t39.5 -17t14.5 -43q0 -27 -16 -43.5t-41 -16.5q-24 0 -39 16zM224 656q-14 16 -14 43t15.5 44t40.5 17t39.5 -17t14.5 -43q0 -27 -16 -43.5t-41 -16.5q-24 0 -39 16z" />
<glyph unicode="&#xf0;" horiz-adv-x="595" d="M471 727l-94 -51q158 -143 158 -411q0 -62 -18 -112.5t-51 -86.5t-79 -56t-103 -20q-112 0 -175.5 65.5t-63.5 191.5q0 63 17 112.5t49 84t77 53t102 18.5q69 0 123 -42q-36 100 -112 162l-131 -70l-40 55l108 58q-45 25 -98 42l30 63q81 -20 148 -61l112 61zM295 435 q-145 0 -145 -185q0 -85 34.5 -132.5t106.5 -47.5t105.5 46t33.5 139q0 180 -135 180z" />
<glyph unicode="&#xf1;" horiz-adv-x="665" d="M205 530l9 -71q10 8 28 22t42.5 27t54 22.5t61.5 9.5q81 0 120.5 -47.5t39.5 -132.5v-280l75 -25v-55h-240v55l65 25v270q0 54 -21 79.5t-64 25.5q-21 0 -41.5 -5.5t-38 -14.5t-31 -19.5t-22.5 -20.5l-17 -20v-295l65 -25v-55h-250v55l85 25v370l-85 20v55zM177 635 l-35 35q18 42 48 68t64 26q20 0 39.5 -6t44.5 -16t45 -17t33 -7q24 0 40 10.5t23 21.5l8 10l35 -35q-4 -12 -14 -27t-24 -31.5t-31 -24t-38 -7.5q-17 0 -40.5 6.5t-47.5 16t-43 15.5t-32 6q-23 -1 -41 -11.5t-26 -21.5z" />
<glyph unicode="&#xf2;" horiz-adv-x="570" d="M40 257q0 64 18.5 116.5t52.5 89.5t80.5 57t102.5 20q112 0 174 -71t62 -197q0 -62 -18 -113.5t-50.5 -89t-79 -58.5t-103.5 -21q-114 0 -176.5 68t-62.5 199zM290 460q-145 0 -145 -195t140 -195q73 0 106.5 50t33.5 150q0 190 -135 190zM355 596l-210 130l50 75 l195 -155z" />
<glyph unicode="&#xf3;" horiz-adv-x="570" d="M40 257q0 64 18.5 116.5t52.5 89.5t80.5 57t102.5 20q112 0 174 -71t62 -197q0 -62 -18 -113.5t-50.5 -89t-79 -58.5t-103.5 -21q-114 0 -176.5 68t-62.5 199zM290 460q-145 0 -145 -195t140 -195q73 0 106.5 50t33.5 150q0 190 -135 190zM424 726l-210 -130l-35 50 l195 155z" />
<glyph unicode="&#xf4;" horiz-adv-x="570" d="M40 257q0 64 18.5 116.5t52.5 89.5t80.5 57t102.5 20q112 0 174 -71t62 -197q0 -62 -18 -113.5t-50.5 -89t-79 -58.5t-103.5 -21q-114 0 -176.5 68t-62.5 199zM290 460q-145 0 -145 -195t140 -195q73 0 106.5 50t33.5 150q0 190 -135 190zM430 601l-138 108l-142 -108 l-40 45l150 135l60 5l150 -140z" />
<glyph unicode="&#xf5;" horiz-adv-x="570" d="M40 257q0 64 18.5 116.5t52.5 89.5t80.5 57t102.5 20q112 0 174 -71t62 -197q0 -62 -18 -113.5t-50.5 -89t-79 -58.5t-103.5 -21q-114 0 -176.5 68t-62.5 199zM290 460q-145 0 -145 -195t140 -195q73 0 106.5 50t33.5 150q0 190 -135 190zM130 635l-35 35q18 42 48 68 t64 26q20 0 39.5 -6t44.5 -16t45 -17t33 -7q24 0 40 10.5t23 21.5l8 10l35 -35q-4 -12 -14 -27t-24 -31.5t-31 -24t-38 -7.5q-17 0 -40.5 6.5t-47.5 16t-43 15.5t-32 6q-23 -1 -41 -11.5t-26 -21.5z" />
<glyph unicode="&#xf6;" horiz-adv-x="570" d="M40 257q0 64 18.5 116.5t52.5 89.5t80.5 57t102.5 20q112 0 174 -71t62 -197q0 -62 -18 -113.5t-50.5 -89t-79 -58.5t-103.5 -21q-114 0 -176.5 68t-62.5 199zM290 460q-145 0 -145 -195t140 -195q73 0 106.5 50t33.5 150q0 190 -135 190zM139 656q-14 16 -14 43t15.5 44 t40.5 17t39.5 -17t14.5 -43q0 -27 -16 -43.5t-41 -16.5q-24 0 -39 16zM344 656q-14 16 -14 43t15.5 44t40.5 17t39.5 -17t14.5 -43q0 -27 -16 -43.5t-41 -16.5q-24 0 -39 16z" />
<glyph unicode="&#xf7;" horiz-adv-x="620" d="M309 -10q-29 0 -46.5 18.5t-17.5 50.5q0 33 18.5 52t47.5 19t46.5 -18.5t17.5 -51.5q0 -32 -18.5 -51t-47.5 -19zM309 400q-29 0 -46.5 18.5t-17.5 50.5q0 33 18.5 52t47.5 19t46.5 -18.5t17.5 -51.5q0 -32 -18.5 -51t-47.5 -19zM50 225v80h520v-80h-520z" />
<glyph unicode="&#xf8;" horiz-adv-x="580" d="M50 -70l69 116q-74 69 -74 205q0 68 19 121.5t52.5 91t80.5 57t103 19.5q54 0 102 -20l63 105l60 -35l-65 -109q75 -71 75 -202q0 -65 -18 -118.5t-50.5 -91.5t-78.5 -58.5t-103 -20.5q-59 0 -107 19l-68 -114zM295 460q-145 0 -145 -195q0 -80 23 -128l185 309 q-30 14 -63 14zM290 70q140 0 140 188q0 87 -23 135l-184 -308q28 -15 67 -15z" />
<glyph unicode="&#xf9;" horiz-adv-x="650" d="M540 530v-450l85 -20v-55l-165 -5l-10 70q-42 -37 -95 -58.5t-90 -21.5q-80 0 -120 47t-40 132v281l-85 20v55l185 5v-351q0 -53 21 -78.5t64 -25.5t79 20t53 39l18 20v296l-85 20v55zM385 596l-210 130l50 75l195 -155z" />
<glyph unicode="&#xfa;" horiz-adv-x="650" d="M540 530v-450l85 -20v-55l-165 -5l-10 70q-42 -37 -95 -58.5t-90 -21.5q-80 0 -120 47t-40 132v281l-85 20v55l185 5v-351q0 -53 21 -78.5t64 -25.5t79 20t53 39l18 20v296l-85 20v55zM460 726l-210 -130l-35 50l195 155z" />
<glyph unicode="&#xfb;" horiz-adv-x="650" d="M540 530v-450l85 -20v-55l-165 -5l-10 70q-42 -37 -95 -58.5t-90 -21.5q-80 0 -120 47t-40 132v281l-85 20v55l185 5v-351q0 -53 21 -78.5t64 -25.5t79 20t53 39l18 20v296l-85 20v55zM465 601l-138 108l-142 -108l-40 45l150 135l60 5l150 -140z" />
<glyph unicode="&#xfc;" horiz-adv-x="650" d="M540 530v-450l85 -20v-55l-165 -5l-10 70q-42 -37 -95 -58.5t-90 -21.5q-80 0 -120 47t-40 132v281l-85 20v55l185 5v-351q0 -53 21 -78.5t64 -25.5t79 20t53 39l18 20v296l-85 20v55zM169 656q-14 16 -14 43t15.5 44t40.5 17t39.5 -17t14.5 -43q0 -27 -16 -43.5 t-41 -16.5q-24 0 -39 16zM374 656q-14 16 -14 43t15.5 44t40.5 17t39.5 -17t14.5 -43q0 -27 -16 -43.5t-41 -16.5q-24 0 -39 16z" />
<glyph unicode="&#xfd;" horiz-adv-x="575" d="M245 530v-60l-70 -10l120 -350l110 345l-70 15v55l237 5v-60l-65 -10l-142 -396q-50 -131 -74 -174q-75 -129 -196 -130l-64 5l9 70h50q49 0 85.5 41t73.5 122l-179 457l-60 15v55zM485 726l-210 -130l-35 50l195 155z" />
<glyph unicode="&#xfe;" horiz-adv-x="615" d="M315 -175v-55h-285v55l80 20v845l-85 20v55l185 5v-290q11 11 28.5 21.5t37.5 19t40.5 14t38.5 5.5q106 0 160.5 -69.5t54.5 -197.5q0 -62 -16.5 -114t-50.5 -89.5t-84.5 -58.5t-118.5 -21q-22 0 -41.5 2t-36.5 8l-12 4v-159zM210 390v-300q31 -20 105 -20q150 0 150 200 q0 88 -32 139t-98 51q-38 0 -71.5 -17.5t-53.5 -52.5z" />
<glyph unicode="&#xff;" horiz-adv-x="575" d="M245 530v-60l-70 -10l120 -350l110 345l-70 15v55l237 5v-60l-65 -10l-142 -396q-50 -131 -74 -174q-75 -129 -196 -130l-64 5l9 70h50q49 0 85.5 41t73.5 122l-179 457l-60 15v55zM149 656q-14 16 -14 43t15.5 44t40.5 17t39.5 -17t14.5 -43q0 -27 -16 -43.5t-41 -16.5 q-24 0 -39 16zM354 656q-14 16 -14 43t15.5 44t40.5 17t39.5 -17t14.5 -43q0 -27 -16 -43.5t-41 -16.5q-24 0 -39 16z" />
<glyph unicode="&#x105;" horiz-adv-x="570" d="M535 60v-55q-29 -12 -51 -28t-37.5 -33t-23.5 -32.5t-8 -26.5q0 -22 12.5 -33.5t32.5 -11.5l45 7l10 -47q-18 -11 -37 -15.5t-38 -4.5q-43 0 -74 23.5t-31 66.5q0 30 12.5 53t29.5 39t34.5 25.5t26.5 14.5l-58 -2l-21 70q-80 -80 -158 -80t-117 39t-39 111q0 155 230 155 h80v80q0 90 -95 90q-54 0 -89 -11l-12 -4l-14 -75h-65l-5 125q108 40 198 40q88 0 135 -35.5t47 -119.5v-305zM338 130l17 20v80h-70q-75 0 -106.5 -19.5t-31.5 -60.5q0 -39 18.5 -59.5t53.5 -20.5q17 0 34.5 6t34 15t29.5 19.5t21 19.5z" />
<glyph unicode="&#x119;" horiz-adv-x="530" d="M458 125l35 -52q-39 -25 -70.5 -51t-53 -51t-33.5 -47.5t-12 -38.5q0 -22 12.5 -33.5t32.5 -11.5l45 7l10 -47q-18 -11 -37.5 -15.5t-38.5 -4.5q-43 0 -73.5 23.5t-30.5 71.5q0 56 68 118q-17 -3 -32 -3q-118 0 -179 71.5t-61 195.5q0 62 18 114t50.5 89.5t77.5 58.5 t99 21q210 0 210 -235l-5 -53l-345 -2q0 -82 39.5 -131t105.5 -49q22 0 44 4t42 10t36 13.5t26 14.5zM149 325h240q0 61 -26 99t-84 38q-57 0 -91 -38.5t-39 -98.5z" />
<glyph unicode="&#x131;" horiz-adv-x="335" d="M225 530v-450l75 -25v-55h-260v55l85 25v370l-85 20v55z" />
<glyph unicode="&#x141;" horiz-adv-x="540" d="M235 620v-218l145 70l21 -75l-166 -80v-237h205l20 115h70v-195h-485v60l85 20v193l-84 -40l-21 75l105 50v262l-85 20v55l275 5v-60z" />
<glyph unicode="&#x142;" horiz-adv-x="361" d="M237 770v-337l99 47l20 -75l-119 -57v-268l100 -25v-55h-287v55l85 25v227l-94 -45l-21 74l115 55v299l-85 20v55z" />
<glyph unicode="&#x152;" horiz-adv-x="940" d="M385 705l150 -5l330 5v-175h-65l-25 90h-215v-215h230v-80h-230v-245h230l20 100h65v-180h-350l-160 -5q-148 0 -226.5 89t-78.5 258q0 84 23 151t65 114.5t102 72.5t135 25zM455 620q-23 2 -41.5 3.5t-33.5 1.5q-205 0 -205 -275t195 -275l85 5v540z" />
<glyph unicode="&#x153;" horiz-adv-x="915" d="M484 436q63 104 186 104q210 0 210 -235l-5 -53l-345 -2q0 -82 39.5 -131t105.5 -49q22 0 44 4t41.5 10t35.5 13.5t27 14.5l20 13l35 -52q-34 -28 -62.5 -42t-67 -27.5t-83.5 -13.5q-131 0 -188 103q-67 -103 -197 -103q-115 0 -177.5 68t-62.5 199q0 64 18.5 116.5 t52.5 89.5t82 57t107 20q119 0 184 -104zM290 460q-145 0 -145 -195t140 -195q145 0 145 200q0 88 -34 139t-106 51zM534 325h240q0 61 -26 99t-84 38q-57 0 -91 -38.5t-39 -98.5z" />
<glyph unicode="&#x160;" horiz-adv-x="600" d="M150 205l20 -105q18 -10 49 -17.5t61 -7.5t58 7.5t49 21.5t33.5 33.5t12.5 44.5q0 29 -16 48.5t-41.5 34t-57.5 25.5t-65 23q-35 15 -67.5 30.5t-58 38t-40.5 54.5t-15 79q0 50 19.5 87t52 61t76 35.5t91.5 11.5q22 0 47 -3t49 -7.5t45 -10t36 -9.5l32 -10l-5 -170h-65 l-34 107q-28 9 -55.5 13t-56.5 4t-52.5 -7.5t-40 -20.5t-25.5 -29t-9 -33q1 -42 28 -66t67 -41t86.5 -32t86 -37.5t66 -58.5t26.5 -94q0 -52 -20 -92t-55 -67.5t-83 -42t-103 -14.5q-22 0 -47.5 3t-50 7.5t-45.5 10t-35 10.5l-28 10v175h80zM295 820l140 110l35 -45 l-145 -140h-60l-152 140l42 45z" />
<glyph unicode="&#x161;" horiz-adv-x="475" d="M46 160h70l11 -86q10 -4 31.5 -6.5t42.5 -2.5q65 0 94.5 19.5t29.5 59.5q0 27 -20.5 43t-51.5 27t-67.5 22t-67.5 28.5t-51.5 45.5t-20.5 74q0 75 50 114.5t133 41.5q35 -1 71.5 -5.5t74.5 -16.5l25 -8l-3 -135h-65l-16 78q-8 3 -31 7.5t-49 4.5q-18 0 -34 -3t-28.5 -10 t-20 -20t-7.5 -32q0 -29 20.5 -45.5t51.5 -28.5t67.5 -23t67.5 -28.5t51.5 -44.5t20.5 -71q0 -42 -18 -74t-48.5 -53.5t-71 -32t-86.5 -10.5q-17 0 -35.5 1.5t-36.5 4t-33.5 5.5t-25.5 6l-23 6zM231 676l140 110l35 -45l-145 -140h-60l-152 140l42 45z" />
<glyph unicode="&#x178;" horiz-adv-x="645" d="M185 0v60l85 20v179l-193 362l-67 19v55l250 5v-60l-68 -20l133 -280l147 280l-77 20v55l240 5v-60l-62 -18l-198 -361v-181l85 -20v-60h-275zM174 781q-14 16 -14 43t15.5 44t40.5 17t39.5 -17t14.5 -43q0 -27 -16 -43.5t-41 -16.5q-24 0 -39 16zM379 781q-14 16 -14 43 t15.5 44t40.5 17t39.5 -17t14.5 -43q0 -27 -16 -43.5t-41 -16.5q-24 0 -39 16z" />
<glyph unicode="&#x17d;" horiz-adv-x="615" d="M70 700h505v-70l-400 -550h310l20 100h65v-180h-530v70l400 550h-280l-25 -100h-65v180zM305 820l140 110l35 -45l-145 -140h-60l-152 140l42 45z" />
<glyph unicode="&#x17e;" horiz-adv-x="505" d="M470 530v-75l-293 -380h204l14 80h70v-155h-400v75l292 380h-188l-14 -75h-70v150h385zM270 676l140 110l35 -45l-145 -140h-60l-152 140l42 45z" />
<glyph unicode="&#x192;" horiz-adv-x="440" d="M-50 -120h55q46 0 66 23.5t24 71.5l36 400h-86l2 65l91 10l12 135q8 92 57.5 143.5t137.5 51.5l75 -6l-5 -74h-70q-46 0 -66 -23.5t-24 -71.5l-12 -155h142l-2 -75h-147l-34 -380q-8 -92 -58.5 -143.5t-138.5 -51.5l-65 6z" />
<glyph unicode="&#x2c6;" horiz-adv-x="520" d="M395 650l-133 93l-137 -93l-40 45l145 120l60 5l145 -125z" />
<glyph unicode="&#x2c7;" horiz-adv-x="517" d="M262 710l140 110l35 -45l-145 -140h-60l-152 140l42 45z" />
<glyph unicode="&#x2d8;" horiz-adv-x="440" d="M300 765l60 5q0 -33 -11.5 -60.5t-31 -47.5t-45 -31t-54.5 -11t-54.5 11t-44 30.5t-29 46t-10.5 57.5l60 5q0 -10 5.5 -23t15.5 -24.5t24 -19.5t32 -8q37 0 55.5 17.5t23.5 35.5z" />
<glyph unicode="&#x2d9;" horiz-adv-x="290" d="M104 656q-14 16 -14 43t15.5 44t40.5 17t39.5 -17t14.5 -43q0 -27 -16 -43.5t-41 -16.5q-24 0 -39 16z" />
<glyph unicode="&#x2da;" horiz-adv-x="390" d="M114 624q-34 30 -34 81q0 26 10 47.5t26.5 36.5t37.5 23t42 8t41.5 -7.5t36.5 -22t26 -35t10 -45.5q0 -27 -10.5 -48t-27 -36t-37.5 -23t-42 -8q-44 0 -79 29zM140 707q0 -62 55 -62q24 0 39.5 17t15.5 46q0 62 -55 62q-24 0 -39.5 -17t-15.5 -46z" />
<glyph unicode="&#x2db;" horiz-adv-x="310" d="M240 -153l10 -47q-18 -9 -37.5 -14.5t-38.5 -5.5q-45 0 -74.5 24.5t-29.5 70.5q0 22 9 43t25.5 36.5t33.5 27.5t30 18l12 5h90q-29 -12 -51 -28t-38 -33t-23.5 -32.5t-7.5 -26.5q0 -22 12.5 -33.5t32.5 -11.5z" />
<glyph unicode="&#x2dc;" d="M130 635l-35 35q18 42 48 68t64 26q20 0 39.5 -6t44.5 -16t45 -17t33 -7q24 0 40 10.5t23 21.5l8 10l35 -35q-4 -12 -14 -27t-24 -31.5t-31 -24t-38 -7.5q-17 0 -40.5 6.5t-47.5 16t-43 15.5t-32 6q-23 -1 -41 -11.5t-26 -21.5z" />
<glyph unicode="&#x2dd;" horiz-adv-x="580" d="M510 785l-180 -150l-45 50l165 165zM310 785l-180 -150l-45 50l165 165z" />
<glyph unicode="&#x394;" horiz-adv-x="666" d="M20 71l264 649h98l264 -650v-70h-626v71zM329 607l-210 -527h420z" />
<glyph unicode="&#x3a9;" horiz-adv-x="755" d="M65 80h132q-28 24 -51.5 55.5t-40 68.5t-26 78t-9.5 83q0 79 22.5 143t63 109t98 69t128.5 24q72 0 128.5 -23.5t95 -67.5t59 -106t20.5 -138q0 -43 -9.5 -85t-27 -80t-41 -71t-51.5 -58l134 4v-85h-255l1 65q11 5 24 15t26.5 23.5t25.5 29.5t21 31q18 31 32.5 85.5 t14.5 120.5q0 125 -53.5 190t-147.5 65t-149 -62.5t-55 -192.5q0 -78 17.5 -133.5t41 -91.5t47.5 -55t38 -25l1 -65h-255v80z" />
<glyph unicode="&#x3bc;" horiz-adv-x="655" d="M545 530v-450l85 -20v-55l-165 -5l-10 70q-96 -80 -185 -80q-30 0 -60 10v-230h-100v680l-85 20v55l185 5v-361q2 -48 23 -71t63 -23t78 20t54 39l17 20v296l-85 20v55z" />
<glyph unicode="&#x3c0;" horiz-adv-x="690" d="M570 68q24 0 60 12l25 -50q-55 -40 -120 -40q-47 0 -78.5 34t-31.5 111v315h-205v-450h-95v450l-85 20v55l180 5h385v-60l-85 -15v-326q0 -61 50 -61z" />
<glyph unicode="&#x2013;" horiz-adv-x="500" d="M0 285v80h500v-80h-500z" />
<glyph unicode="&#x2014;" horiz-adv-x="970" d="M0 285v80h970v-80h-970z" />
<glyph unicode="&#x2018;" horiz-adv-x="280" d="M130 496q-65 0 -65 74q0 88 115 210l45 -38q-53 -71 -53 -106q0 -6 3.5 -13.5t8.5 -18t8 -23t3 -23.5q0 -24 -18 -43t-47 -19z" />
<glyph unicode="&#x2019;" horiz-adv-x="280" d="M55 534q53 71 53 106q0 6 -3.5 13t-8 18t-8 23t-3.5 24q0 24 18 43t47 19q65 0 65 -74q0 -88 -115 -210z" />
<glyph unicode="&#x201a;" horiz-adv-x="280" d="M55 -136q53 71 53 106q0 3 -3 11.5t-8.5 19.5t-8.5 23t-3 24q0 24 18 43t47 19q65 0 65 -74q0 -88 -115 -210z" />
<glyph unicode="&#x201c;" horiz-adv-x="475" d="M325 496q-65 0 -65 74q0 88 115 210l45 -38q-53 -71 -53 -106q0 -6 3.5 -13.5t8.5 -18t8 -23t3 -23.5q0 -24 -18 -43t-47 -19zM130 496q-65 0 -65 74q0 88 115 210l45 -38q-53 -71 -53 -106q0 -6 3.5 -13.5t8.5 -18t8 -23t3 -23.5q0 -24 -18 -43t-47 -19z" />
<glyph unicode="&#x201d;" horiz-adv-x="475" d="M55 534q53 71 53 106q0 5 -3 12.5t-8.5 18.5t-8.5 23t-3 24q0 24 18 43t47 19q65 0 65 -74q0 -88 -115 -210zM250 534q53 71 53 106q0 5 -3 12.5t-8.5 18.5t-8.5 23t-3 24q0 24 18 43t47 19q65 0 65 -74q0 -88 -115 -210z" />
<glyph unicode="&#x201e;" horiz-adv-x="475" d="M55 -136q53 71 53 106q0 3 -3 11.5t-8.5 19.5t-8.5 23t-3 24q0 24 18 43t47 19q65 0 65 -74q0 -88 -115 -210zM250 -136q53 71 53 106q0 3 -3.5 11.5t-8.5 19.5t-8 23t-3 24q0 24 18 43t47 19q65 0 65 -74q0 -88 -115 -210z" />
<glyph unicode="&#x2020;" horiz-adv-x="495" d="M290 755l-5 -155h170v-70l-208 -25l-207 25v70h169l-4 150zM195 455l10 -415l42 -40l43 40l10 415l-53 -10z" />
<glyph unicode="&#x2021;" horiz-adv-x="495" d="M40 530v70h169l-4 150l85 5l-5 -155h170v-70l-208 -25zM199 303l6 -263l42 -40l43 40l6 263l-49 -10zM81 396v73l166 -24l166 24v-73l-166 -42z" />
<glyph unicode="&#x2022;" horiz-adv-x="505" d="M132 202q-47 47 -47 113q0 33 12.5 62t34.5 50.5t51 34.5t62 13t62 -13t50.5 -34.5t34.5 -50.5t13 -62t-13 -62t-34.5 -51t-50.5 -34.5t-62 -12.5q-66 0 -113 47z" />
<glyph unicode="&#x2026;" horiz-adv-x="720" d="M119 -10q-29 0 -46.5 18.5t-17.5 50.5q0 33 18.5 52t47.5 19t46.5 -18.5t17.5 -51.5q0 -32 -18.5 -51t-47.5 -19zM359 -10q-29 0 -46.5 18.5t-17.5 50.5q0 33 18.5 52t47.5 19t46.5 -18.5t17.5 -51.5q0 -32 -18.5 -51t-47.5 -19zM599 -10q-29 0 -46.5 18.5t-17.5 50.5 q0 33 18.5 52t47.5 19t46.5 -18.5t17.5 -51.5q0 -32 -18.5 -51t-47.5 -19z" />
<glyph unicode="&#x2030;" horiz-adv-x="1175" d="M155 0l405 700h90l-405 -700h-90zM201 360q-72 0 -114 42t-42 127q0 42 12 76t34 57t51.5 35.5t65.5 12.5q72 0 114.5 -43.5t42.5 -128.5t-45.5 -131.5t-118.5 -46.5zM205 645q-85 0 -85 -110t85 -110t85 110t-85 110zM596 -10q-72 0 -114 42t-42 127q0 42 12 76t34 57 t51.5 35.5t65.5 12.5q72 0 114.5 -43.5t42.5 -128.5t-45.5 -131.5t-118.5 -46.5zM600 275q-85 0 -85 -110t85 -110t85 110t-85 110zM961 -10q-72 0 -114 42t-42 127q0 42 12 76t34 57t51.5 35.5t65.5 12.5q72 0 114.5 -43.5t42.5 -128.5t-45.5 -131.5t-118.5 -46.5zM965 275 q-85 0 -85 -110t85 -110t85 110t-85 110z" />
<glyph unicode="&#x2039;" horiz-adv-x="315" d="M145 265l115 -150l-60 -40l-145 160v60l145 160l60 -40z" />
<glyph unicode="&#x203a;" horiz-adv-x="315" d="M60 115l115 150l-115 150l60 40l145 -160v-60l-145 -160z" />
<glyph unicode="&#x2044;" horiz-adv-x="470" d="M-15 0l405 700h90l-405 -700h-90z" />
<glyph unicode="&#x2074;" horiz-adv-x="406" d="M15 430l203 280l98 -10v-264h70v-65h-70v-91h-85v91h-210zM231 615l-129 -179h129v179z" />
<glyph unicode="&#x20ac;" horiz-adv-x="628" d="M15 380v70h71q11 57 32.5 105t53.5 80t81 53.5t111 21.5q55 0 103 -10t72 -20l24 -10l-5 -139h-65l-13 80q-48 19 -125 19q-38 0 -65.5 -15.5t-45.5 -41t-29 -58t-16 -65.5h246v-70h-430zM15 310v-70h75q1 -10 5.5 -37.5t19 -62t43.5 -69t80 -58.5q25 -12 51.5 -17.5 t52.5 -5.5q51 0 89.5 9t67.5 23.5t79 52.5l10 10l-40 60q-26 -21 -50 -32.5t-57 -23.5t-72 -12q-48 1 -79.5 18.5t-48.5 42t-27 52t-13 50.5h244v70h-430z" />
<glyph unicode="&#x2122;" horiz-adv-x="952" d="M316 365v-45h-207v45l65 13v265h-74l-12 -68h-48v125h345v-125h-48l-12 68h-74v-265zM717 320v45l57 13v217l-93 -167l-51 -6l-89 168v-212l62 -13v-45h-177v45l52 13v265l-52 10v44l139 3l96 -191l99 188l132 3v-45l-50 -12v-265l50 -13v-45h-175z" />
<glyph unicode="&#x2202;" horiz-adv-x="605" d="M140 760q69 20 120 20q285 0 285 -380q0 -84 -17.5 -158.5t-52.5 -130.5t-89 -88.5t-126 -32.5q-47 0 -86.5 15.5t-68 44t-44.5 69.5t-16 91t16 92t45 73t69.5 48t89.5 17q24 0 48.5 -5.5t45.5 -13t38 -16.5t26 -17l20 -18q1 15 1.5 28.5t0.5 26.5q0 61 -11.5 111.5 t-35 87t-60.5 56.5t-88 20q-22 1 -43.5 -2t-42.5 -6l-14 -2zM435 285q-18 25 -60.5 46.5t-99.5 21.5q-61 0 -93 -36.5t-32 -99.5q0 -32 8.5 -58t23.5 -44.5t35 -29t43 -10.5q44 0 75.5 21t51.5 50.5t31 62t14 55.5z" />
<glyph unicode="&#x220f;" horiz-adv-x="720" d="M220 -230h-100v850l-85 20v55l185 5h465v-60l-83 -20h-2v-850h-100v850h-280v-850z" />
<glyph unicode="&#x2211;" horiz-adv-x="595" d="M35 -230v75l280 395l-285 385v75h505v-170h-65l-25 90h-290l275 -368l-285 -402h310l20 100h70v-180h-510z" />
<glyph unicode="&#x2212;" horiz-adv-x="580" d="M50 230v80h480v-80h-480z" />
<glyph unicode="&#x221a;" horiz-adv-x="670" d="M70 455l-55 15v55l135 5l139 -440l186 675l190 5v-55l-118 -15l-207 -700h-110z" />
<glyph unicode="&#x221e;" horiz-adv-x="880" d="M645 130q-57 0 -106 29t-104 81q-7 -7 -26.5 -25t-48 -37t-63.5 -33.5t-72 -14.5q-81 0 -125.5 43.5t-44.5 116.5q0 37 12.5 68.5t35.5 54t56.5 35t75.5 12.5q55 0 103.5 -29t105.5 -81q110 110 211 110q81 0 125.5 -43t44.5 -118q0 -36 -12.5 -67t-35.5 -53.5 t-56.5 -35.5t-75.5 -13zM650 385q-66 0 -151 -88q47 -46 81.5 -69t69.5 -23q90 0 90 90t-90 90zM230 205q65 0 150 88q-46 45 -81 68.5t-69 23.5q-90 0 -90 -90t90 -90z" />
<glyph unicode="&#x222b;" horiz-adv-x="382" d="M367 715l-7 -68q-27 8 -61 8q-35 0 -52 -27.5t-17 -100.5q0 -18 0.5 -57t2 -89t2.5 -107t2.5 -112.5t2 -104.5t0.5 -82q0 -215 -160 -215q-24 0 -63 12l-12 3l5 65q15 -2 28.5 -3.5t26.5 -1.5q41 0 58 27.5t17 100.5q0 18 -0.5 57t-2 89.5t-2.5 107.5t-2.5 111.5t-2 101 t-0.5 76.5q0 108 38 166t123 58q11 1 26.5 -3t36.5 -9z" />
<glyph unicode="&#x2248;" horiz-adv-x="626" d="M106 279l-46 31q10 20 20.5 32.5t29 29.5t45.5 27.5t65 10.5q18 0 45.5 -9.5t57.5 -25t55 -25.5t41 -10q31 -1 54 14.5t35 30.5l12 15l46 -31q-7 -14 -20.5 -31.5t-32 -34t-42 -27.5t-50.5 -11q-23 0 -54 9.5t-63.5 25.5t-58 25.5t-43.5 9.5q-30 0 -52.5 -14t-33.5 -28z M106 114l-46 31l6 11q4 8 14.5 21.5t28.5 29.5t45.5 27t65.5 11q18 0 45.5 -9t57.5 -26t56.5 -26t39.5 -9q31 -1 54 14.5t35 30.5l12 15l46 -31q-7 -14 -20.5 -31.5t-32 -34t-42 -27.5t-50.5 -11q-21 0 -53 9t-64.5 25.5t-60.5 26t-41 9.5q-29 -1 -52 -14t-34 -28z" />
<glyph unicode="&#x2260;" horiz-adv-x="635" d="M65 330v80h272l63 130h80l-63 -130h153v-80h-191l-56 -115h247v-80h-285l-65 -135h-80l65 135h-140v80h178l56 115h-234z" />
<glyph unicode="&#x2264;" horiz-adv-x="615" d="M55 0v78h505v-78h-505zM165 345l395 -130v-80l-505 175v70l505 170v-80z" />
<glyph unicode="&#x2265;" horiz-adv-x="615" d="M560 78v-78h-505v78h505zM55 215l395 130l-395 125v80l505 -170v-70l-505 -175v80z" />
<glyph unicode="&#x25ca;" horiz-adv-x="510" d="M210 -40l-193 406l190 404h90l193 -405l-190 -405h-90zM246 684l-136 -304l151 -334l137 305z" />
<glyph unicode="&#x25fc;" horiz-adv-x="530" d="M0 530h530v-530h-530v530z" />
<glyph unicode="&#xfb01;" horiz-adv-x="715" d="M70 450v65l90 10v50q0 103 56 154t174 51q47 0 97 -8.5t77 -17.5l26 -8v-121h-80l-15 72q-45 8 -100 8q-135 0 -135 -110v-70l345 5v-450l75 -25v-55h-250v55l75 25v370h-245v-370l82 -25v-55h-267v55l85 25v370h-90z" />
<glyph unicode="&#xfb02;" horiz-adv-x="757" d="M70 450v65l90 10v60q0 93 56 144t154 51q85 0 199 -8l38 -2v-690l73 -25v-55h-250v55l75 25v615q-70 10 -122 10q-56 0 -89.5 -27.5t-33.5 -72.5v-80h132l-3 -75h-129v-370l82 -25v-55h-267v55l85 25v370h-90z" />
<glyph horiz-adv-x="320" d="M275 730l-210 -130l-35 50l195 155z" />
<glyph horiz-adv-x="520" d="M400 635l-138 108l-142 -108l-40 45l150 135l60 5l150 -140z" />
<glyph horiz-adv-x="401" d="M25 525l117 50l-117 51l39 69l103 -76l-14 117h80l-14 -117l103 76l39 -69l-117 -51l117 -50l-39 -69l-103 75l14 -117h-80l14 118l-103 -76zM182 581l-40 -6l40 -5l-15 -38l25 31l27 -32l-16 39l41 5l-41 6l16 38l-27 -31l-25 31z" />
<glyph horiz-adv-x="320" d="M255 600l-210 130l50 75l195 -155z" />
<glyph d="M-15 0l520 750l70 -45l-520 -750z" />
</font>
</defs>
</svg>
